<svg width="160" height="60" viewBox="0 0 160 60" fill="none" xmlns="http://www.w3.org/2000/svg">
<path d="M10 39.7954V20H29.7954L10 39.7954Z" fill="#F26924"/>
<path d="M49.5835 39.7954V20H29.7954L49.5835 39.7954Z" fill="#F26924"/>
<path d="M29.7954 20V39.7954H49.5835L29.7954 20Z" fill="white"/>
<path d="M29.7954 20V39.7954H10L29.7954 20Z" fill="#001722"/>
<path d="M53.0149 35.9425L54.1417 39.7009H55.1376L55.8791 37.5273L56.6134 39.7009H57.6093L58.7361 35.9425H57.7111L57.0641 38.3705L56.2644 35.9425H55.4866L54.6869 38.3705L54.0399 35.9425H53.0149Z" fill="#001722"/>
<path d="M62.5091 35.9425H61.5277V39.7082H62.5091V35.9425Z" fill="#001722"/>
<path d="M66.8636 39.7009V37.4037L68.6738 39.7009H69.6407V35.9425H68.6738V38.2397L66.8636 35.9425H65.8895V39.7009H66.8636Z" fill="#001722"/>
<path d="M76.1834 37.1056C76.0889 36.8803 75.958 36.6767 75.7836 36.5095C75.6091 36.3423 75.4201 36.2042 75.1947 36.0951C74.9694 35.9861 74.7295 35.9425 74.475 35.9425H73.0283V39.7082H74.475C74.7367 39.7082 74.9766 39.6573 75.202 39.5555C75.4273 39.4537 75.6236 39.3156 75.7908 39.1411C75.958 38.9667 76.0889 38.7704 76.1834 38.5377C76.2779 38.3051 76.3215 38.0725 76.3215 37.8253C76.3215 37.5709 76.2779 37.3382 76.1834 37.1056ZM75.2311 38.247C75.1802 38.3778 75.1148 38.4869 75.0202 38.5814C74.9257 38.6759 74.8167 38.7486 74.6858 38.7995C74.555 38.8503 74.4023 38.8794 74.2351 38.8794H74.0098V36.7712H74.2351C74.4023 36.7712 74.5477 36.8003 74.6858 36.8512C74.8167 36.9021 74.933 36.9748 75.0202 37.0693C75.1148 37.1638 75.1802 37.2728 75.2311 37.4037C75.282 37.5345 75.3038 37.6727 75.3038 37.8253C75.3038 37.978 75.2747 38.1161 75.2311 38.247ZM83.3877 37.0402C83.2859 36.8003 83.1405 36.5895 82.9588 36.4077C82.777 36.226 82.5517 36.0879 82.2972 35.9861C82.0428 35.8843 81.7593 35.8334 81.4612 35.8334C81.1559 35.8334 80.8724 35.8843 80.6179 35.9861C80.3635 36.0879 80.1454 36.226 79.9636 36.4077C79.7819 36.5895 79.6365 36.8003 79.5347 37.0402C79.433 37.2801 79.3821 37.5418 79.3821 37.818C79.3821 38.1016 79.433 38.356 79.5347 38.5959C79.6365 38.8358 79.7819 39.0466 79.9636 39.2284C80.1454 39.4101 80.3635 39.5482 80.6179 39.65C80.8724 39.7518 81.1486 39.8027 81.4612 39.8027C81.7665 39.8027 82.0428 39.7518 82.2972 39.65C82.5517 39.5482 82.7698 39.4101 82.9588 39.2284C83.1405 39.0466 83.2859 38.8358 83.3877 38.5959C83.4895 38.356 83.5403 38.0943 83.5403 37.818C83.5403 37.5418 83.4895 37.2801 83.3877 37.0402ZM82.4353 38.2397C82.3772 38.3633 82.3045 38.4723 82.2027 38.5668C82.1082 38.6613 81.9919 38.734 81.861 38.7849C81.7302 38.8358 81.5993 38.8649 81.4539 38.8649C81.3085 38.8649 81.1777 38.8358 81.0468 38.7849C80.916 38.734 80.8069 38.6613 80.7124 38.5668C80.6179 38.4723 80.538 38.3633 80.4798 38.2397C80.4216 38.1161 80.3926 37.978 80.3926 37.8253C80.3926 37.6727 80.4216 37.5345 80.4798 37.4109C80.538 37.2874 80.6107 37.1783 80.7124 37.0838C80.8069 36.9893 80.9232 36.9166 81.0468 36.8657C81.1704 36.8148 81.3085 36.7858 81.4539 36.7858C81.5993 36.7858 81.7302 36.8148 81.861 36.8657C81.9919 36.9166 82.1009 36.9893 82.2027 37.0838C82.2972 37.1783 82.3772 37.2874 82.4353 37.4109C82.4935 37.5345 82.5226 37.6727 82.5226 37.8253C82.5153 37.9707 82.4862 38.1088 82.4353 38.2397Z" fill="#001722"/>
<path d="M86.3028 35.9425L87.4224 39.7009H88.4183L89.1598 37.5273L89.8941 39.7009H90.8973L92.0168 35.9425H90.9918L90.3448 38.3705L89.5451 35.9425H88.7673L87.9676 38.3705L87.3206 35.9425H86.3028Z" fill="#001722"/>
<path d="M97.3819 36.1387C97.1929 36.037 97.0038 35.9643 96.8003 35.9134C96.5967 35.8625 96.4005 35.8334 96.2187 35.8334C96.0224 35.8334 95.8407 35.8625 95.6808 35.9207C95.5208 35.9788 95.3827 36.066 95.2736 36.1751C95.1646 36.2841 95.0774 36.415 95.0119 36.5677C94.9538 36.7203 94.9174 36.8875 94.9174 37.0765C94.9174 37.2656 94.9465 37.4182 95.0047 37.5345C95.0628 37.6581 95.1355 37.7599 95.2373 37.8399C95.3318 37.9198 95.4409 37.9853 95.5644 38.0289C95.688 38.0798 95.8116 38.1234 95.9352 38.1597C96.0442 38.1961 96.1315 38.2324 96.2042 38.2615C96.2769 38.2906 96.3423 38.3269 96.3859 38.356C96.4295 38.3924 96.4659 38.4287 96.4877 38.4723C96.5095 38.5159 96.5168 38.5596 96.5168 38.6177C96.5168 38.7122 96.4804 38.7922 96.4005 38.8649C96.3205 38.9376 96.2042 38.9739 96.0442 38.9739C95.9061 38.9739 95.7607 38.9449 95.6226 38.8794C95.4772 38.814 95.3318 38.7195 95.1864 38.5886L94.7648 39.381C95.1719 39.6646 95.6153 39.8027 96.0879 39.8027C96.3205 39.8027 96.524 39.7736 96.7058 39.7082C96.8875 39.6427 97.0402 39.5628 97.1638 39.4465C97.2874 39.3374 97.3819 39.1993 97.4473 39.0466C97.5127 38.8867 97.5418 38.7195 97.5418 38.5232C97.5418 38.2397 97.4691 38.0071 97.3164 37.8253C97.171 37.6508 96.9384 37.5055 96.6185 37.3964C96.5386 37.3673 96.4586 37.3455 96.3787 37.3237C96.2987 37.3019 96.226 37.2728 96.1606 37.2437C96.0951 37.2147 96.0442 37.171 96.0006 37.1347C95.957 37.0911 95.9425 37.0329 95.9425 36.9675C95.9425 36.873 95.9861 36.793 96.066 36.7349C96.146 36.6767 96.2478 36.6476 96.3714 36.6476C96.4732 36.6476 96.5749 36.6694 96.684 36.7131C96.793 36.7567 96.8948 36.8148 97.0038 36.9021L97.3819 36.1387ZM107.872 38.814L107.945 38.7413C108.039 38.6541 108.119 38.5741 108.192 38.4941C108.265 38.4142 108.33 38.3415 108.388 38.2615L107.836 37.7308C107.712 37.898 107.545 38.0798 107.349 38.2688L106.876 37.7672C107.007 37.7017 107.116 37.6363 107.203 37.5709C107.29 37.5055 107.363 37.44 107.414 37.3673C107.472 37.2946 107.509 37.2219 107.53 37.142C107.552 37.062 107.567 36.9675 107.567 36.873C107.567 36.7276 107.538 36.5895 107.479 36.4659C107.421 36.3423 107.341 36.2333 107.232 36.1387C107.131 36.0442 107.007 35.9715 106.862 35.9207C106.716 35.8698 106.564 35.8407 106.396 35.8407C106.229 35.8407 106.076 35.8698 105.931 35.9207C105.786 35.9715 105.662 36.0442 105.56 36.1387C105.459 36.2333 105.371 36.3423 105.313 36.4659C105.255 36.5895 105.226 36.7276 105.226 36.873C105.226 37.0911 105.32 37.3237 105.517 37.5636L105.582 37.6363L105.48 37.6872C105.357 37.7454 105.255 37.7962 105.168 37.8544C105.08 37.9126 105.008 37.978 104.935 38.0507C104.841 38.1525 104.775 38.2542 104.739 38.3633C104.702 38.4723 104.681 38.5959 104.681 38.734C104.681 38.8867 104.71 39.0321 104.768 39.1629C104.826 39.2938 104.913 39.4101 105.015 39.5046C105.124 39.5991 105.248 39.6791 105.393 39.73C105.538 39.7809 105.698 39.8099 105.88 39.8099C106.295 39.8099 106.723 39.6573 107.174 39.3592L107.501 39.7009H108.723L107.872 38.814ZM106.113 38.9376C106.055 38.9376 105.996 38.9303 105.946 38.9085C105.895 38.894 105.851 38.8649 105.807 38.8358C105.764 38.8067 105.735 38.7631 105.713 38.7195C105.691 38.6759 105.677 38.625 105.677 38.5741C105.677 38.4287 105.793 38.2833 106.033 38.1379L106.629 38.7776C106.454 38.8794 106.28 38.9376 106.113 38.9376ZM106.44 37.3164C106.244 37.1056 106.142 36.9384 106.142 36.8148C106.142 36.7276 106.171 36.6476 106.229 36.5895C106.287 36.5313 106.36 36.5022 106.454 36.5022C106.549 36.5022 106.629 36.5386 106.694 36.604C106.753 36.6694 106.789 36.7494 106.789 36.8439C106.789 37.0184 106.673 37.1783 106.44 37.3164ZM119.14 37.1056C119.046 36.8803 118.907 36.6767 118.74 36.5095C118.573 36.335 118.377 36.2042 118.151 36.0951C117.926 35.9861 117.686 35.9425 117.432 35.9425H115.985V39.7082H117.432C117.693 39.7082 117.933 39.6573 118.159 39.5555C118.384 39.4537 118.58 39.3156 118.748 39.1411C118.915 38.9667 119.046 38.7704 119.14 38.5377C119.235 38.3051 119.278 38.0725 119.278 37.8253C119.285 37.5709 119.235 37.3382 119.14 37.1056ZM118.195 38.247C118.144 38.3778 118.079 38.4869 117.984 38.5814C117.89 38.6759 117.781 38.7486 117.65 38.7995C117.519 38.8503 117.366 38.8794 117.199 38.8794H116.974V36.7712H117.199C117.366 36.7712 117.512 36.8003 117.65 36.8512C117.781 36.9021 117.897 36.9748 117.984 37.0693C118.079 37.1638 118.144 37.2728 118.195 37.4037C118.246 37.5345 118.268 37.6727 118.268 37.8253C118.26 37.978 118.239 38.1161 118.195 38.247ZM126.344 37.0402C126.243 36.8003 126.097 36.5895 125.915 36.4077C125.734 36.226 125.508 36.0879 125.254 35.9861C124.999 35.8843 124.716 35.8334 124.418 35.8334C124.113 35.8334 123.829 35.8843 123.575 35.9861C123.32 36.0879 123.102 36.226 122.92 36.4077C122.739 36.5895 122.593 36.8003 122.491 37.0402C122.39 37.2801 122.339 37.5418 122.339 37.818C122.339 38.1016 122.39 38.356 122.491 38.5959C122.593 38.8358 122.739 39.0466 122.92 39.2284C123.102 39.4101 123.32 39.5482 123.575 39.65C123.829 39.7518 124.105 39.8027 124.418 39.8027C124.723 39.8027 124.999 39.7518 125.254 39.65C125.508 39.5482 125.734 39.4101 125.915 39.2284C126.097 39.0466 126.243 38.8358 126.344 38.5959C126.446 38.356 126.497 38.0943 126.497 37.818C126.497 37.5418 126.453 37.2801 126.344 37.0402ZM125.392 38.2397C125.334 38.3633 125.261 38.4723 125.159 38.5668C125.065 38.6613 124.949 38.734 124.818 38.7849C124.687 38.8358 124.556 38.8649 124.411 38.8649C124.265 38.8649 124.134 38.8358 124.004 38.7849C123.873 38.734 123.764 38.6613 123.669 38.5668C123.575 38.4723 123.495 38.3633 123.436 38.2397C123.378 38.1161 123.349 37.978 123.349 37.8253C123.349 37.6727 123.378 37.5345 123.436 37.4109C123.495 37.2874 123.567 37.1783 123.669 37.0838C123.764 36.9893 123.88 36.9166 124.004 36.8657C124.127 36.8148 124.265 36.7858 124.411 36.7858C124.556 36.7858 124.687 36.8148 124.818 36.8657C124.949 36.9166 125.058 36.9893 125.159 37.0838C125.254 37.1783 125.334 37.2874 125.392 37.4109C125.45 37.5345 125.479 37.6727 125.479 37.8253C125.479 37.9707 125.45 38.1088 125.392 38.2397ZM133.556 37.0402C133.454 36.8003 133.309 36.5895 133.127 36.4077C132.945 36.226 132.72 36.0879 132.465 35.9861C132.211 35.8843 131.928 35.8334 131.629 35.8334C131.324 35.8334 131.041 35.8843 130.786 35.9861C130.532 36.0879 130.314 36.226 130.132 36.4077C129.95 36.5895 129.805 36.8003 129.703 37.0402C129.601 37.2801 129.55 37.5418 129.55 37.818C129.55 38.1016 129.601 38.356 129.703 38.5959C129.805 38.8358 129.95 39.0466 130.132 39.2284C130.314 39.4101 130.532 39.5482 130.786 39.65C131.041 39.7518 131.317 39.8027 131.629 39.8027C131.935 39.8027 132.211 39.7518 132.465 39.65C132.72 39.5482 132.945 39.4101 133.127 39.2284C133.309 39.0466 133.454 38.8358 133.556 38.5959C133.658 38.356 133.709 38.0943 133.709 37.818C133.709 37.5418 133.658 37.2801 133.556 37.0402ZM132.604 38.2397C132.545 38.3633 132.473 38.4723 132.371 38.5668C132.276 38.6613 132.16 38.734 132.029 38.7849C131.898 38.8358 131.768 38.8649 131.622 38.8649C131.477 38.8649 131.346 38.8358 131.215 38.7849C131.084 38.734 130.975 38.6613 130.881 38.5668C130.786 38.4723 130.706 38.3633 130.648 38.2397C130.59 38.1161 130.561 37.978 130.561 37.8253C130.561 37.6727 130.59 37.5345 130.648 37.4109C130.706 37.2874 130.779 37.1783 130.881 37.0838C130.975 36.9893 131.091 36.9166 131.215 36.8657C131.339 36.8148 131.477 36.7858 131.622 36.7858C131.768 36.7858 131.898 36.8148 132.029 36.8657C132.16 36.9166 132.269 36.9893 132.371 37.0838C132.465 37.1783 132.545 37.2874 132.604 37.4109C132.662 37.5345 132.691 37.6727 132.691 37.8253C132.691 37.9707 132.662 38.1088 132.604 38.2397ZM138.87 38.1597C139.139 38.0943 139.343 37.978 139.481 37.7962C139.619 37.6145 139.684 37.3891 139.684 37.0983C139.684 36.9384 139.655 36.7858 139.604 36.6476C139.553 36.5095 139.473 36.3859 139.372 36.2769C139.27 36.1678 139.139 36.0879 138.986 36.0224C138.826 35.957 138.645 35.9279 138.434 35.9279H136.915V39.6936H137.889V38.247L138.819 39.6936H140.041L138.87 38.1597ZM138.528 37.5055C138.427 37.5854 138.274 37.629 138.085 37.629H137.903V36.6985H138.085C138.281 36.6985 138.427 36.7349 138.528 36.8148C138.63 36.8948 138.681 37.0111 138.681 37.1565C138.688 37.3092 138.637 37.4255 138.528 37.5055ZM145.413 36.1387C145.224 36.037 145.035 35.9643 144.831 35.9134C144.628 35.8625 144.431 35.8334 144.25 35.8334C144.046 35.8334 143.872 35.8625 143.712 35.9207C143.552 35.9788 143.414 36.066 143.305 36.1751C143.196 36.2841 143.108 36.415 143.043 36.5677C142.985 36.7203 142.948 36.8875 142.948 37.0765C142.948 37.2656 142.977 37.4182 143.036 37.5345C143.094 37.6581 143.166 37.7599 143.268 37.8399C143.37 37.9198 143.472 37.9853 143.595 38.0289C143.719 38.0798 143.843 38.1234 143.966 38.1597C144.075 38.1961 144.162 38.2324 144.235 38.2615C144.308 38.2906 144.373 38.3269 144.417 38.356C144.46 38.3924 144.497 38.4287 144.519 38.4723C144.54 38.5159 144.548 38.5596 144.548 38.6177C144.548 38.7122 144.511 38.7922 144.431 38.8649C144.351 38.9376 144.235 38.9739 144.075 38.9739C143.937 38.9739 143.792 38.9449 143.654 38.8794C143.508 38.814 143.363 38.7195 143.217 38.5886L142.796 39.381C143.203 39.6646 143.646 39.8027 144.119 39.8027C144.351 39.8027 144.555 39.7736 144.737 39.7082C144.918 39.65 145.071 39.5628 145.195 39.4465C145.318 39.3374 145.413 39.1993 145.478 39.0466C145.544 38.8867 145.573 38.7195 145.573 38.5232C145.573 38.2397 145.5 38.0071 145.347 37.8253C145.202 37.6508 144.969 37.5055 144.642 37.3964C144.562 37.3673 144.482 37.3455 144.402 37.3237C144.322 37.3019 144.25 37.2728 144.184 37.2437C144.119 37.2147 144.068 37.171 144.024 37.1347C143.981 37.0911 143.966 37.0329 143.966 36.9675C143.966 36.873 144.01 36.793 144.09 36.7349C144.17 36.6767 144.271 36.6476 144.402 36.6476C144.504 36.6476 144.606 36.6694 144.708 36.7131C144.817 36.7567 144.918 36.8148 145.028 36.9021L145.413 36.1387Z" fill="#001722"/>
<path d="M58.5544 20.0218L64.1012 32.4167H61.455L60.6335 30.5702H56.4752L55.6538 32.4167H53.0149L58.5544 20.0218ZM59.6666 28.4183L58.5616 25.8521L57.4421 28.4183H59.6666ZM74.2133 26.9862V20.2399H76.6632V32.6638L69.3426 25.6849V32.4312H66.9V20.0145L74.2133 26.9862ZM83.5476 20.269C85.4523 20.269 86.9498 21.025 87.9821 22.0573C89.0653 23.1478 89.6106 24.5799 89.6106 26.3537C89.6106 28.1275 89.0653 29.5597 87.9821 30.6356C86.7899 31.8205 85.3069 32.4167 83.5476 32.4167H80.3126V20.2762H83.5476V20.269ZM83.5403 22.6898H82.7479V29.9813H83.5622C85.7503 29.9813 87.1825 28.5274 87.1825 26.3319C87.1752 24.1655 85.7285 22.6898 83.5403 22.6898ZM100.086 20.2399V22.6753H95.201V25.1251H98.8649V27.5605H95.201V30.0104H100.086V32.4385H92.7656V20.2399H100.086ZM103.198 20.269H107.16C108.512 20.269 109.602 20.7779 110.336 21.5048C111.078 22.2463 111.514 22.9224 111.514 24.26V24.5799C111.514 25.4014 111.26 26.172 110.744 26.8917C110.315 27.4878 109.98 27.7422 109.29 28.0112L112.118 32.4094H109.137L105.648 27.0371V32.4094H103.205L103.198 20.269ZM109.006 24.34C109.006 23.8966 108.846 23.5113 108.526 23.1696C108.206 22.8643 107.61 22.6898 107.022 22.6898H105.648V26.0411H106.585V26.0484H107.4C108.286 26.0484 109.006 25.2705 109.006 24.34ZM118.282 30.0249C118.958 30.0249 119.7 29.4652 119.7 28.7891C119.7 27.6841 118.21 27.5241 117.374 27.2334C115.891 26.7317 114.582 25.5104 114.582 23.8602C114.582 21.8102 116.239 20.1599 118.29 20.1599C120.158 20.1599 121.706 21.5412 121.953 23.3441L119.533 23.8529C119.533 23.1841 118.973 22.6244 118.304 22.6244C117.628 22.6244 117.068 23.1841 117.068 23.8602C117.068 24.9507 118.457 25.2415 119.3 25.4959C120.834 25.9393 122.186 27.1025 122.186 28.7963C122.186 30.8464 120.347 32.4966 118.304 32.4966C116.428 32.4966 114.727 31.1226 114.451 29.3125L116.872 28.7963C116.872 29.4724 117.606 30.0249 118.297 30.0249H118.282ZM132.654 20.2399V22.6753H127.769V25.1251H131.433V27.5605H127.769V30.0104H132.654V32.4385H125.334V20.2399H132.654ZM143.116 26.9862V20.2399H145.565V32.6638L138.245 25.6849V32.4312H135.802V20.0145L143.116 26.9862Z" fill="#001722"/>
<path d="M146.322 20.1599V20.4507H146.787V22.1955H147.092V20.4507H147.557V20.1599H146.322ZM149.615 20L148.888 21.5848L148.19 20L147.761 22.1882H148.081L148.299 20.9596L148.888 22.2827L149.491 20.9596L149.687 22.1882H150L149.615 20Z" fill="#001722"/>
</svg>
