<?xml version="1.0" encoding="UTF-8"?>
<svg xmlns="http://www.w3.org/2000/svg" width="160" height="60" viewBox="0 0 160 60" fill="none">
  <path fill-rule="evenodd" clip-rule="evenodd" d="M73.4883 38.136C68.7022 38.136 63.5536 35.0407 63.5536 28.2568V14.8186H70.0865V27.8624C70.0865 30.2967 71.8359 31.6067 73.4772 31.6067C75.1217 31.6067 76.8758 30.2967 76.8758 27.8624V14.8188H83.4134V28.2568C83.4134 35.0407 78.266 38.136 73.4883 38.136ZM112.905 37.4877V24.2699C112.905 22.0234 111.248 20.8112 109.69 20.8112C108.132 20.8112 106.478 22.0369 106.478 24.3108V37.4877H100.3V24.3108C100.3 22.0367 98.6534 20.8112 97.1051 20.8112C95.557 20.8112 93.9127 22.0234 93.9127 24.2699V37.4877H87.4566V23.8732C87.4566 15.2179 94.2184 14.2836 97.1248 14.2836C98.5325 14.2836 100.561 14.6338 102.23 16.3041L103.456 17.5243L104.631 16.2583C105.741 15.0576 107.597 14.3196 109.604 14.2836C111.876 14.2836 119.361 14.9763 119.361 23.8732V37.4879H112.905L112.905 37.4877Z" fill="#3E4346"></path>
  <path fill-rule="evenodd" clip-rule="evenodd" d="M38.1203 32.1395C39.5153 31.831 40.7899 30.6419 40.7899 28.6747V11H47.2363V29.0455C47.2363 34.969 42.6413 37.8589 38.1201 38.1718L38.1203 32.1395Z" fill="url(#paint0_linear_1308_1529)"></path>
  <path fill-rule="evenodd" clip-rule="evenodd" d="M134.886 29.0453V11H141.33V28.6745C141.33 30.6417 142.6 31.8309 144 32.1393L143.998 38.1718C139.481 37.8587 134.886 34.9688 134.886 29.0453Z" fill="#3E4346"></path>
  <path fill-rule="evenodd" clip-rule="evenodd" d="M130.526 11H124.03V23.5137L130.526 15.8023V11Z" fill="#FFD300"></path>
  <path fill-rule="evenodd" clip-rule="evenodd" d="M124.03 28.2479V37.4879H130.489V20.5772L124.03 28.2479ZM50.9294 29.0453V11H57.3709V28.6745C57.3709 30.6417 58.6443 31.8309 60.0457 32.1393L60.0383 38.1718C55.5234 37.8587 50.9294 34.9688 50.9294 29.0453ZM16 37.5183L38.3348 11H47.2363L24.8943 37.5183H16ZM20.3175 46.4578C20.3175 47.5542 19.6578 48.1426 18.4633 48.1426H16.2258V42.3394H18.5079C19.4528 42.3394 20.05 42.8475 20.05 43.7479C20.05 44.2381 19.7559 44.8176 19.1229 44.9959V45.0137C19.8539 45.1385 20.3175 45.7536 20.3175 46.4578ZM18.5257 42.7406H16.6537V44.8265H18.4544C19.1853 44.8265 19.6221 44.3451 19.6221 43.7746C19.6221 43.1595 19.2656 42.7406 18.5257 42.7406ZM18.4633 45.2187H16.6537V47.7414H18.5079C19.4171 47.7414 19.8807 47.2512 19.8807 46.4756C19.8807 45.6822 19.2567 45.2187 18.4633 45.2187ZM22.227 46.5113C22.227 47.7147 22.7172 48.2406 23.6889 48.2406C24.1257 48.2406 24.6962 48.0178 25.026 47.3938H25.0438V48.1426H25.4539V43.7835H25.0438V46.3954C25.0438 46.5469 25.026 46.6896 24.9814 46.8322C24.8299 47.3938 24.3842 47.8751 23.7869 47.8751C23.0025 47.8751 22.6459 47.4473 22.6459 46.4221V43.7835H22.227V46.5113ZM28.1835 42.5623C28.1835 42.4107 28.0498 42.2859 27.8893 42.2859C27.7378 42.2859 27.613 42.4107 27.613 42.5623C27.613 42.7227 27.7378 42.8564 27.8983 42.8564C28.0498 42.8564 28.1835 42.7227 28.1835 42.5623ZM28.1033 48.1426V43.7835H27.6932V48.1426H28.1033ZM30.8775 48.1426V42.0631L30.4763 42.2503V48.1426H30.8775ZM36.3348 48.1426H35.9248V47.6612H35.9158C35.4077 48.1871 34.9085 48.2317 34.5163 48.2317C33.7497 48.2317 32.9118 47.5453 32.9118 46.021C32.9118 44.3184 33.8567 43.7211 34.7035 43.7211C35.0601 43.7211 35.4345 43.8103 35.9158 44.256H35.9248V42.2592L36.3348 42.072V48.1426ZM35.9337 47.2155V44.7463C35.6663 44.3897 35.1849 44.0777 34.7303 44.0777C33.8388 44.0777 33.3218 44.8443 33.3218 46.0299C33.3218 47.1085 33.8656 47.8841 34.6233 47.8841C35.1492 47.8841 35.6484 47.581 35.9337 47.2155ZM39.0555 42.5623C39.0555 42.4107 38.9218 42.2859 38.7613 42.2859C38.6098 42.2859 38.485 42.4107 38.485 42.5623C38.485 42.7227 38.6098 42.8564 38.7703 42.8564C38.9218 42.8564 39.0555 42.7227 39.0555 42.5623ZM38.9753 48.1426V43.7835H38.5652V48.1426H38.9753ZM44.4683 45.4683C44.4683 44.2738 43.9602 43.7211 42.9796 43.7211C42.5428 43.7211 41.9545 43.944 41.6247 44.568L41.6068 44.5591V43.7835H41.1968V48.1426H41.6068V45.5574C41.6068 45.4237 41.6247 45.2722 41.6603 45.1474C41.8029 44.5769 42.2754 44.0866 42.8816 44.0866C43.666 44.0866 44.0493 44.5323 44.0493 45.5307V48.1426H44.4683V45.4683ZM49.7385 47.893C49.7385 48.8735 49.2571 49.5867 48.125 49.9522L47.9824 49.6045C49.061 49.2123 49.3284 48.615 49.3284 48.0267V47.6166H49.3195C48.7668 48.1247 48.2765 48.2139 47.9467 48.2139C47.0998 48.2139 46.3154 47.6523 46.3154 45.9497C46.3154 44.4343 47.189 43.7211 47.9734 43.7211C48.3478 43.7211 48.8292 43.7746 49.3106 44.2916H49.3195V43.7924H49.7385V47.893ZM48.0358 47.8662C48.5261 47.8662 49.061 47.5097 49.3284 47.162V44.7552C49.0521 44.3897 48.5618 44.0688 48.0448 44.0688C47.296 44.0688 46.7255 44.8621 46.7255 45.914C46.7255 47.1174 47.1355 47.8662 48.0358 47.8662ZM56.3298 43.7211C57.4351 43.7211 58.077 44.5947 58.077 45.8873V46.128H54.9748C55.0105 47.2868 55.6345 47.8751 56.3922 47.8751C56.7755 47.8751 57.1499 47.7147 57.4619 47.4383L57.7026 47.7058C57.3103 48.0623 56.8646 48.2317 56.3387 48.2317C55.4205 48.2317 54.5648 47.5186 54.5648 45.9853C54.5648 44.5858 55.3314 43.7211 56.3298 43.7211ZM57.6758 45.7981C57.6669 44.8711 57.2658 44.0777 56.3119 44.0777C55.581 44.0777 55.0283 44.7819 54.9748 45.7981H57.6758ZM62.741 48.1426L61.4127 45.8784L62.6518 43.7924H62.1972L61.1899 45.5307L60.1826 43.7924H59.728L60.9581 45.9051L59.6299 48.1426H60.0845L61.181 46.2528L62.2507 48.1426H62.741ZM66.148 43.7211C65.1942 43.7211 64.3919 44.4877 64.3919 45.9764C64.3919 47.4651 65.1942 48.2317 66.1302 48.2317C66.7542 48.2317 67.1464 48.0178 67.4674 47.6701L67.1999 47.4116C66.8523 47.7236 66.567 47.8573 66.157 47.8573C65.3101 47.8573 64.8109 47.0461 64.8109 45.9764C64.8109 44.9424 65.3012 44.0866 66.1213 44.0866C66.4957 44.0866 66.8523 44.2025 67.191 44.5234L67.4674 44.2381C67.093 43.8727 66.6829 43.7211 66.148 43.7211ZM70.919 43.7211C72.0244 43.7211 72.6662 44.5947 72.6662 45.8873V46.128H69.5641C69.5997 47.2868 70.2237 47.8751 70.9814 47.8751C71.3647 47.8751 71.7391 47.7147 72.0511 47.4383L72.2918 47.7058C71.8996 48.0623 71.4539 48.2317 70.9279 48.2317C70.0098 48.2317 69.154 47.5186 69.154 45.9853C69.154 44.5858 69.9206 43.7211 70.919 43.7211ZM72.2651 45.7981C72.2561 44.8711 71.855 44.0777 70.9012 44.0777C70.1702 44.0777 69.6175 44.7819 69.5641 45.7981H72.2651ZM75.0214 48.1426V42.0631L74.6203 42.2503V48.1426H75.0214ZM77.6797 48.1426V42.0631L77.2786 42.2503V48.1426H77.6797ZM81.479 43.7211C82.5844 43.7211 83.2262 44.5947 83.2262 45.8873V46.128H80.1241C80.1597 47.2868 80.7837 47.8751 81.5414 47.8751C81.9247 47.8751 82.2991 47.7147 82.6111 47.4383L82.8518 47.7058C82.4596 48.0623 82.0139 48.2317 81.4879 48.2317C80.5698 48.2317 79.714 47.5186 79.714 45.9853C79.714 44.5858 80.4806 43.7211 81.479 43.7211ZM82.8251 45.7981C82.8161 44.8711 82.415 44.0777 81.4612 44.0777C80.7302 44.0777 80.1775 44.7819 80.1241 45.7981H82.8251ZM88.3003 45.4683C88.3003 44.2738 87.7921 43.7211 86.8116 43.7211C86.3748 43.7211 85.7864 43.944 85.4566 44.568L85.4388 44.5591V43.7835H85.0287V48.1426H85.4388V45.5574C85.4388 45.4237 85.4566 45.2722 85.4923 45.1474C85.6349 44.5769 86.1074 44.0866 86.7135 44.0866C87.498 44.0866 87.8813 44.5323 87.8813 45.5307V48.1426H88.3003V45.4683ZM91.9034 43.7211C90.9496 43.7211 90.1473 44.4877 90.1473 45.9764C90.1473 47.4651 90.9496 48.2317 91.8856 48.2317C92.5096 48.2317 92.9018 48.0178 93.2228 47.6701L92.9553 47.4116C92.6077 47.7236 92.3224 47.8573 91.9124 47.8573C91.0655 47.8573 90.5663 47.0461 90.5663 45.9764C90.5663 44.9424 91.0566 44.0866 91.8767 44.0866C92.2511 44.0866 92.6077 44.2025 92.9464 44.5234L93.2228 44.2381C92.8484 43.8727 92.4383 43.7211 91.9034 43.7211ZM96.6744 43.7211C97.7798 43.7211 98.4216 44.5947 98.4216 45.8873V46.128H95.3195C95.3551 47.2868 95.9791 47.8751 96.7368 47.8751C97.1201 47.8751 97.4945 47.7147 97.8065 47.4383L98.0472 47.7058C97.655 48.0623 97.2093 48.2317 96.6833 48.2317C95.7652 48.2317 94.9094 47.5186 94.9094 45.9853C94.9094 44.5858 95.676 43.7211 96.6744 43.7211ZM98.0205 45.7981C98.0115 44.8711 97.6104 44.0777 96.6566 44.0777C95.9256 44.0777 95.3729 44.7819 95.3195 45.7981H98.0205ZM104.844 43.7211C105.949 43.7211 106.591 44.5947 106.591 45.8873V46.128H103.489C103.524 47.2868 104.148 47.8751 104.906 47.8751C105.289 47.8751 105.664 47.7147 105.976 47.4383L106.216 47.7058C105.824 48.0623 105.378 48.2317 104.852 48.2317C103.934 48.2317 103.079 47.5186 103.079 45.9853C103.079 44.5858 103.845 43.7211 104.844 43.7211ZM106.19 45.7981C106.181 44.8711 105.78 44.0777 104.826 44.0777C104.095 44.0777 103.542 44.7819 103.489 45.7981H106.19ZM110.069 48.1426C110.586 46.6896 111.103 45.2455 111.629 43.7924H111.201L110.301 46.3865L109.873 47.6345H109.855L109.418 46.3865C109.106 45.5218 108.803 44.666 108.5 43.7924H108.063L109.65 48.1426H110.069ZM114.813 43.7211C115.919 43.7211 116.561 44.5947 116.561 45.8873V46.128H113.458C113.494 47.2868 114.118 47.8751 114.876 47.8751C115.259 47.8751 115.633 47.7147 115.945 47.4383L116.186 47.7058C115.794 48.0623 115.348 48.2317 114.822 48.2317C113.904 48.2317 113.048 47.5186 113.048 45.9853C113.048 44.5858 113.815 43.7211 114.813 43.7211ZM116.159 45.7981C116.15 44.8711 115.749 44.0777 114.796 44.0777C114.065 44.0777 113.512 44.7819 113.458 45.7981H116.159ZM118.934 44.4967L118.943 43.7924H118.524V48.1426H118.943V45.5396C118.943 44.7552 119.379 44.149 120.199 44.149C120.351 44.149 120.502 44.1668 120.672 44.2025L120.761 43.7924C120.592 43.7389 120.422 43.7211 120.253 43.7211C119.727 43.7211 119.192 43.9618 118.951 44.5056L118.934 44.4967ZM123.437 49.7739C124.159 47.8127 124.899 45.7625 125.621 43.7924H125.202L124.337 46.1814L123.812 47.6701H123.803C123.624 47.1709 123.455 46.6717 123.286 46.1814L122.43 43.7924H122.002C122.537 45.2722 123.072 46.7341 123.615 48.1961L123.045 49.7739H123.437ZM133.567 48.1426H133.157V47.6612H133.148C132.64 48.1871 132.141 48.2317 131.749 48.2317C130.982 48.2317 130.144 47.5453 130.144 46.021C130.144 44.3184 131.089 43.7211 131.936 43.7211C132.293 43.7211 132.667 43.8103 133.148 44.256H133.157V42.2592L133.567 42.072V48.1426ZM133.166 47.2155V44.7463C132.899 44.3897 132.417 44.0777 131.963 44.0777C131.071 44.0777 130.554 44.8443 130.554 46.0299C130.554 47.1085 131.098 47.8841 131.856 47.8841C132.382 47.8841 132.881 47.581 133.166 47.2155ZM138.285 48.1426V47.6345H138.276C137.714 48.1693 137.206 48.2228 136.787 48.2228C136.11 48.2228 135.379 47.8573 135.379 46.8946C135.379 46.1012 135.967 45.5129 136.974 45.5129C137.349 45.5129 137.803 45.5753 138.285 45.8605V45.1652C138.285 44.3897 137.875 44.0866 137.135 44.0866C136.716 44.0866 136.333 44.2025 135.985 44.3629L135.842 44.0153C136.244 43.837 136.654 43.7211 137.188 43.7211C138.151 43.7211 138.695 44.1757 138.695 45.0761V48.1426H138.285ZM138.285 46.2171C137.857 45.9853 137.5 45.8427 136.957 45.8427C136.297 45.8427 135.78 46.2082 135.78 46.8768C135.78 47.5364 136.199 47.893 136.912 47.893C137.492 47.8662 137.928 47.581 138.285 47.2155V46.2171ZM141.808 49.7739C142.53 47.8127 143.27 45.7625 143.992 43.7924H143.573L142.708 46.1814L142.182 47.6701H142.173C141.995 47.1709 141.826 46.6717 141.656 46.1814L140.801 43.7924H140.373C140.908 45.2722 141.442 46.7341 141.986 48.1961L141.416 49.7739H141.808Z" fill="#3E4346"></path>
  <defs>
    <linearGradient id="paint0_linear_1308_1529" x1="6416" y1="11" x2="6416" y2="2288.81" gradientUnits="userSpaceOnUse">
      <stop></stop>
      <stop offset="1" stop-color="#3E4346"></stop>
    </linearGradient>
  </defs>
</svg>
