<?xml version="1.0" encoding="UTF-8"?>
<svg xmlns="http://www.w3.org/2000/svg" width="160" height="60" viewBox="0 0 160 60" fill="none">
  <path d="M36.5905 25.6134H28.1544L26.67 29.1914H35.0769L36.5905 25.6134Z" fill="#F68712"></path>
  <path d="M38.578 15.3279H43.0027V30.842H52.5899L51.0816 34.4473H38.578V15.3279Z" fill="#1E1F43"></path>
  <path d="M52.6444 26.0348V15.328H57.0694V25.871C57.0694 29.5038 58.6534 31.006 61.3302 31.006C64.0344 31.006 65.5912 29.5038 65.5912 25.871V15.328H69.9615V26.0348C69.9615 31.6613 66.7384 34.7752 61.3027 34.7752C55.8673 34.7752 52.6444 31.6613 52.6444 26.0348Z" fill="#1E1F43"></path>
  <path d="M83.9881 22.2656C83.9881 20.1625 82.6224 18.9334 79.9183 18.9334H76.313V25.5705H79.9183C82.6224 25.5705 83.9881 24.3414 83.9881 22.2656ZM88.4676 22.2656C88.4676 26.5264 85.2718 29.176 80.1639 29.176H76.313V34.4475H71.8883V15.3279H80.1639C85.2718 15.3279 88.4676 17.9773 88.4676 22.2656Z" fill="#1E1F43"></path>
  <path d="M123.716 24.8877C123.716 21.2552 121.148 18.7694 117.734 18.7694C114.319 18.7694 111.752 21.2552 111.752 24.8877C111.752 28.5203 114.319 31.0061 117.734 31.0061C121.148 31.0061 123.716 28.5203 123.716 24.8877ZM107.273 24.8877C107.273 19.2066 111.697 15 117.734 15C123.743 15 128.195 19.1789 128.195 24.8877C128.195 30.5962 123.743 34.7751 117.734 34.7751C111.697 34.7751 107.273 30.5689 107.273 24.8877Z" fill="#1E1F43"></path>
  <path d="M134.038 18.8788V25.6133H139.397L137.734 29.1913H134.038V34.4475H129.613V15.3279H144L142.424 18.8788H134.038Z" fill="#1E1F43"></path>
  <path d="M102.648 30.017H97.717L101.544 34.4474H106.475L102.648 30.017Z" fill="#1E1F43"></path>
  <path d="M101.636 22.2656C101.636 20.1625 100.27 18.9334 97.5667 18.9334H93.9611V25.5706H97.5667C100.27 25.5706 101.636 24.3415 101.636 22.2656ZM106.116 22.2656C106.116 26.5264 102.92 29.1761 97.812 29.1761H93.9611V34.4475H89.5364V15.3279H97.812C102.92 15.3279 106.116 17.9773 106.116 22.2656Z" fill="#1E1F43"></path>
  <path d="M29.1453 25.6134H33.5032L28.8889 15.339H24.5091L16 34.4474H20.5282L26.6749 19.6703L29.1453 25.6134Z" fill="#1E1F43"></path>
  <path d="M37.425 34.4437H32.8035L30.9684 30.0286H35.4754L37.425 34.4437Z" fill="#1E1F43"></path>
  <path d="M64.8906 42.2266L63.8615 39.8892L62.8324 42.2266H64.8906ZM65.1292 42.7718H62.5941L62.0692 43.9644H61.3672L63.5277 39.194H64.2022L66.3695 43.9644H65.6538L65.1292 42.7718Z" fill="#1E1F43"></path>
  <path d="M67.4945 39.1939H68.1759V43.3714H70.7589V43.9643H67.4945V39.1939Z" fill="#1E1F43"></path>
  <path d="M71.8317 41.9063V39.1938H72.5131V41.879C72.5131 42.9354 72.997 43.4125 73.8558 43.4125C74.7145 43.4125 75.2051 42.9354 75.2051 41.879V39.1938H75.8662V41.9063C75.8662 43.2899 75.1096 44.0188 73.8489 44.0188C72.5949 44.0188 71.8317 43.2899 71.8317 41.9063Z" fill="#1E1F43"></path>
  <path d="M82.103 43.9644L82.0961 40.4889L80.3718 43.3851H80.0585L78.3341 40.5092V43.9644H77.6801V39.194H78.2388L80.2288 42.5471L82.1914 39.194H82.7504L82.7573 43.9644H82.103Z" fill="#1E1F43"></path>
  <path d="M84.603 39.1939H85.2844V43.9643H84.603V39.1939Z" fill="#1E1F43"></path>
  <path d="M91.2323 39.1939V43.9643H90.6735L87.8112 40.407V43.9643H87.1298V39.1939H87.6886L90.5509 42.7512V39.1939H91.2323Z" fill="#1E1F43"></path>
  <path d="M93.08 39.1939H93.7614V43.9643H93.08V39.1939Z" fill="#1E1F43"></path>
  <path d="M95.5702 41.9063V39.1938H96.2516V41.879C96.2516 42.9353 96.7357 43.4125 97.5942 43.4125C98.453 43.4125 98.9435 42.9353 98.9435 41.879V39.1938H99.6046V41.9063C99.6046 43.2899 98.8482 44.0188 97.5876 44.0188C96.3336 44.0188 95.5702 43.2899 95.5702 41.9063Z" fill="#1E1F43"></path>
  <path d="M105.841 43.9644L105.835 40.4889L104.111 43.3851H103.797L102.073 40.5092V43.9644H101.419V39.194H101.977L103.967 42.5471L105.93 39.194H106.489L106.496 43.9644H105.841Z" fill="#1E1F43"></path>
  <path d="M110.15 43.4193L110.403 42.8878C110.757 43.2079 111.363 43.4398 111.977 43.4398C112.801 43.4398 113.156 43.1194 113.156 42.7036C113.156 41.5383 110.266 42.2743 110.266 40.5024C110.266 39.7665 110.839 39.1395 112.093 39.1395C112.651 39.1395 113.231 39.2894 113.626 39.562L113.401 40.1072C112.985 39.8413 112.515 39.7187 112.093 39.7187C111.282 39.7187 110.934 40.0594 110.934 40.4751C110.934 41.6407 113.824 40.9113 113.824 42.6627C113.824 43.3918 113.238 44.0188 111.977 44.0188C111.248 44.0188 110.532 43.7737 110.15 43.4193Z" fill="#1E1F43"></path>
  <path d="M116.96 42.3152V43.9645H116.285V42.3016L114.391 39.1939H115.12L116.646 41.7087L118.18 39.1939H118.854L116.96 42.3152Z" fill="#1E1F43"></path>
  <path d="M119.418 43.4193L119.67 42.8878C120.024 43.2078 120.631 43.4398 121.244 43.4398C122.069 43.4398 122.423 43.1194 122.423 42.7036C122.423 41.5383 119.534 42.2743 119.534 40.5024C119.534 39.7665 120.106 39.1395 121.36 39.1395C121.919 39.1395 122.498 39.2893 122.893 39.562L122.669 40.1072C122.253 39.8413 121.783 39.7187 121.36 39.7187C120.549 39.7187 120.202 40.0594 120.202 40.4751C120.202 41.6406 123.091 40.9113 123.091 42.6627C123.091 43.3918 122.505 44.0188 121.244 44.0188C120.515 44.0188 119.8 43.7737 119.418 43.4193Z" fill="#1E1F43"></path>
  <path d="M125.382 39.7868H123.746V39.1939H127.692V39.7868H126.057V43.9643H125.382V39.7868Z" fill="#1E1F43"></path>
  <path d="M132.311 43.3715V43.9644H128.848V39.194H132.215V39.7868H129.53V41.2521H131.922V41.8312H129.53V43.3715H132.311Z" fill="#1E1F43"></path>
  <path d="M138.255 43.9644L138.248 40.4889L136.524 43.3851H136.211L134.486 40.5092V43.9644H133.832V39.194H134.391L136.381 42.5471L138.343 39.194H138.902L138.909 43.9644H138.255Z" fill="#1E1F43"></path>
  <path d="M140.323 43.4193L140.575 42.8878C140.929 43.2079 141.536 43.4398 142.149 43.4398C142.974 43.4398 143.328 43.1194 143.328 42.7036C143.328 41.5383 140.439 42.2743 140.439 40.5024C140.439 39.7665 141.011 39.1395 142.265 39.1395C142.824 39.1395 143.403 39.2894 143.798 39.562L143.574 40.1072C143.158 39.8413 142.688 39.7187 142.265 39.7187C141.454 39.7187 141.107 40.0594 141.107 40.4751C141.107 41.6407 143.996 40.9113 143.996 42.6627C143.996 43.3918 143.41 44.0188 142.149 44.0188C141.42 44.0188 140.705 43.7737 140.323 43.4193Z" fill="#1E1F43"></path>
</svg>
