<?xml version="1.0" encoding="UTF-8"?>
<svg xmlns="http://www.w3.org/2000/svg" width="160" height="60" viewBox="0 0 160 60" fill="none">
  <path d="M39.2134 40.6648C39.2134 40.6648 24.7422 29.6944 24.7834 29.662C24.8219 29.6267 40.0877 17.0104 40.0877 17.0104C40.1155 16.9869 32.2471 17.0104 32.2471 17.0104C32.2471 17.0104 21.7715 29.7356 21.7685 29.7297C21.7685 29.7361 28.3107 40.6618 28.3107 40.6618" fill="#F05C21"></path>
  <path d="M16.0214 21.5564L16 33.8016L25.1655 21.5535" fill="#F05C21"></path>
  <path d="M132.494 29.3882V25.7726H138.409C139.26 25.7897 139.899 25.8551 140.308 26.5823C140.538 26.9739 140.564 27.3301 140.564 27.5627C140.564 27.9955 140.445 28.3577 140.205 28.6433C139.666 29.3322 138.756 29.3882 137.791 29.3882H132.494ZM139.816 30.8073C140.205 30.7336 140.455 30.6571 140.7 30.56C142.387 29.8622 142.637 28.343 142.637 27.5009C142.637 25.8462 141.698 24.6125 140.123 24.1974C139.643 24.0679 139.283 24.0325 138.3 24.0177H130.483V35.5976H132.509V31.1282H137.582C137.705 31.2754 141.359 35.5976 141.359 35.5976H144C144 35.5976 140.261 31.3167 139.816 30.8073ZM119.392 30.4657H127.874V28.708H119.392V25.8196H128.095V24.0177H117.384V35.5976H128.507V33.7957H119.392V30.4657ZM105.993 30.4657H114.472V28.708H105.993V25.8196H114.696V24.0177H103.982V35.5976H115.108V33.7957H105.993V30.4657ZM99.4119 24.0177V31.926L99.4397 32.7033C99.4397 32.7204 99.4397 32.8181 99.461 32.9242C99.3905 32.8387 99.2837 32.718 99.2837 32.718L98.6949 32.0614L91.0957 24.0177H89.1613V35.5975H91.1075V27.012C91.1075 27.0099 91.0861 26.853 91.0818 26.6734C91.0818 26.6819 91.1075 26.7059 91.1075 26.7059C91.1075 26.7123 91.5226 27.1711 91.5226 27.1711C91.5226 27.1732 99.5046 35.5976 99.5046 35.5976H101.359V24.0177H99.4119ZM61.1983 31.1399C61.475 30.5982 63.3947 26.8089 63.3947 26.8089C63.3947 26.8068 63.5036 26.5439 63.6062 26.2848C63.6596 26.4115 63.7173 26.5439 63.8156 26.7412C63.8156 26.7433 65.4966 30.1036 66.0148 31.1399H61.1983ZM64.5136 24.0177H62.6939L56.723 35.5328C56.1517 34.8586 51.0286 28.7816 50.7667 28.4695C51.1081 28.2133 56.7405 24.0177 56.7405 24.0177H53.7021C53.7021 24.0177 46.5741 29.285 45.944 29.7473V24.0177H43.9536V35.5976H45.9145V32.0321C46.0727 31.9173 48.8382 29.8857 49.1237 29.6737C49.3711 29.9652 54.0995 35.5976 54.0995 35.5976H58.9606C58.9606 35.5976 60.209 33.0684 60.3178 32.8506H66.9072C67.0162 33.0684 68.2673 35.5976 68.2673 35.5976H70.5847L64.6461 24.0177" fill="#6B6E6E"></path>
  <path d="M85.4061 24.0178L82.8003 32.3207C82.7148 32.5768 82.6614 32.7565 82.6144 32.9243C82.5888 32.8213 82.5375 32.6387 82.5375 32.6387L82.5119 32.5679C82.5119 32.5615 79.385 24.0178 79.385 24.0178H77.6802L74.6888 32.0881C74.5585 32.4561 74.4837 32.6857 74.4181 32.9036C74.3882 32.7976 74.354 32.674 74.307 32.512L71.6425 24.0178H69.5018L73.2648 35.6006H75.3727L78.2671 27.6393C78.3911 27.2977 78.468 27.071 78.5291 26.8472C78.6081 27.1387 78.7085 27.4214 78.8765 27.8748L81.656 35.6006H83.7139L87.5356 24.0178H87.2382" fill="#6B6E6E"></path>
  <path d="M91.3991 43.6737H91.882L92.1882 42.9199H93.6368L93.9429 43.6737H94.4258L93.1186 40.6234H92.7535L91.3991 43.6737ZM92.3296 42.5549L92.9067 41.1534H92.9281L93.5052 42.5549H92.3296Z" fill="#6B6E6E"></path>
  <path d="M94.9273 43.6737H95.3394V41.1652H95.3608L97.0568 43.6737H97.5867V40.6234H97.1745V43.1319H97.1531L95.4691 40.6234H94.9273V43.6737Z" fill="#6B6E6E"></path>
  <path d="M99.3792 43.6737H99.8621L100.168 42.9199H101.617L101.923 43.6737H102.406L101.099 40.6234H100.734L99.3792 43.6737ZM100.31 42.5549L100.887 41.1534H100.908L101.485 42.5549H100.31Z" fill="#6B6E6E"></path>
  <path d="M102.907 43.6737H103.319V42.3311H103.791L104.556 43.6737H105.074L104.215 42.284C104.332 42.2712 104.438 42.237 104.533 42.1898C104.616 42.1425 104.697 42.072 104.768 42.0013C104.828 41.9306 104.875 41.8483 104.909 41.754C104.943 41.6598 104.967 41.5773 104.967 41.4714C104.967 41.3771 104.943 41.2829 104.92 41.1769C104.883 41.0827 104.836 40.9885 104.766 40.906C104.695 40.8236 104.589 40.7531 104.46 40.6941C104.342 40.6469 104.177 40.6234 103.977 40.6234H102.905L102.907 43.6737ZM103.319 40.9885H103.873C103.956 40.9885 104.027 40.9885 104.109 41.0013C104.192 41.0141 104.25 41.0366 104.32 41.0721C104.378 41.1073 104.427 41.1545 104.461 41.2252C104.508 41.2842 104.521 41.3784 104.521 41.4726C104.521 41.5785 104.5 41.661 104.461 41.7316C104.427 41.7906 104.378 41.8376 104.32 41.8729C104.25 41.9081 104.19 41.9318 104.109 41.9436C104.025 41.9564 103.955 41.9671 103.873 41.9671H103.319V40.9885Z" fill="#6B6E6E"></path>
  <path d="M108.12 41.0238C107.989 40.8589 107.837 40.7412 107.649 40.6587C107.448 40.588 107.248 40.541 107.048 40.541C106.812 40.541 106.6 40.5882 106.4 40.6705C106.212 40.7412 106.047 40.8589 105.906 41.0003C105.765 41.1534 105.658 41.3182 105.576 41.5185C105.492 41.7187 105.458 41.9424 105.458 42.178C105.458 42.3664 105.492 42.5548 105.565 42.7433C105.648 42.9317 105.742 43.0966 105.883 43.2497C106.013 43.4029 106.189 43.5205 106.378 43.6148C106.579 43.709 106.79 43.756 107.025 43.756C107.203 43.756 107.367 43.7325 107.496 43.6853C107.627 43.6381 107.744 43.5911 107.838 43.5321C107.932 43.4731 108.015 43.4144 108.062 43.3554C108.122 43.2964 108.169 43.2494 108.192 43.2142L107.839 42.9551C107.745 43.0846 107.638 43.1788 107.497 43.2495C107.367 43.3319 107.215 43.3672 107.038 43.3672C106.861 43.3672 106.708 43.3319 106.567 43.273C106.413 43.2022 106.308 43.1198 106.202 43.0139C106.108 42.8962 106.037 42.7784 105.978 42.6252C105.931 42.484 105.908 42.3308 105.908 42.1777C105.908 42.001 105.931 41.8361 105.978 41.6831C106.038 41.5299 106.119 41.4004 106.214 41.2944C106.32 41.1767 106.437 41.0942 106.579 41.0236C106.709 40.9646 106.873 40.9293 107.038 40.9293C107.179 40.9293 107.321 40.9646 107.45 41.0236C107.581 41.0825 107.686 41.1648 107.78 41.2827L108.12 41.0238Z" fill="#6B6E6E"></path>
  <path d="M110.835 43.6266C111.023 43.5441 111.2 43.4381 111.341 43.285C111.472 43.1436 111.577 42.9788 111.66 42.7786C111.743 42.5902 111.777 42.3782 111.777 42.1426C111.777 41.9189 111.743 41.7069 111.66 41.5185C111.576 41.3183 111.472 41.1534 111.341 41.0003C111.2 40.859 111.024 40.7412 110.835 40.6705C110.634 40.5881 110.423 40.541 110.187 40.541C109.952 40.541 109.74 40.5883 109.551 40.6705C109.351 40.7412 109.186 40.8589 109.045 41.0003C108.904 41.1535 108.798 41.3182 108.715 41.5185C108.632 41.7069 108.598 41.9189 108.598 42.1426C108.598 42.3782 108.634 42.5902 108.715 42.7786C108.799 42.9788 108.903 43.1437 109.045 43.285C109.186 43.4382 109.351 43.5441 109.551 43.6266C109.739 43.709 109.952 43.756 110.187 43.756C110.423 43.756 110.635 43.709 110.835 43.6266ZM109.716 43.2615C109.575 43.2025 109.457 43.1083 109.351 43.0024C109.257 42.8964 109.174 42.7668 109.116 42.6137C109.069 42.4725 109.045 42.3193 109.045 42.1426C109.045 41.9777 109.069 41.8247 109.116 41.6716C109.175 41.5303 109.257 41.4007 109.351 41.2947C109.458 41.177 109.575 41.0945 109.716 41.0238C109.857 40.9649 110.011 40.9296 110.187 40.9296C110.365 40.9296 110.517 40.9649 110.67 41.0238C110.811 41.0946 110.929 41.1768 111.024 41.2947C111.13 41.4007 111.201 41.5302 111.259 41.6716C111.317 41.8247 111.34 41.9778 111.34 42.1426C111.34 42.3193 111.317 42.4724 111.259 42.6137C111.199 42.7667 111.129 42.8964 111.024 43.0024C110.929 43.1084 110.812 43.2026 110.67 43.2615C110.516 43.3322 110.364 43.3675 110.187 43.3675C110.01 43.3675 109.858 43.3322 109.716 43.2615Z" fill="#6B6E6E"></path>
  <path d="M112.477 43.6737H112.889V41.1652H112.91L114.606 43.6737H115.136V40.6234H114.724V43.1319H114.703L113.018 40.6234H112.477V43.6737Z" fill="#6B6E6E"></path>
  <path d="M116.012 43.6737H116.425V40.6234H116.012V43.6737Z" fill="#6B6E6E"></path>
  <path d="M119.791 41.0238C119.66 40.8589 119.508 40.7412 119.32 40.6587C119.119 40.588 118.919 40.541 118.719 40.541C118.483 40.541 118.271 40.5882 118.071 40.6705C117.883 40.7412 117.718 40.8589 117.577 41.0003C117.436 41.1534 117.329 41.3182 117.247 41.5185C117.163 41.7187 117.129 41.9424 117.129 42.178C117.129 42.3664 117.163 42.5548 117.236 42.7433C117.319 42.9317 117.413 43.0966 117.554 43.2497C117.684 43.4029 117.86 43.5205 118.049 43.6148C118.25 43.709 118.461 43.756 118.696 43.756C118.874 43.756 119.038 43.7325 119.167 43.6853C119.298 43.6381 119.415 43.5911 119.509 43.5321C119.603 43.4731 119.686 43.4144 119.733 43.3554C119.793 43.2964 119.84 43.2494 119.863 43.2142L119.51 42.9551C119.416 43.0846 119.309 43.1788 119.168 43.2495C119.038 43.3319 118.886 43.3672 118.709 43.3672C118.532 43.3672 118.379 43.3319 118.238 43.273C118.084 43.2022 117.979 43.1198 117.873 43.0139C117.779 42.8962 117.708 42.7784 117.649 42.6252C117.602 42.484 117.579 42.3308 117.579 42.1777C117.579 42.001 117.602 41.8361 117.649 41.6831C117.709 41.5299 117.79 41.4004 117.885 41.2944C117.992 41.1767 118.108 41.0942 118.25 41.0236C118.38 40.9646 118.544 40.9293 118.709 40.9293C118.85 40.9293 118.992 40.9646 119.121 41.0236C119.252 41.0825 119.357 41.1648 119.451 41.2827L119.791 41.0238Z" fill="#6B6E6E"></path>
  <path d="M124.235 41.0238C124.105 40.8589 123.952 40.7412 123.764 40.6587C123.563 40.588 123.364 40.541 123.163 40.541C122.928 40.541 122.716 40.5882 122.516 40.6705C122.327 40.7412 122.162 40.8589 122.021 41.0003C121.88 41.1534 121.773 41.3182 121.691 41.5185C121.608 41.7187 121.573 41.9424 121.573 42.178C121.573 42.3664 121.608 42.5548 121.68 42.7433C121.764 42.9317 121.858 43.0966 121.998 43.2497C122.129 43.4029 122.305 43.5205 122.493 43.6148C122.694 43.709 122.905 43.756 123.141 43.756C123.318 43.756 123.482 43.7325 123.612 43.6853C123.742 43.6381 123.859 43.5911 123.953 43.5321C124.047 43.4731 124.131 43.4144 124.177 43.3554C124.237 43.2964 124.284 43.2494 124.307 43.2142L123.954 42.9551C123.86 43.0846 123.753 43.1788 123.613 43.2495C123.482 43.3319 123.33 43.3672 123.153 43.3672C122.976 43.3672 122.824 43.3319 122.682 43.273C122.528 43.2022 122.423 43.1198 122.317 43.0139C122.223 42.8962 122.153 42.7784 122.093 42.6252C122.046 42.484 122.023 42.3308 122.023 42.1777C122.023 42.001 122.046 41.8361 122.093 41.6831C122.153 41.5299 122.234 41.4004 122.329 41.2944C122.436 41.1767 122.553 41.0942 122.694 41.0236C122.824 40.9646 122.989 40.9293 123.153 40.9293C123.294 40.9293 123.436 40.9646 123.566 41.0236C123.696 41.0825 123.801 41.1648 123.895 41.2827L124.235 41.0238Z" fill="#6B6E6E"></path>
  <path d="M126.95 43.6266C127.138 43.5441 127.316 43.4381 127.457 43.285C127.587 43.1436 127.692 42.9788 127.775 42.7786C127.858 42.5902 127.892 42.3782 127.892 42.1426C127.892 41.9189 127.858 41.7069 127.775 41.5185C127.692 41.3183 127.587 41.1534 127.457 41.0003C127.316 40.859 127.139 40.7412 126.95 40.6705C126.75 40.5881 126.538 40.541 126.303 40.541C126.067 40.541 125.855 40.5883 125.667 40.6705C125.466 40.7412 125.302 40.8589 125.16 41.0003C125.019 41.1535 124.913 41.3182 124.83 41.5185C124.747 41.7069 124.713 41.9189 124.713 42.1426C124.713 42.3782 124.749 42.5902 124.83 42.7786C124.914 42.9788 125.018 43.1437 125.16 43.285C125.301 43.4382 125.467 43.5441 125.667 43.6266C125.855 43.709 126.067 43.756 126.303 43.756C126.538 43.756 126.75 43.709 126.95 43.6266ZM125.832 43.2615C125.691 43.2025 125.573 43.1083 125.467 43.0024C125.373 42.8964 125.289 42.7668 125.231 42.6137C125.184 42.4725 125.16 42.3193 125.16 42.1426C125.16 41.9777 125.184 41.8247 125.231 41.6716C125.291 41.5303 125.372 41.4007 125.467 41.2947C125.573 41.177 125.69 41.0945 125.832 41.0238C125.973 40.9649 126.126 40.9296 126.303 40.9296C126.48 40.9296 126.632 40.9649 126.785 41.0238C126.926 41.0946 127.045 41.1768 127.139 41.2947C127.246 41.4007 127.316 41.5302 127.374 41.6716C127.432 41.8247 127.456 41.9778 127.456 42.1426C127.456 42.3193 127.432 42.4724 127.374 42.6137C127.315 42.7667 127.244 42.8964 127.139 43.0024C127.045 43.1084 126.927 43.2026 126.785 43.2615C126.632 43.3322 126.479 43.3675 126.303 43.3675C126.125 43.3675 125.973 43.3322 125.832 43.2615Z" fill="#6B6E6E"></path>
  <path d="M128.569 43.6737H128.981V41.1652H129.002L130.027 43.6737H130.309L131.334 41.1652H131.355V43.6737H131.768V40.6234H131.155L130.189 42.9317H130.166L129.2 40.6234H128.588L128.569 43.6737Z" fill="#6B6E6E"></path>
  <path d="M132.601 43.6737H133.014V42.3311H133.673C133.874 42.3311 134.038 42.3076 134.156 42.2486C134.286 42.1896 134.391 42.1309 134.462 42.0484C134.533 41.9659 134.58 41.8717 134.616 41.7658C134.639 41.6716 134.663 41.5656 134.663 41.4714C134.663 41.3771 134.639 41.2829 134.616 41.1769C134.58 41.0827 134.533 40.9885 134.462 40.906C134.392 40.8236 134.285 40.753 134.156 40.6941C134.038 40.6469 133.873 40.6234 133.673 40.6234H132.601V43.6737ZM133.014 40.9885H133.567C133.65 40.9885 133.721 40.9885 133.803 41.0013C133.886 41.0141 133.944 41.0366 134.014 41.0721C134.072 41.1073 134.121 41.1545 134.155 41.2252C134.202 41.2842 134.215 41.3784 134.215 41.4726C134.215 41.5785 134.194 41.661 134.155 41.7316C134.121 41.7906 134.072 41.8376 134.014 41.8729C133.944 41.9081 133.884 41.9318 133.803 41.9436C133.721 41.9564 133.649 41.9671 133.567 41.9671H133.014V40.9885Z" fill="#6B6E6E"></path>
  <path d="M134.556 43.6737H135.039L135.345 42.9199H136.793L137.1 43.6737H137.582L136.275 40.6234H135.91L134.556 43.6737ZM135.486 42.5549L136.063 41.1534H136.085L136.662 42.5549H135.486Z" fill="#6B6E6E"></path>
  <path d="M138.084 43.6737H138.496V41.1652H138.517L140.213 43.6737H140.743V40.6234H140.331V43.1319H140.31L138.626 40.6234H138.084V43.6737Z" fill="#6B6E6E"></path>
  <path d="M142.338 43.6737H142.762V42.3664L143.916 40.6234H143.41L142.55 41.966L141.714 40.6234H141.184L142.338 42.3664V43.6737Z" fill="#6B6E6E"></path>
</svg>
