<?xml version="1.0" encoding="UTF-8"?>
<svg xmlns="http://www.w3.org/2000/svg" width="231" height="72" viewBox="0 0 231 72" fill="none">
  <path d="M228.844 57.28C228.536 57.28 228.228 57.203 227.997 57.126C227.766 56.972 227.535 56.818 227.304 56.664C227.073 56.433 226.919 56.202 226.842 55.971C226.688 55.74 226.688 55.432 226.688 55.124C226.688 54.816 226.765 54.508 226.842 54.277C226.919 54.046 227.15 53.815 227.304 53.584C227.535 53.353 227.766 53.199 227.997 53.122C228.228 53.045 228.536 52.968 228.844 52.968C229.152 52.968 229.46 53.045 229.691 53.122C229.922 53.199 230.153 53.43 230.384 53.584C230.615 53.815 230.769 54.046 230.846 54.277C230.923 54.508 231 54.816 231 55.124C231 55.432 230.923 55.74 230.846 55.971C230.769 56.202 230.615 56.433 230.384 56.664C230.153 56.895 229.922 57.049 229.691 57.126C229.383 57.203 229.152 57.28 228.844 57.28ZM228.844 56.972C229.075 56.972 229.383 56.895 229.614 56.818C229.845 56.741 229.999 56.587 230.23 56.433C230.384 56.279 230.538 56.048 230.615 55.817C230.692 55.586 230.769 55.355 230.769 55.047C230.769 54.816 230.692 54.508 230.615 54.277C230.538 54.046 230.384 53.815 230.23 53.661C230.076 53.507 229.845 53.353 229.614 53.276C229.383 53.199 229.152 53.122 228.844 53.122C228.613 53.122 228.305 53.199 228.074 53.276C227.843 53.353 227.689 53.507 227.458 53.661C227.304 53.815 227.15 54.046 227.073 54.277C226.996 54.508 226.919 54.739 226.919 55.047C226.919 55.278 226.996 55.586 227.073 55.817C227.15 56.048 227.304 56.279 227.458 56.433C227.612 56.587 227.843 56.741 228.074 56.818C228.305 56.895 228.536 56.972 228.844 56.972ZM229.922 56.279H229.537L228.844 55.124H228.305V56.279H227.997V53.815H229.075C229.383 53.815 229.614 53.892 229.768 53.969C229.922 54.123 229.922 54.277 229.922 54.431C229.922 54.585 229.922 54.662 229.845 54.739C229.768 54.816 229.768 54.893 229.691 54.97C229.614 55.047 229.537 55.047 229.46 55.047C229.383 55.047 229.229 55.124 229.152 55.124L229.922 56.279ZM228.767 54.893H229.075C229.152 54.893 229.306 54.893 229.383 54.893C229.46 54.893 229.537 54.816 229.614 54.739C229.691 54.662 229.691 54.585 229.691 54.431C229.691 54.354 229.691 54.277 229.614 54.2C229.614 54.123 229.537 54.123 229.46 54.046C229.383 54.046 229.306 53.969 229.229 53.969C229.152 53.969 229.075 53.969 228.998 53.969H228.305V54.816H228.767V54.893Z" fill="#00235D"></path>
  <path d="M62.6011 56.895H61.6001V64.441H62.6011V56.895Z" fill="#00235D"></path>
  <path d="M65.373 56.895H66.374L70.378 62.901V56.895H71.302V64.441H70.301L66.297 58.512V64.441H65.373V56.895Z" fill="#00235D"></path>
  <path d="M73.3809 56.895H74.4589L76.3839 63.055H76.4609L78.5399 56.895H79.6179L76.9229 64.441H75.8449L73.3809 56.895Z" fill="#00235D"></path>
  <path d="M81.6201 56.895H86.9331V57.742H82.6211V60.129H86.3941V60.976H82.6211V63.594H87.0101V64.441H81.6201V56.895Z" fill="#00235D"></path>
  <path d="M94.0169 59.128C93.9399 57.973 93.0929 57.511 92.0919 57.511C91.3989 57.511 90.3979 57.742 90.3979 58.666C90.3979 60.668 95.1719 59.128 95.1719 62.362C95.1719 63.979 93.7089 64.672 92.2459 64.672C90.4749 64.672 89.0119 63.979 88.8579 62.054L89.9359 61.977C90.0129 63.363 90.8599 63.902 92.1689 63.902C93.0929 63.902 94.0169 63.44 94.0169 62.362C94.0169 60.283 89.2429 61.669 89.2429 58.897C89.2429 57.434 90.6289 56.741 91.9379 56.741C93.4779 56.741 94.7869 57.434 95.0179 59.128H94.0169Z" fill="#00235D"></path>
  <path d="M99.1759 57.742H96.9429V56.895H102.487V57.742H100.177V64.441H99.1759V57.742Z" fill="#00235D"></path>
  <path d="M104.566 56.895H105.952L108.262 63.055L110.572 56.895H111.881V64.441H110.88V58.358L108.647 64.441H107.8L105.644 58.358H105.567V64.441H104.566V56.895Z" fill="#00235D"></path>
  <path d="M114.576 56.895H119.889V57.742H115.577V60.129H119.35V60.976H115.577V63.594H119.966V64.441H114.576V56.895Z" fill="#00235D"></path>
  <path d="M122.199 56.895H123.2L127.204 62.901H127.281V56.895H128.205V64.441H127.204L123.2 58.512H123.123V64.441H122.199V56.895Z" fill="#00235D"></path>
  <path d="M132.517 57.742H130.284V56.895H135.828V57.742H133.518V64.441H132.517V57.742Z" fill="#00235D"></path>
  <path d="M142.065 56.895H143.374L145.684 63.055L147.994 56.895H149.303V64.441H148.302V58.358L146.069 64.441H145.299L143.066 58.358V64.441H142.065V56.895Z" fill="#00235D"></path>
  <path d="M154.231 56.895H155.309L158.081 64.441H157.003L156.156 62.131H153.307L152.46 64.441H151.382L154.231 56.895ZM154.77 58.127L153.615 61.284H155.848L154.77 58.127Z" fill="#00235D"></path>
  <path d="M160.006 56.895H161.084L165.088 62.901V56.895H166.012V64.441H165.011L161.007 58.512V64.441H160.006V56.895Z" fill="#00235D"></path>
  <path d="M170.94 56.895H172.018L174.79 64.441H173.712L172.865 62.131H170.016L169.169 64.441H168.091L170.94 56.895ZM171.402 58.127L170.247 61.284H172.48L171.402 58.127Z" fill="#00235D"></path>
  <path d="M183.029 63.4401C182.413 64.3641 181.335 64.6721 180.334 64.6721C177.947 64.6721 176.561 63.0551 176.561 60.6681C176.561 58.7431 177.947 56.6641 180.334 56.6641C181.951 56.6641 183.337 57.4341 183.876 58.8971L182.875 59.1281C182.567 58.2041 181.72 57.5111 180.334 57.5111C178.64 57.5111 177.639 58.8971 177.639 60.5141C177.639 62.2081 178.486 63.6711 180.334 63.6711C181.951 63.6711 183.029 62.8241 183.029 61.2071H180.411V60.3601H183.953V64.4411H183.106V63.4401" fill="#00235D"></path>
  <path d="M186.494 56.895H191.884V57.742H187.495V60.129H191.268V60.976H187.495V63.594H191.961V64.441H186.494V56.895Z" fill="#00235D"></path>
  <path d="M194.194 56.895H195.503L197.813 63.055L200.2 56.895H201.509V64.441H200.508V58.358H200.431L198.275 64.441H197.428L195.195 58.358V64.441H194.194V56.895Z" fill="#00235D"></path>
  <path d="M204.204 56.895H209.517V57.742H205.205V60.129H208.901V60.976H205.205V63.594H209.594V64.441H204.204V56.895Z" fill="#00235D"></path>
  <path d="M211.827 56.895H212.828L216.832 62.901V56.895H217.756V64.441H216.832L212.751 58.512V64.441H211.827V56.895Z" fill="#00235D"></path>
  <path d="M222.145 57.742H219.912V56.895H225.456V57.742H223.146V64.441H222.145V57.742Z" fill="#00235D"></path>
  <path d="M71.533 39.8779C71.533 42.5729 71.764 43.4969 72.919 43.9589C74.074 44.4209 75.999 44.4979 78.771 44.4979C84.469 44.4979 87.472 43.8049 88.55 36.6439H90.167L89.551 46.3459H61.292V44.8059C66.066 44.4979 66.22 44.3439 66.22 41.3409V13.8519C66.22 10.7719 66.143 10.6949 61.292 10.3869V8.84692H76.769V10.3869C71.687 10.6949 71.533 10.8489 71.533 13.8519V39.8779Z" fill="#00235D"></path>
  <path d="M113.036 39.4929C113.036 42.8809 113.96 43.9589 114.961 44.1899C115.808 44.4209 116.963 44.2669 117.733 44.1129L118.041 45.4219C115.962 46.4229 113.652 47.0389 111.65 47.0389C109.725 47.0389 108.878 45.8069 108.108 43.8049C106.337 44.9599 103.411 46.9619 100.023 47.0389C94.9409 47.0389 92.1689 43.4199 92.1689 39.3389C92.1689 36.7979 93.324 34.1029 97.251 32.8709C101.563 31.4849 106.799 30.1759 108.185 28.7129V26.4029C108.185 22.0909 105.721 20.9359 103.565 20.9359C101.409 20.9359 99.1759 22.2449 97.9439 26.2489C97.6359 27.1729 97.3279 27.7889 96.1729 27.7889C95.1719 27.7889 93.0929 26.9419 93.0929 25.2479C93.0929 22.2449 97.9439 19.0879 104.104 19.0879C112.343 19.0879 113.036 23.1689 113.036 26.3259V39.4929ZM108.108 31.0229C106.876 31.7929 104.027 32.7939 101.871 33.6409C98.791 34.7959 97.636 36.1049 97.636 38.6459C97.636 41.8799 99.253 44.2669 102.641 44.2669C104.797 44.2669 108.108 43.1119 108.108 38.7229V31.0229Z" fill="#00235D"></path>
  <path d="M119.504 35.258H121.275C122.661 41.341 125.972 45.345 131.131 45.345C135.982 45.345 138.985 42.496 138.985 37.876C138.985 33.025 133.826 30.561 131.439 29.637L130.438 29.252C124.663 27.173 120.12 24.17 120.12 18.472C120.12 11.311 125.972 8 132.671 8C136.367 8 140.063 8.924 141.911 10.387V18.087H140.217C139.37 12.62 136.752 9.925 132.055 9.925C127.512 9.925 125.125 12.851 125.125 16.855C125.125 20.089 128.205 22.476 131.824 23.785L133.595 24.401C139.986 26.711 144.298 29.791 144.298 36.182C144.298 41.726 140.525 47.193 130.9 47.193C127.127 47.193 122.584 46.192 120.197 43.959L119.504 35.258Z" fill="#00235D"></path>
  <path d="M167.629 39.4929C167.629 42.8809 168.553 43.9589 169.554 44.1899C170.401 44.4209 171.556 44.2669 172.326 44.1129L172.634 45.4219C170.555 46.4229 168.245 47.0389 166.243 47.0389C164.318 47.0389 163.471 45.8069 162.701 43.8049C160.93 44.9599 158.004 46.9619 154.616 47.0389C149.534 47.0389 146.762 43.4199 146.762 39.3389C146.762 36.7979 147.917 34.1029 151.844 32.8709C156.156 31.4849 161.392 30.1759 162.778 28.7129V26.4029C162.778 22.0909 160.314 20.9359 158.158 20.9359C156.002 20.9359 153.769 22.2449 152.537 26.2489C152.229 27.1729 151.921 27.7889 150.766 27.7889C149.765 27.7889 147.686 26.9419 147.686 25.2479C147.686 22.2449 152.537 19.0879 158.697 19.0879C166.936 19.0879 167.629 23.1689 167.629 26.3259V39.4929ZM162.778 31.0229C161.546 31.7929 158.697 32.7939 156.541 33.6409C153.461 34.7959 152.306 36.1049 152.306 38.6459C152.306 41.8799 153.923 44.2669 157.311 44.2669C159.467 44.2669 162.778 43.1119 162.778 38.7229V31.0229Z" fill="#00235D"></path>
  <path d="M183.106 41.726C183.106 44.498 183.337 44.575 187.187 44.883V46.423H173.943V44.883C177.87 44.575 178.024 44.498 178.024 41.726V13.698C178.024 11.619 177.716 11.388 176.253 11.234L174.174 11.003V9.61696L182.721 8.23096L183.106 8.53896V41.726Z" fill="#00235D"></path>
  <path d="M198.275 41.7261C198.275 44.4981 198.506 44.5751 202.356 44.8831V46.4231H189.112V44.8831C193.039 44.5751 193.193 44.4981 193.193 41.7261V13.6981C193.193 11.6191 192.885 11.3881 191.422 11.2341L189.343 11.0031V9.61711L197.89 8.30811L198.275 8.61611V41.7261Z" fill="#00235D"></path>
  <path d="M208.901 32.1009C208.824 37.7219 210.133 44.2669 216.909 44.2669C221.221 44.2669 223.3 41.6489 224.763 38.4919L226.38 39.3389C224.917 43.6509 221.837 46.9619 215.754 47.0389C206.899 47.1159 203.203 41.8799 203.203 33.2559C203.203 25.0939 207.207 19.0879 215.677 19.0879C225.61 19.0879 226.688 26.7879 226.688 30.0219C226.688 31.7929 225.687 32.1009 224.532 32.1009H208.901ZM219.296 30.0989C220.836 30.0989 221.144 29.4059 221.144 28.3279C221.144 26.1719 220.528 21.0129 215.523 21.0129C209.902 21.0129 209.055 27.7889 209.055 30.0219H219.296V30.0989Z" fill="#00235D"></path>
  <path d="M21.1749 63.8249C21.8679 63.5169 22.4839 63.1319 23.0999 62.7469C23.2539 62.6699 23.3309 62.5929 23.4849 62.4389C24.2549 61.8999 24.9479 61.2069 25.6409 60.5139C26.4879 59.5899 27.2579 58.5889 27.9509 57.5109C28.4899 56.6639 29.0289 55.8169 29.4909 54.8929C31.2619 51.4279 32.4169 47.5779 32.9559 43.8049C33.3409 41.3409 33.4949 38.8769 33.4949 36.4129C33.4949 33.9489 33.3409 31.4849 32.9559 29.0209C32.3399 25.2479 31.2619 21.3979 29.4909 17.9329C29.2599 17.5479 29.1059 17.1629 28.8749 16.7009C27.9509 18.3949 27.1809 20.2429 26.5649 22.0909C27.7199 25.4789 28.4129 29.0979 28.6439 32.7169C28.7209 33.9489 28.7979 35.1809 28.7979 36.4129C28.7979 37.6449 28.7979 38.8769 28.7209 40.1089C28.4129 44.4979 27.4889 48.8869 25.7949 52.9679C25.1789 54.5849 24.3319 56.0479 23.4849 57.5109C23.2539 57.8189 23.0999 58.2039 22.8689 58.5119C22.4069 59.2049 21.9449 59.8979 21.4059 60.5139C20.7899 61.2839 20.1739 61.9769 19.4809 62.6699C18.7879 63.3629 17.9409 64.0559 17.1709 64.5949C17.0939 64.6719 17.0169 64.6719 16.9399 64.7489V64.8259C18.2489 64.8259 19.7889 64.4409 21.1749 63.8249Z" fill="#00235D"></path>
  <path d="M30.0301 63.8251C30.7231 63.5171 31.3391 63.1321 31.9551 62.7471C32.1091 62.6701 32.1861 62.5931 32.3401 62.5161C34.8811 60.5911 36.8831 57.8961 38.2691 55.0471C40.0401 51.5821 41.1951 47.7321 41.7341 43.9591C42.1191 41.4951 42.2731 39.0311 42.2731 36.5671C42.2731 34.1031 42.1191 31.6391 41.7341 29.1751C41.1181 25.4021 40.0401 21.5521 38.2691 18.0871C36.9601 15.4691 35.1891 12.9281 32.8791 11.0801C32.1091 11.8501 31.4931 12.6971 30.8001 13.5441C31.0311 13.8521 31.2621 14.1601 31.4161 14.4681C35.1121 19.9351 36.8061 26.4031 37.2681 32.8711C37.3451 34.1031 37.4221 35.3351 37.4221 36.5671C37.4221 37.7991 37.3451 39.0311 37.2681 40.2631C36.9601 46.6541 35.1891 53.1221 31.5701 58.5891C31.1081 59.2821 30.6461 59.9751 30.1071 60.5911C29.4911 61.3611 28.8751 62.0541 28.1821 62.7471C27.4891 63.4401 26.6421 64.1331 25.8721 64.6721C25.7951 64.7491 25.7181 64.7491 25.6411 64.8261V64.9031C27.1811 64.8261 28.6441 64.4411 30.0301 63.8251Z" fill="#00235D"></path>
  <path d="M41.2721 62.4389C43.8131 60.5139 45.8151 57.8189 47.2011 54.9699C48.9721 51.5049 50.1271 47.6549 50.6661 43.8819C51.0511 41.4179 51.2051 38.9539 51.2051 36.4899C51.2051 34.0259 51.0511 31.5619 50.6661 29.0979C50.0501 25.3249 48.9721 21.4749 47.2011 18.0099C45.7381 15.1609 43.8131 12.4659 41.2721 10.5409C39.3471 9.0779 36.9601 8.1539 34.4961 8.0769V8.1539C36.8831 9.7709 38.8081 12.0039 40.4251 14.3909C44.1211 19.8579 45.8151 26.3259 46.2771 32.7939C46.3541 34.0259 46.4311 35.2579 46.4311 36.4899C46.4311 37.7219 46.3541 38.9539 46.2771 40.1859C45.8151 46.6539 44.0441 53.1989 40.4251 58.5889C38.8851 60.8989 36.8831 63.2089 34.4961 64.8259V64.9029C36.8831 64.8259 39.3471 63.9019 41.2721 62.4389Z" fill="#00235D"></path>
  <path d="M30.03 9.1549C29.337 9.4629 28.721 9.8479 28.105 10.2329C27.951 10.3099 27.874 10.3869 27.72 10.4639C26.95 11.0029 26.257 11.6959 25.564 12.3889C24.717 13.3129 23.947 14.3139 23.254 15.3919C22.715 16.2389 22.176 17.0859 21.714 18.0099C19.943 21.4749 18.788 25.3249 18.249 29.0979C17.864 31.5619 17.71 34.0259 17.71 36.4899C17.71 38.9539 17.864 41.4179 18.249 43.8819C18.865 47.6549 19.943 51.5049 21.714 54.9699C21.945 55.3549 22.099 55.7399 22.33 56.2019C23.254 54.4309 24.024 52.6599 24.64 50.8119C23.485 47.4239 22.792 43.8049 22.561 40.1859C22.484 38.9539 22.407 37.7219 22.407 36.4899C22.407 35.2579 22.407 34.0259 22.484 32.7939C22.792 28.4049 23.716 24.0159 25.41 19.9349C26.026 18.3179 26.873 16.8549 27.72 15.3919C27.951 15.0839 28.105 14.6989 28.336 14.3909C28.798 13.6979 29.26 13.0049 29.799 12.3889C30.415 11.6189 31.031 10.9259 31.724 10.2329C32.417 9.5399 33.264 8.8469 34.034 8.3079C34.111 8.2309 34.188 8.2309 34.265 8.1539V8.0769C32.956 8.0769 31.493 8.4619 30.03 9.1549Z" fill="#00235D"></path>
  <path d="M21.1751 9.1549C20.4821 9.4629 19.8661 9.8479 19.2501 10.2329C19.0961 10.3099 19.0191 10.3869 18.8651 10.5409C16.3241 12.4659 14.3221 15.1609 12.9361 18.0099C11.1651 21.4749 10.0101 25.3249 9.47113 29.0979C9.08613 31.5619 8.93213 34.0259 8.93213 36.4899C8.93213 38.9539 9.08613 41.4179 9.47113 43.8819C10.0871 47.6549 11.1651 51.5049 12.9361 54.9699C14.2451 57.5879 16.0161 60.1289 18.3261 61.9769C19.0961 61.2069 19.7121 60.3599 20.4051 59.5129C20.1741 59.2049 19.9431 58.8969 19.7891 58.5889C16.0931 53.1219 14.3991 46.6539 13.9371 40.1859C13.8601 38.9539 13.7831 37.7219 13.7831 36.4899C13.7831 35.2579 13.8601 34.0259 13.9371 32.7939C14.3991 26.3259 16.1701 19.7809 19.7891 14.3909C20.2511 13.6979 20.7131 13.0049 21.2521 12.3889C21.8681 11.6189 22.4841 10.9259 23.1771 10.2329C23.8701 9.5399 24.6401 8.8469 25.4101 8.3079C25.4871 8.2309 25.5641 8.2309 25.6411 8.1539V8.0769C24.1011 8.0769 22.5611 8.4619 21.1751 9.1549Z" fill="#00235D"></path>
  <path d="M10.01 10.5409C7.469 12.4659 5.467 15.1609 4.081 18.0099C2.31 21.4749 1.155 25.3249 0.616 29.0979C0.154 31.5619 0 34.0259 0 36.4899C0 38.9539 0.154 41.4179 0.539 43.8819C1.155 47.6549 2.233 51.5049 4.004 54.9699C5.467 57.8189 7.392 60.5139 9.933 62.4389C11.858 63.9019 14.245 64.8259 16.709 64.9029V64.8259C14.322 63.2089 12.397 60.9759 10.78 58.5889C7.084 53.1219 5.39 46.6539 4.928 40.1859C4.851 38.9539 4.774 37.7219 4.774 36.4899C4.774 35.2579 4.851 34.0259 4.928 32.7939C5.39 26.3259 7.161 19.7809 10.857 14.3909C12.397 12.0809 14.399 9.7709 16.786 8.1539V8.0769C14.322 8.1539 11.935 9.0779 10.01 10.5409Z" fill="#00235D"></path>
  <path d="M27.1808 61.9769C27.9508 61.2069 28.5668 60.3599 29.2598 59.5129C29.0288 59.2049 28.7978 58.8969 28.6438 58.5889C28.4128 58.2809 28.2588 57.8959 28.0278 57.5879C27.3348 58.6659 26.5648 59.6669 25.7178 60.5909C26.1028 61.0529 26.6418 61.5149 27.1808 61.9769Z" fill="#00235D"></path>
  <path d="M31.9548 62.6699C31.3388 63.0549 30.7228 63.4399 30.0298 63.7479C31.4158 64.3639 32.9558 64.7489 34.4958 64.8259V64.7489C33.6488 64.2099 32.8018 63.4399 31.9548 62.6699Z" fill="#00235D"></path>
  <path d="M24.7938 64.8261C25.0248 64.8261 25.2558 64.7491 25.4868 64.7491C25.2558 64.5951 25.0248 64.3641 24.7938 64.2101C24.1778 63.7481 23.6388 63.2861 23.0998 62.7471C22.4838 63.1321 21.8678 63.5171 21.1748 63.8251C22.0988 64.2101 23.0998 64.5181 24.0238 64.7491C24.3318 64.7491 24.5628 64.8261 24.7938 64.8261ZM25.6408 64.9031C25.5638 64.8261 25.5638 64.7491 25.4868 64.7491C25.2558 64.8261 25.0248 64.8261 24.7938 64.8261C25.1018 64.8261 25.3328 64.9031 25.6408 64.9031Z" fill="#00235D"></path>
  <path d="M24.101 11.0029C23.331 11.7729 22.715 12.6199 22.022 13.4669C22.253 13.7749 22.484 14.0829 22.638 14.3909C22.869 14.6989 23.023 15.0839 23.254 15.3919C23.947 14.3139 24.717 13.3129 25.564 12.3889C25.102 11.9269 24.64 11.3879 24.101 11.0029Z" fill="#00235D"></path>
  <path d="M19.25 10.2329C19.866 9.8479 20.482 9.4629 21.175 9.1549C19.789 8.5389 18.249 8.1539 16.709 8.0769V8.1539C17.633 8.7699 18.48 9.4629 19.25 10.2329Z" fill="#00235D"></path>
  <path d="M30.0301 9.1549C29.1061 8.7699 28.1051 8.4619 27.1811 8.2309C26.9501 8.1539 26.7191 8.1539 26.4881 8.1539C26.1801 8.1539 25.9491 8.0769 25.6411 8.0769V8.1539C25.7181 8.1539 25.7181 8.2309 25.7951 8.2309C26.0261 8.3849 26.2571 8.6159 26.4881 8.7699C27.1041 9.2319 27.6431 9.6939 28.1821 10.2329C28.7211 9.8479 29.4141 9.4629 30.0301 9.1549Z" fill="#00235D"></path>
</svg>
