<?xml version="1.0" encoding="UTF-8"?>
<svg xmlns="http://www.w3.org/2000/svg" width="231" height="72" viewBox="0 0 231 72" fill="none">
  <path fill-rule="evenodd" clip-rule="evenodd" d="M7.95897 24.9484C7.95897 27.1895 7.95897 29.1238 7.82923 30.15C7.75846 30.8577 7.61692 31.3295 7.12154 31.4828C6.83554 31.551 6.54273 31.5866 6.24872 31.5889C5.95385 31.5889 5.85949 31.6597 5.85949 31.7777C5.85949 31.8956 6.02462 32.0254 6.34308 32.0254C7.32205 32.0254 8.85538 31.9546 9.42154 31.9546C9.98769 31.9546 11.639 32.0254 13.2549 32.0254C13.5144 32.0254 13.7149 31.9546 13.7149 31.7777C13.7149 31.6007 13.5969 31.5889 13.3256 31.5889C12.9072 31.578 12.4897 31.5426 12.0754 31.4828C11.3441 31.3884 11.2026 30.8577 11.1318 30.1736C11.0021 29.1238 11.0021 27.1895 11.0021 24.9484V14.9464L14.0805 15.0172C16.2508 15.0172 16.9113 15.7484 16.9585 16.3854V16.6566C16.9585 17.0223 17.0292 17.1402 17.2297 17.1402C17.4303 17.1402 17.4185 16.9987 17.4421 16.751C17.4421 16.1141 17.5246 14.392 17.5246 13.9202C17.5246 13.4484 17.5246 13.4131 17.3241 13.4131C16.5487 13.5775 15.7577 13.6566 14.9651 13.6489H5.29333C4.49128 13.6489 3.55949 13.6489 2.86359 13.531C2.50439 13.4694 2.15257 13.3706 1.81385 13.2361C1.66051 13.2361 1.58974 13.3895 1.51897 13.6961C1.44821 14.0028 1 16.0551 1 16.5033C1 16.9515 1 16.8925 1.2241 16.8925C1.44821 16.8925 1.44821 16.7982 1.49538 16.6095C1.58076 16.3002 1.72056 16.0087 1.90821 15.7484C2.27385 15.2177 2.86359 15.0879 4.26718 15.0407L7.9118 14.9464L7.95897 24.9484Z" fill="black"></path>
  <path fill-rule="evenodd" clip-rule="evenodd" d="M25.1794 21.3393C25.1343 21.3398 25.0912 21.3204 25.0617 21.2864C25.0321 21.2523 25.0191 21.2069 25.026 21.1623V20.6551C25.026 16.9516 25.026 16.2675 25.026 15.4772C25.026 14.6869 25.2737 14.2151 25.9342 14.0972C26.1668 14.0459 26.4038 14.0183 26.6419 14.0146C26.9368 14.0146 27.0783 14.0146 27.0783 13.8023C27.0783 13.59 26.9132 13.5782 26.5712 13.5782C25.6158 13.5782 24.0824 13.649 23.4927 13.649C22.903 13.649 21.2988 13.5782 19.9542 13.5782C19.6122 13.5782 19.4471 13.5782 19.4471 13.8023C19.4471 14.0264 19.5886 14.0146 19.8599 14.0146C20.1804 14.0063 20.5009 14.034 20.8153 14.0972C21.6173 14.2623 21.8178 14.6516 21.865 15.4772C21.9122 16.3028 21.865 16.9516 21.865 20.6551V24.9485C21.865 27.1895 21.865 29.1239 21.7353 30.15C21.6409 30.8577 21.523 31.3295 21.0276 31.4828C20.7416 31.5511 20.4488 31.5867 20.1547 31.589C19.8599 31.589 19.7655 31.6598 19.7655 31.7777C19.7655 31.8957 19.9306 32.0254 20.2491 32.0254C21.2281 32.0254 22.7614 31.9546 23.3276 31.9546C23.8937 31.9546 25.545 32.0254 27.1373 32.0254C27.4204 32.0254 27.6209 31.9546 27.6209 31.7777C27.6209 31.6008 27.5029 31.589 27.2317 31.589C26.8132 31.578 26.3957 31.5426 25.9814 31.4828C25.2501 31.3885 25.1086 30.8577 25.0378 30.1736C24.9081 29.1239 24.9081 27.1895 24.9081 24.9485V22.8018C24.9081 22.6839 24.9906 22.6603 25.0614 22.6603H34.3794C34.4575 22.6603 34.5209 22.7236 34.5209 22.8018V24.9485C34.5209 27.1895 34.5209 29.1239 34.403 30.15C34.3086 30.8577 34.1788 31.3295 33.6953 31.4828C33.4091 31.5503 33.1164 31.5859 32.8224 31.589C32.5276 31.589 32.4214 31.6598 32.4214 31.7777C32.4214 31.8957 32.5983 32.0254 32.9404 32.0254C33.8958 32.0254 35.4291 31.9546 35.9953 31.9546C36.5614 31.9546 38.2127 32.0254 39.7932 32.0254C40.0881 32.0254 40.2886 31.9546 40.2886 31.7777C40.2886 31.6008 40.1589 31.589 39.8876 31.589C39.473 31.5781 39.0595 31.5426 38.6491 31.4828C37.9178 31.3885 37.7763 30.8577 37.6937 30.1736C37.5758 29.1239 37.5758 27.1895 37.5758 24.9485V20.6551C37.5758 16.9516 37.5758 16.2675 37.5758 15.4772C37.5758 14.6869 37.8235 14.2151 38.484 14.0972C38.7164 14.0452 38.9535 14.0175 39.1917 14.0146C39.4747 14.0146 39.6281 14.0146 39.6281 13.8023C39.6281 13.59 39.4512 13.5782 39.1091 13.5782C38.1655 13.5782 36.6204 13.649 36.0424 13.649C35.4645 13.649 33.8486 13.5782 32.504 13.5782C32.1619 13.5782 31.985 13.5782 31.985 13.8023C31.985 14.0264 32.1383 14.0146 32.4096 14.0146C32.7263 14.0057 33.0429 14.0334 33.3532 14.0972C34.1671 14.2623 34.3558 14.6516 34.403 15.4772C34.4501 16.3028 34.403 16.9516 34.403 20.6551V21.1623C34.403 21.2921 34.3322 21.3393 34.2614 21.3393H25.1794Z" fill="black"></path>
  <path fill-rule="evenodd" clip-rule="evenodd" d="M46.2215 24.9481C46.2215 27.1891 46.2215 29.1235 46.1036 30.1496C45.9974 30.8573 45.8795 31.3291 45.3959 31.4824C45.1057 31.5497 44.8091 31.5853 44.5112 31.5886C44.2164 31.5886 44.122 31.6593 44.122 31.7773C44.122 31.8952 44.2989 32.025 44.6174 32.025C45.5846 32.025 47.1297 31.9542 47.6841 31.9542C49.123 31.9542 50.7625 32.0958 54.4425 32.0958C55.3743 32.0958 55.622 32.0958 55.7636 31.4588C55.9319 30.5669 56.0383 29.6644 56.082 28.7578C56.082 28.5101 56.082 28.3096 55.8815 28.3096C55.681 28.3096 55.6692 28.4158 55.6102 28.6752C55.4451 29.6778 55.1502 30.1968 54.5133 30.4917C53.7744 30.7255 52.9987 30.8214 52.2251 30.7747C49.7364 30.7747 49.3471 30.4091 49.3 28.7342C49.3 28.0265 49.3 25.7737 49.3 24.9481V23.0255C49.3 22.8722 49.3 22.7778 49.4415 22.7778C50.0312 22.7778 52.4492 22.7778 52.9092 22.8486C53.8056 22.9429 54.0887 23.3086 54.2774 23.804C54.3278 24.0925 54.3594 24.3841 54.3718 24.6768C54.3718 24.8065 54.3718 24.9009 54.5959 24.9009C54.82 24.9009 54.8082 24.6296 54.8082 24.4409C54.8082 24.2522 54.8082 23.2614 54.9025 22.8014C54.9851 21.5629 55.103 21.1619 55.103 21.0204C55.103 20.8788 55.0323 20.8199 54.9379 20.8199C54.8436 20.8199 54.7138 20.9496 54.5369 21.1383C54.36 21.327 53.9589 21.4568 53.3574 21.504C52.7559 21.5511 49.9959 21.504 49.4533 21.504C49.3118 21.504 49.2882 21.3978 49.2882 21.2327V15.1701C49.2882 15.005 49.2882 14.9342 49.4533 14.9342C49.9487 14.9342 52.5082 14.9342 52.921 15.0286C54.1005 15.1701 54.3836 15.465 54.5605 15.9132C54.657 16.194 54.7049 16.4891 54.702 16.786C54.702 17.0101 54.702 17.1281 54.9261 17.1281C55.1502 17.1281 55.1384 16.9865 55.162 16.8568C55.1856 16.727 55.2682 15.4886 55.2918 15.2527C55.3625 14.1322 55.4805 13.8373 55.4805 13.6604C55.4805 13.4835 55.4805 13.4481 55.3389 13.4481C55.2065 13.467 55.0761 13.4986 54.9497 13.5424C54.6024 13.6073 54.252 13.6546 53.9 13.684C53.4282 13.684 48.5805 13.684 47.802 13.684C47.0236 13.684 45.5728 13.6132 44.2636 13.6132C43.8979 13.6132 43.721 13.6132 43.721 13.8373C43.721 14.0614 43.8743 14.0496 44.1338 14.0496C44.4544 14.0413 44.7748 14.069 45.0892 14.1322C45.8912 14.2973 46.0918 14.6865 46.1389 15.5122C46.1861 16.3378 46.1389 16.9865 46.1389 20.6901L46.2215 24.9481Z" fill="black"></path>
  <path fill-rule="evenodd" clip-rule="evenodd" d="M72.5596 24.9482C72.5596 27.1892 72.5596 29.1235 72.4299 30.1497C72.3355 30.8574 72.2175 31.3292 71.7222 31.4825C71.4362 31.5508 71.1434 31.5864 70.8493 31.5887C70.5545 31.5887 70.4601 31.6594 70.4601 31.7774C70.4601 31.8953 70.6252 32.0251 70.9437 32.0251C71.9227 32.0251 73.456 31.9543 74.0222 31.9543C74.5883 31.9543 76.1924 32.0251 77.8083 32.0251C78.0678 32.0251 78.2683 31.9543 78.2683 31.7774C78.2683 31.6005 78.1504 31.5887 77.8791 31.5887C77.4606 31.5777 77.0431 31.5423 76.6288 31.4825C75.8975 31.3882 75.756 30.8574 75.6852 30.1733C75.5555 29.1235 75.5555 27.1892 75.5555 24.9482V15.1702C75.5555 14.8989 75.6263 14.7456 75.756 14.6984C76.0647 14.6239 76.3822 14.5922 76.6996 14.6041C77.6057 14.5981 78.4796 14.9401 79.1411 15.5594C80.1297 16.511 80.655 17.8458 80.5801 19.2159C80.6993 21.2011 79.2805 22.9477 77.3129 23.2379C76.8057 23.2379 76.6288 23.3205 76.6288 23.5092C76.6288 23.6979 76.8057 23.7097 76.9237 23.7333C77.0965 23.7453 77.2699 23.7453 77.4427 23.7333C79.0355 23.8026 80.5856 23.2068 81.7219 22.0884C82.8582 20.97 83.4785 19.4296 83.4345 17.8359C83.4242 16.7539 83.0025 15.7165 82.255 14.9343C81.8658 14.5687 80.7688 13.5425 77.7139 13.5425C76.5345 13.5425 75.1781 13.6133 74.1755 13.6133C73.4914 13.6133 71.9581 13.5425 70.637 13.5425C70.2714 13.5425 70.1063 13.5425 70.1063 13.7666C70.1063 13.9907 70.2478 13.9789 70.5191 13.9789C70.8396 13.9706 71.1601 13.9983 71.4745 14.0615C72.2765 14.2266 72.477 14.6159 72.5242 15.4415C72.5714 16.2671 72.5242 16.9159 72.5242 20.6194L72.5596 24.9482Z" fill="black"></path>
  <path fill-rule="evenodd" clip-rule="evenodd" d="M88.7775 24.9481C88.7775 27.1891 88.7775 29.1235 88.6477 30.1496C88.5534 30.8573 88.4354 31.3291 87.9401 31.4824C87.6541 31.5507 87.3613 31.5863 87.0672 31.5886C86.7724 31.5886 86.678 31.6593 86.678 31.7773C86.678 31.8952 86.8431 32.025 87.1616 32.025C88.1406 32.025 89.6739 31.9542 90.2401 31.9542C91.679 31.9542 93.3067 32.0958 96.9985 32.0958C97.9185 32.0958 98.178 32.0958 98.3078 31.4588C98.4819 30.5678 98.5883 29.6649 98.6262 28.7578C98.6262 28.5101 98.6262 28.3096 98.4375 28.3096C98.2488 28.3096 98.2134 28.4158 98.1662 28.6752C97.9893 29.6778 97.7062 30.1968 97.0693 30.4917C96.3261 30.7246 95.5468 30.8205 94.7693 30.7747C92.2806 30.7747 91.8913 30.4091 91.8442 28.7342C91.8442 28.0265 91.8442 25.7737 91.8442 24.9481V23.0255C91.8442 22.8722 91.8442 22.7778 91.9975 22.7778C92.5754 22.7778 94.9934 22.7778 95.4534 22.8486C96.3616 22.9429 96.7036 23.3086 96.8216 23.804C96.872 24.0925 96.9036 24.3841 96.916 24.6768C96.9082 24.7383 96.9293 24.7999 96.9731 24.8437C97.0169 24.8876 97.0786 24.9087 97.1401 24.9009C97.3642 24.9009 97.3642 24.6296 97.3642 24.4409C97.3642 24.2522 97.3642 23.2614 97.4585 22.8014C97.4923 22.2045 97.5592 21.6099 97.659 21.0204C97.659 20.8788 97.5765 20.8199 97.4821 20.8199C97.3878 20.8199 97.258 20.9496 97.0929 21.1383C96.7601 21.4049 96.3386 21.5356 95.9134 21.504C95.3472 21.504 92.5401 21.504 92.0093 21.504C91.856 21.504 91.8324 21.3978 91.8324 21.2327V15.1701C91.8324 15.005 91.8324 14.9342 92.0093 14.9342C92.4929 14.9342 95.0524 14.9342 95.4652 15.0286C96.6447 15.1701 96.9395 15.465 97.1047 15.9132C97.2012 16.194 97.2491 16.4891 97.2462 16.786C97.2462 17.0101 97.2462 17.1281 97.4703 17.1281C97.6944 17.1281 97.6944 16.9865 97.718 16.8568C97.7416 16.727 97.8124 15.4886 97.836 15.2527C97.8734 14.7186 97.9403 14.187 98.0365 13.6604C98.0365 13.5424 98.0365 13.4481 97.8831 13.4481C97.751 13.4684 97.6207 13.5 97.4939 13.5424C97.1467 13.6082 96.7963 13.6554 96.4442 13.684C95.9842 13.684 91.1247 13.684 90.3462 13.684C89.5677 13.684 88.1288 13.6132 86.8077 13.6132C86.4421 13.6132 86.277 13.6132 86.277 13.8373C86.277 14.0614 86.4185 14.0496 86.6898 14.0496C87.0065 14.0406 87.3231 14.0683 87.6334 14.1322C88.4472 14.2973 88.636 14.6865 88.6831 15.5122C88.7303 16.3378 88.7421 16.9865 88.7421 20.6901L88.7775 24.9481Z" fill="black"></path>
  <path fill-rule="evenodd" clip-rule="evenodd" d="M106.257 18.4612H106.328C106.765 18.9212 109.477 21.9996 112.143 24.6063C114.809 27.213 117.793 30.315 119.338 31.7776C119.609 32.0489 119.892 32.3202 120.164 32.3202C120.435 32.3202 120.482 32.0961 120.482 31.5653L120.753 16.1612C120.753 14.8048 120.966 14.2858 121.65 14.0971C121.888 14.0315 122.134 14.0036 122.381 14.0145C122.676 14.0145 122.829 13.9438 122.829 13.8022C122.829 13.6607 122.581 13.5781 122.263 13.5781C121.084 13.5781 120.14 13.6489 119.904 13.6489C119.397 13.6489 118.229 13.5781 116.955 13.5781C116.59 13.5781 116.318 13.5781 116.318 13.8022C116.318 14.0263 116.413 14.0145 116.708 14.0145C117.146 13.991 117.585 14.0429 118.005 14.1679C118.595 14.4038 118.807 14.8755 118.831 16.3617L119.078 27.3191H118.96C118.536 26.9299 115.245 23.415 113.582 21.752C110.044 18.2135 106.316 14.2386 106.021 13.9202C105.727 13.6017 105.385 13.1653 105.125 13.1653C104.866 13.1653 104.807 13.5073 104.807 13.9909L104.582 28.4396C104.582 30.5627 104.465 31.2704 103.828 31.4591C103.47 31.5532 103.101 31.5969 102.731 31.5889C102.483 31.5889 102.341 31.5889 102.341 31.7776C102.341 31.9663 102.554 32.0253 102.872 32.0253C104.146 32.0253 105.231 31.9545 105.514 31.9545C105.974 31.9545 106.953 32.0253 108.534 32.0253C108.876 32.0253 109.1 32.0253 109.1 31.7776C109.1 31.5299 108.947 31.5889 108.687 31.5889C108.255 31.6039 107.824 31.5441 107.413 31.412C106.93 31.2468 106.611 30.6099 106.564 28.7109L106.257 18.4612Z" fill="black"></path>
  <path fill-rule="evenodd" clip-rule="evenodd" d="M128.974 24.948C128.974 27.307 128.974 29.2414 128.844 30.2675C128.774 30.9752 128.632 31.447 128.137 31.447C127.851 31.5153 127.558 31.5509 127.264 31.5532C126.969 31.5532 126.875 31.6239 126.875 31.7419C126.875 31.8598 127.04 31.9896 127.358 31.9896C128.337 31.9896 129.871 31.9188 130.437 31.9188C131.003 31.9188 132.631 31.9896 134.247 31.9896C134.506 31.9896 134.707 31.9188 134.707 31.7419C134.707 31.565 134.589 31.5532 134.317 31.5532C133.899 31.5422 133.481 31.5068 133.067 31.447C132.336 31.3527 132.171 30.9162 132.1 30.2675C131.994 29.2178 131.994 27.2952 131.994 24.9245V20.6311C131.994 16.9275 131.994 16.2434 131.994 15.4532C131.994 14.6629 132.241 14.1911 132.902 14.0732C133.142 14.0192 133.387 13.9915 133.633 13.9906C133.881 13.9906 134.022 13.9906 134.022 13.7547C134.022 13.5188 133.834 13.5542 133.515 13.5542C132.583 13.5542 131.156 13.625 130.531 13.625C129.906 13.625 128.29 13.5542 127.358 13.5542C126.969 13.5542 126.78 13.5542 126.78 13.7547C126.78 13.9552 126.922 13.9906 127.17 13.9906C127.464 13.983 127.758 14.0188 128.042 14.0968C128.585 14.2147 128.833 14.6275 128.88 15.4532C128.927 16.2788 128.88 16.9275 128.88 20.6311L128.974 24.948Z" fill="black"></path>
  <path fill-rule="evenodd" clip-rule="evenodd" d="M141.831 18.4612H141.913C142.35 18.9212 145.063 21.9996 147.716 24.6063C150.37 27.213 153.378 30.315 154.911 31.7776C155.183 32.0489 155.478 32.3202 155.749 32.3202C156.02 32.3202 156.055 32.0961 156.055 31.5653L156.327 16.1612C156.327 14.8048 156.551 14.2858 157.235 14.0971C157.473 14.0315 157.72 14.0036 157.966 14.0145C158.261 14.0145 158.403 13.9438 158.403 13.8022C158.403 13.6607 158.155 13.5781 157.836 13.5781C156.657 13.5781 155.725 13.6489 155.478 13.6489C154.959 13.6489 153.791 13.5781 152.517 13.5781C152.151 13.5781 151.892 13.5781 151.892 13.8022C151.892 14.0263 151.986 14.0145 152.281 14.0145C152.715 13.991 153.15 14.0428 153.567 14.1679C154.156 14.4038 154.381 14.8755 154.404 16.3617L154.64 27.3191H154.522C154.109 26.9299 150.819 23.415 149.155 21.752C145.617 18.2135 141.89 14.2386 141.595 13.9202C141.3 13.6017 140.958 13.1653 140.687 13.1653C140.415 13.1653 140.368 13.5073 140.368 13.9909L140.156 28.4396C140.156 30.5627 140.026 31.2704 139.401 31.4591C139.039 31.5533 138.666 31.5969 138.292 31.5889C138.056 31.5889 137.903 31.5889 137.903 31.7776C137.903 31.9663 138.127 32.0253 138.446 32.0253C139.708 32.0253 140.805 31.9545 141.076 31.9545C141.548 31.9545 142.515 32.0253 144.107 32.0253C144.449 32.0253 144.662 32.0253 144.662 31.7776C144.662 31.5299 144.52 31.5889 144.249 31.5889C143.821 31.604 143.394 31.5441 142.987 31.412C142.491 31.2468 142.173 30.6099 142.126 28.7109L141.831 18.4612Z" fill="black"></path>
  <path fill-rule="evenodd" clip-rule="evenodd" d="M166.293 32.3669C167.656 32.4136 169.004 32.0655 170.174 31.3643C171.653 30.4631 172.549 28.8502 172.533 27.1182C172.533 24.7592 171.46 23.1669 168.523 20.9023L167.838 20.3833C165.822 18.85 165.255 18.0243 165.255 16.8448C165.266 16.1119 165.589 15.4184 166.143 14.9386C166.697 14.4588 167.43 14.2383 168.157 14.3325C169.187 14.2535 170.188 14.6964 170.823 15.512C171.188 15.9723 171.41 16.5304 171.46 17.1161C171.46 17.411 171.53 17.5525 171.695 17.5525C171.861 17.5525 171.967 17.3638 171.967 16.8213C171.967 14.9223 172.061 14.2146 172.061 13.8961C172.061 13.5777 171.943 13.6484 171.719 13.6013C170.662 13.3157 169.57 13.1767 168.475 13.1884C165.09 13.1884 162.837 15.1228 162.837 17.8002C162.837 19.7818 163.769 21.4802 166.447 23.5797L167.626 24.4643C169.643 26.0213 169.985 27.1654 169.985 28.3684C169.938 29.1773 169.562 29.9319 168.946 30.4574C168.329 30.9829 167.524 31.2338 166.718 31.152C165.099 31.29 163.611 30.2537 163.18 28.6869C163.06 28.2799 162.989 27.8603 162.967 27.4366C162.967 27.2479 162.967 27.0238 162.72 27.0238C162.472 27.0238 162.448 27.2951 162.425 27.6607C162.401 28.0264 162.307 29.5125 162.307 30.8571C162.307 31.3879 162.377 31.5177 162.767 31.6828C163.88 32.1594 165.082 32.3926 166.293 32.3669Z" fill="black"></path>
  <path fill-rule="evenodd" clip-rule="evenodd" d="M178.442 24.2172C178.442 27.7557 179.362 29.5603 180.612 30.6808C182.142 31.9016 184.074 32.5035 186.026 32.3675C187.879 32.4469 189.692 31.8186 191.098 30.61C193.15 28.8526 193.457 25.9746 193.457 23.2618V20.6551C193.457 16.9516 193.457 16.2675 193.457 15.4772C193.457 14.6869 193.693 14.2151 194.353 14.0972C194.585 14.0427 194.823 14.015 195.061 14.0146C195.356 14.0146 195.509 14.0146 195.509 13.8023C195.509 13.59 195.332 13.5782 194.99 13.5782C194.035 13.5782 192.502 13.649 192.207 13.649C192.207 13.649 190.65 13.5782 189.4 13.5782C189.057 13.5782 188.892 13.5782 188.892 13.8023C188.892 14.0264 189.034 14.0146 189.305 14.0146C189.602 14.0095 189.899 14.0372 190.19 14.0972C190.992 14.2623 191.181 14.6516 191.24 15.4772C191.298 16.3028 191.24 16.9516 191.24 20.6551V23.71C191.24 26.2223 191.157 28.428 189.824 29.749C188.916 30.6141 187.705 31.0884 186.451 31.07C185.348 31.1222 184.264 30.7652 183.408 30.0675C182.228 29.1003 181.497 27.6023 181.497 24.0757V20.6551C181.497 16.9516 181.497 16.2675 181.497 15.4772C181.497 14.6869 181.745 14.2151 182.405 14.0972C182.637 14.0421 182.875 14.0144 183.113 14.0146C183.361 14.0146 183.502 14.0146 183.502 13.8023C183.502 13.59 183.337 13.5782 182.971 13.5782C182.087 13.5782 180.612 13.649 179.964 13.649C179.315 13.649 177.699 13.5782 176.425 13.5782C176.06 13.5782 175.894 13.5782 175.894 13.8023C175.894 14.0264 176.036 14.0146 176.307 14.0146C176.624 14.0057 176.941 14.0334 177.251 14.0972C178.065 14.2623 178.253 14.6516 178.301 15.4772C178.348 16.3028 178.36 16.9516 178.36 20.6551L178.442 24.2172Z" fill="black"></path>
  <path fill-rule="evenodd" clip-rule="evenodd" d="M203.553 20.6551C203.553 16.9516 203.553 16.2675 203.553 15.4772C203.553 14.6869 203.801 14.2151 204.461 14.0972C204.777 14.0415 205.097 14.0138 205.417 14.0146C205.7 14.0146 205.853 14.0146 205.853 13.8023C205.853 13.59 205.676 13.5782 205.334 13.5782C204.391 13.5782 202.61 13.649 202.02 13.649C201.43 13.649 199.826 13.5782 198.682 13.5782C198.316 13.5782 198.139 13.5782 198.139 13.8023C198.139 14.0264 198.293 14.0146 198.552 14.0146C198.826 14.0065 199.1 14.0343 199.366 14.0972C200.168 14.2623 200.357 14.6516 200.416 15.4772C200.475 16.3028 200.416 16.9516 200.416 20.6551V24.9485C200.416 27.1895 200.416 29.1239 200.286 30.15C200.192 30.8577 200.074 31.3295 199.578 31.4828C199.292 31.5511 199 31.5867 198.706 31.589C198.411 31.589 198.316 31.6598 198.316 31.7777C198.316 31.8957 198.481 32.0254 198.8 32.0254C199.779 32.0254 201.312 31.9546 201.878 31.9546C203.848 31.9546 205.417 32.0962 208.955 32.0962C210.217 32.0962 210.347 31.9782 210.489 31.4357C210.682 30.5106 210.804 29.5722 210.854 28.6285C210.854 28.3454 210.854 28.2157 210.666 28.2157C210.477 28.2157 210.418 28.369 210.394 28.5813C210.318 29.1174 210.098 29.6229 209.757 30.0439C209.144 30.7044 208.2 30.728 206.903 30.728C205.004 30.728 204.367 30.5628 203.954 30.1972C203.541 29.8316 203.435 28.0741 203.435 24.9485L203.553 20.6551Z" fill="black"></path>
  <path fill-rule="evenodd" clip-rule="evenodd" d="M222.897 25.6559C223.008 25.6453 223.112 25.7143 223.145 25.821L225.091 30.999C225.146 31.101 225.154 31.2218 225.113 31.3303C225.073 31.4389 224.987 31.5245 224.878 31.5651C224.631 31.5651 224.536 31.6359 224.536 31.7774C224.536 31.919 224.831 31.9544 225.268 31.9779C227.214 31.9779 228.995 31.9779 229.879 31.9779C230.764 31.9779 231 31.9779 231 31.7303C231 31.4826 230.882 31.5415 230.682 31.5415C230.337 31.5438 229.993 31.5082 229.655 31.4354C229.148 31.3174 228.476 30.9754 227.509 28.7815C225.952 25.0662 222.048 15.1231 221.458 13.7785C221.21 13.2123 221.069 13 220.845 13C220.621 13 220.455 13.2595 220.172 13.9672L214.039 29.3005C213.555 30.48 213.095 31.3528 211.963 31.4944C211.712 31.5133 211.459 31.5133 211.208 31.4944C211.019 31.4944 210.925 31.4944 210.925 31.6831C210.925 31.8718 211.067 31.9308 211.385 31.9308C212.647 31.9308 213.992 31.86 214.263 31.86C215.018 31.86 216.068 31.9308 216.846 31.9308C217.117 31.9308 217.259 31.9308 217.259 31.6831C217.259 31.4354 217.188 31.4944 216.893 31.4944H216.528C215.773 31.4944 215.561 31.1759 215.561 30.7395C215.599 30.2235 215.723 29.7174 215.926 29.2415L217.235 25.7031C217.235 25.5497 217.342 25.5026 217.459 25.5026L222.897 25.6559ZM217.943 24.4764C217.849 24.4764 217.825 24.3938 217.849 24.2995L220.09 18.2959C220.09 18.2015 220.172 18.0836 220.243 18.0836C220.314 18.0836 220.337 18.2015 220.361 18.2959L222.555 24.3231C222.555 24.3938 222.555 24.4764 222.437 24.4764H217.943Z" fill="black"></path>
  <path d="M230.894 40.8596H1V42.0391H230.894V40.8596Z" fill="black"></path>
  <path fill-rule="evenodd" clip-rule="evenodd" d="M53.5814 52.8077C53.8055 53.0436 55.1619 54.5651 56.4948 55.8743C57.8276 57.1836 59.3137 58.7287 60.0922 59.4128C60.2219 59.5425 60.3635 59.6723 60.505 59.6723C60.6466 59.6723 60.6583 59.5661 60.6583 59.2949L60.7999 51.6046C60.7999 50.9205 60.906 50.661 61.2481 50.5666C61.3694 50.5503 61.4924 50.5503 61.6137 50.5666C61.7553 50.5666 61.8378 50.5666 61.8378 50.4487C61.8378 50.3307 61.7081 50.3425 61.5548 50.3425C60.9532 50.3425 60.4932 50.3425 60.3753 50.3425C60.2573 50.3425 59.5378 50.3425 58.9009 50.3425C58.724 50.3425 58.5824 50.3425 58.5824 50.4487C58.5824 50.5549 58.5825 50.5666 58.783 50.5666C59.0016 50.5563 59.2205 50.5802 59.4317 50.6374C59.7266 50.7554 59.8327 50.9913 59.8445 51.7343L59.9625 57.2072H59.9035C59.6912 57.0184 58.0517 55.261 57.226 54.4236C55.4332 52.6661 53.5814 50.6728 53.4399 50.5195C53.2983 50.3661 53.1214 50.1302 52.9917 50.1302C52.8619 50.1302 52.8266 50.3072 52.8266 50.5549L52.7204 57.7733C52.7204 58.8349 52.6614 59.1887 52.343 59.2831C52.1613 59.3254 51.9751 59.3452 51.7886 59.342C51.6707 59.342 51.5999 59.342 51.5999 59.4482C51.5999 59.5543 51.706 59.5661 51.8594 59.5661C52.4963 59.5661 53.0389 59.5661 53.1804 59.5661C53.3219 59.5661 53.8999 59.5661 54.6901 59.5661C54.8671 59.5661 54.9732 59.5661 54.9732 59.4482C54.9732 59.3302 54.9024 59.342 54.7727 59.342C54.5573 59.3495 54.3421 59.3216 54.1358 59.2595C53.8881 59.1769 53.7348 58.8584 53.7112 57.9031L53.5814 52.8077Z" fill="black"></path>
  <path fill-rule="evenodd" clip-rule="evenodd" d="M72.4533 56.0511C72.4533 57.2306 72.4533 58.1388 72.4533 58.646C72.4533 59.1532 72.3354 59.2711 72.0995 59.3183C71.9505 59.3338 71.8003 59.3338 71.6513 59.3183C71.5097 59.3183 71.4625 59.3183 71.4625 59.4245C71.4625 59.5306 71.5451 59.5424 71.6984 59.5424H73.2436C73.963 59.5424 74.7769 59.6132 76.6169 59.6132C77.0887 59.6132 77.1948 59.6132 77.2774 59.2947C77.3636 58.8469 77.4187 58.3937 77.4425 57.9383C77.4425 57.8204 77.4425 57.726 77.3364 57.726C77.2302 57.726 77.2302 57.726 77.2066 57.9029C77.1241 58.4101 76.9707 58.6578 76.6523 58.8111C76.2717 58.9327 75.8714 58.9807 75.4728 58.9527C74.2933 58.9527 74.0338 58.7757 74.0102 57.9265C74.0102 57.5727 74.0102 56.4522 74.0102 56.0393V55.0722C74.0102 55.0014 74.0102 54.9542 74.081 54.9542C74.3759 54.9542 75.5789 54.9542 75.8148 54.9542C76.263 54.9542 76.44 55.1901 76.4989 55.426C76.5087 55.5752 76.5087 55.725 76.4989 55.8742C76.4989 55.9332 76.4989 55.9804 76.6169 55.9804C76.7348 55.9804 76.723 55.8506 76.723 55.7445C76.723 55.6383 76.723 55.1783 76.723 54.9306C76.723 54.3055 76.8174 54.1168 76.8174 54.0342C76.8174 53.9516 76.8174 53.9398 76.7348 53.9398C76.6523 53.9398 76.6287 53.9988 76.5343 54.105C76.44 54.2111 76.2512 54.2583 75.9564 54.2819C75.6615 54.3055 74.2697 54.2819 73.9984 54.2819C73.9277 54.2819 73.9159 54.2819 73.9159 54.1522V51.0619C73.9159 50.9793 73.9159 50.9439 73.9984 50.9439C74.2461 50.9439 75.5318 50.9439 75.7323 50.9439C76.3456 51.0147 76.4636 51.1681 76.5461 51.3804C76.601 51.5193 76.6291 51.6674 76.6287 51.8168C76.6287 51.9347 76.6287 51.9937 76.7348 51.9937C76.841 51.9937 76.841 51.9229 76.8528 51.8639C76.8646 51.805 76.8528 51.1798 76.9236 51.0501C76.9236 50.4957 77.0179 50.3424 77.0179 50.2598C77.0179 50.1773 77.0179 50.1537 76.9471 50.1537C76.8805 50.147 76.8133 50.147 76.7466 50.1537L76.2277 50.2245H73.1728C72.8307 50.2245 72.0641 50.2245 71.4154 50.2245C71.2384 50.2245 71.1441 50.2245 71.1441 50.3306C71.1441 50.4368 71.2148 50.4486 71.3564 50.4486C71.5133 50.434 71.6712 50.434 71.8282 50.4486C72.2292 50.5311 72.3354 50.7316 72.3589 51.1445C72.3825 51.5573 72.3589 51.8757 72.3589 53.7275L72.4533 56.0511Z" fill="black"></path>
  <path fill-rule="evenodd" clip-rule="evenodd" d="M89.4027 59.3069C89.497 59.6254 89.556 59.7551 89.6857 59.7551C89.8155 59.7551 89.8862 59.6136 90.1221 59.1182C90.6529 57.9387 92.2688 53.669 92.4811 53.0556L95.017 59.1654C95.1939 59.6136 95.2765 59.7551 95.3945 59.7551C95.5124 59.7551 95.6186 59.6136 95.7483 59.189C96.3498 57.3607 97.6237 53.4802 98.1898 51.9351C98.4493 51.2392 98.5791 50.7556 98.8739 50.6495C99.0115 50.6076 99.1548 50.5877 99.2986 50.5905C99.4047 50.5905 99.4637 50.5905 99.4637 50.4608C99.4637 50.331 99.3811 50.3664 99.2514 50.3664C98.8504 50.3664 98.3196 50.3664 98.237 50.3664C98.1545 50.3664 97.6119 50.3664 96.9632 50.3664C96.7862 50.3664 96.6919 50.3664 96.6919 50.4725C96.6919 50.5787 96.7745 50.5905 96.8924 50.5905C97.376 50.5905 97.4821 50.7556 97.4821 50.9561C97.4742 51.1962 97.4345 51.4342 97.3642 51.6638C96.9278 53.091 95.9606 56.311 95.7365 57.1249L93.2006 50.9915C93.0355 50.6023 92.9765 50.4136 92.8468 50.4136C92.717 50.4136 92.6698 50.5079 92.5401 50.85L90.1811 57.2074C89.957 56.5233 88.8247 52.8315 88.6242 52.0295C88.5021 51.6443 88.4114 51.2498 88.3529 50.85C88.3529 50.7084 88.3529 50.6259 88.4827 50.5787C88.5836 50.5559 88.6884 50.5559 88.7893 50.5787C88.9191 50.5787 89.0134 50.5787 89.0134 50.4608C89.0134 50.3428 88.9309 50.3546 88.7539 50.3546C88.0462 50.3546 87.5745 50.3546 87.3975 50.3546C87.2206 50.3546 86.6191 50.3546 85.9821 50.3546C85.817 50.3546 85.7227 50.3546 85.7227 50.4608C85.7227 50.5669 85.7934 50.5787 85.9114 50.5787C86.0786 50.5768 86.244 50.6131 86.395 50.6849C86.6265 50.9227 86.786 51.2212 86.855 51.5459L89.4027 59.3069Z" fill="black"></path>
  <path fill-rule="evenodd" clip-rule="evenodd" d="M121.768 57.4311C121.768 57.6198 121.768 58.1388 121.768 58.6106C121.768 59.0823 121.638 59.2357 121.39 59.2829C121.249 59.2978 121.107 59.2978 120.966 59.2829C120.836 59.2829 120.765 59.2829 120.765 59.389C120.765 59.4952 120.871 59.507 121.037 59.507H122.558C122.888 59.507 123.667 59.507 124.433 59.507C124.587 59.507 124.681 59.507 124.681 59.389C124.681 59.2711 124.681 59.2829 124.492 59.2829C124.288 59.2946 124.083 59.2946 123.879 59.2829C123.513 59.2829 123.407 58.9644 123.384 58.6106C123.36 58.2567 123.384 57.5844 123.384 57.4311V56.4521C123.363 56.051 123.423 55.6499 123.561 55.2726C124.271 53.9343 125.058 52.6386 125.92 51.3921C126.082 51.1362 126.31 50.9285 126.58 50.7905C126.745 50.7067 126.926 50.6585 127.111 50.649C127.241 50.649 127.347 50.649 127.347 50.5193C127.347 50.3895 127.252 50.4249 127.123 50.4249H125.813C125.46 50.4249 125.07 50.4249 124.634 50.4249C124.492 50.4249 124.433 50.4249 124.433 50.5311C124.433 50.6372 124.54 50.6372 124.646 50.6608C124.721 50.6668 124.791 50.7026 124.839 50.7601C124.888 50.8177 124.912 50.8923 124.905 50.9675C124.894 51.1865 124.834 51.4003 124.728 51.5926C124.563 51.97 123.03 54.6593 122.9 54.9541C122.711 54.6121 121.001 51.6752 120.824 51.2977C120.749 51.1714 120.701 51.0308 120.683 50.8849C120.681 50.7802 120.756 50.69 120.86 50.6726C121.037 50.6726 121.119 50.6726 121.119 50.5311C121.119 50.3895 121.06 50.4249 120.942 50.4249C120.388 50.4249 119.892 50.4249 119.633 50.4249H118.1C117.946 50.4249 117.864 50.4249 117.864 50.5311C117.864 50.6372 117.946 50.649 118.052 50.649C118.23 50.6633 118.403 50.7156 118.56 50.8023C118.904 51.033 119.19 51.3397 119.397 51.6988C119.833 52.3239 121.461 55.0131 121.555 55.2372C121.751 55.6366 121.845 56.0784 121.827 56.5229L121.768 57.4311Z" fill="black"></path>
  <path fill-rule="evenodd" clip-rule="evenodd" d="M139.79 59.7547C141.14 59.8185 142.454 59.3137 143.413 58.3631C144.373 57.4126 144.89 56.1034 144.839 54.7537C144.839 51.9701 142.951 50.2009 139.908 50.2009C138.603 50.1126 137.319 50.5704 136.364 51.4649C135.41 52.3595 134.869 53.6104 134.872 54.9189C134.816 56.2323 135.319 57.5078 136.257 58.4295C137.194 59.3511 138.478 59.8327 139.79 59.7547ZM140.298 59.1532C137.939 59.1532 136.559 57.1363 136.559 54.6004C136.559 51.5573 138.151 50.7789 139.555 50.7789C141.56 50.7789 143.093 52.4773 143.093 55.2137C143.128 58.7286 141.147 59.1532 140.298 59.1532Z" fill="black"></path>
  <path fill-rule="evenodd" clip-rule="evenodd" d="M155.124 56.051C155.124 57.2305 155.124 58.1387 155.065 58.6459C155.006 59.1531 154.959 59.271 154.711 59.3182C154.566 59.3338 154.42 59.3338 154.275 59.3182C154.121 59.3182 154.074 59.3182 154.074 59.4244C154.074 59.5305 154.168 59.5423 154.322 59.5423H155.808C155.997 59.5423 156.893 59.5423 157.601 59.5423C157.766 59.5423 157.848 59.5423 157.848 59.4244C157.848 59.3064 157.848 59.3182 157.695 59.3182H157.105C156.74 59.3182 156.669 58.9998 156.622 58.6459C156.575 58.2921 156.563 57.1716 156.563 56.0393V55.8623C156.563 55.7916 156.563 55.768 156.669 55.768H157.73C157.81 55.7594 157.89 55.7902 157.943 55.8505C158.108 56.0393 158.662 56.8649 159.122 57.5372C159.543 58.2464 160.11 58.8576 160.785 59.33C161.191 59.5289 161.645 59.6106 162.095 59.5659H163.274C163.427 59.5659 163.51 59.5659 163.51 59.448C163.51 59.33 163.51 59.3418 163.357 59.3418H163.015C162.481 59.2316 162.001 58.9399 161.658 58.5162C160.939 57.7613 160.089 56.6762 159.004 55.308C159.961 54.7181 160.566 53.6943 160.62 52.5716C160.614 51.9141 160.305 51.2962 159.783 50.8967C159.105 50.5019 158.324 50.321 157.542 50.3777H155.82C155.56 50.3777 154.793 50.3777 154.157 50.3777C153.968 50.3777 153.885 50.3777 153.885 50.4839C153.885 50.59 153.956 50.6018 154.086 50.6018C154.247 50.5874 154.409 50.5874 154.569 50.6018C154.97 50.6844 155.065 50.8849 155.088 51.2977C155.112 51.7105 155.088 52.029 155.088 53.8808L155.124 56.051ZM156.563 51.1562C156.563 51.0618 156.563 51.0146 156.681 50.991C156.892 50.9659 157.106 50.9659 157.318 50.991C157.873 51.0091 158.395 51.2623 158.752 51.6875C159.11 52.1128 159.27 52.67 159.193 53.2203C159.262 53.9101 158.994 54.591 158.473 55.0485C158.218 55.2239 157.908 55.2995 157.601 55.2608C157.289 55.2683 156.978 55.2245 156.681 55.131C156.586 55.131 156.563 55.0485 156.563 54.9187V51.1562Z" fill="black"></path>
  <path fill-rule="evenodd" clip-rule="evenodd" d="M173.323 53.9046C173.323 52.0528 173.323 51.7107 173.323 51.3215C173.323 50.9322 173.441 50.6846 173.771 50.6256C173.885 50.6157 174 50.6157 174.113 50.6256C174.22 50.6256 174.29 50.6256 174.29 50.5076C174.29 50.3897 174.208 50.4015 174.031 50.4015H172.556C172.262 50.4015 171.495 50.4015 170.846 50.4015C170.669 50.4015 170.575 50.4015 170.575 50.5076C170.575 50.6138 170.657 50.6256 170.787 50.6256C170.944 50.6111 171.102 50.6111 171.259 50.6256C171.66 50.7081 171.766 50.9087 171.79 51.3215C171.813 51.7343 171.79 52.0528 171.79 53.9046V56.0512C171.79 57.2307 171.79 58.1389 171.731 58.6461C171.672 59.1533 171.613 59.2712 171.377 59.3184C171.228 59.3339 171.078 59.3339 170.929 59.3184C170.787 59.3184 170.74 59.3184 170.74 59.4246C170.74 59.5307 170.823 59.5425 170.988 59.5425H172.521C172.828 59.5425 173.594 59.5425 174.278 59.5425C174.408 59.5425 174.503 59.5425 174.503 59.4246C174.503 59.3066 174.503 59.3184 174.349 59.3184C174.149 59.3292 173.948 59.3292 173.748 59.3184C173.453 59.3184 173.335 58.9999 173.311 58.6579C173.311 58.1389 173.311 57.1717 173.311 56.0512V54.9425H173.37L173.512 55.1194C173.76 55.4733 176.166 58.2922 176.708 58.7758C177.095 59.2182 177.634 59.5 178.218 59.5661C178.477 59.5661 178.69 59.5661 179.055 59.5661H180.117C180.353 59.5661 180.412 59.5661 180.412 59.4481C180.412 59.3302 180.341 59.342 180.258 59.342C179.994 59.3297 179.735 59.2698 179.492 59.1651C178.835 58.8394 178.246 58.391 177.758 57.844C177.274 57.3958 174.88 54.8246 174.444 54.2466C174.856 53.8102 176.708 51.982 177.086 51.6164C177.45 51.2179 177.897 50.9039 178.395 50.6963C178.623 50.6194 178.862 50.5757 179.103 50.5666C179.232 50.5666 179.291 50.5666 179.291 50.4487C179.291 50.3307 179.209 50.3425 179.079 50.3425H176.402C176.26 50.3425 176.201 50.3425 176.201 50.4487C176.201 50.5548 176.201 50.5548 176.366 50.5784C176.531 50.602 176.531 50.6846 176.531 50.8143C176.531 50.944 176.26 51.3333 175.918 51.7343C175.576 52.1353 173.783 53.9635 173.37 54.4117H173.311L173.323 53.9046Z" fill="black"></path>
</svg>
