<?xml version="1.0" encoding="UTF-8"?>
<svg xmlns="http://www.w3.org/2000/svg" width="160" height="60" viewBox="0 0 160 60" fill="none">
  <path fill-rule="evenodd" clip-rule="evenodd" d="M16 6H63.0822V53.0822H16V6ZM41.442 16.2011C45.9433 16.2011 49.7423 18.7823 49.7423 24.2607C49.7423 28.5384 47.5645 31.0705 44.0615 31.9836L49.3447 42.8811H44.8832L39.7457 32.3259H33.9192V42.8811H30.1247V28.4295H41.442C44.0262 28.4295 45.9277 27.1597 45.9277 24.2607C45.9277 21.4804 43.944 20.092 41.3245 20.092H30.1247V16.2011H41.442Z" fill="#003C75"></path>
  <path d="M79.3069 26.4022H81.1148L79.2362 23.1112L78.4029 22.1083C79.9848 21.8682 80.9736 20.823 80.9736 19.3258C80.9736 17.6308 79.6882 16.515 77.6825 16.515H73.77V26.4022H75.2531V22.1648H77.174L79.3069 26.4022ZM75.2531 17.8427H77.7108C78.9396 17.8427 79.4199 18.2664 79.4199 19.3399C79.4199 20.4275 78.9396 20.8654 77.7108 20.8654H75.2531V17.8427Z" fill="#003C75"></path>
  <path d="M88.4305 22.871C88.4305 20.7947 87.1169 19.4811 85.2242 19.4811C83.275 19.4811 81.8907 20.9077 81.8907 23.0264C81.8907 25.1592 83.2326 26.5434 85.2948 26.5434C86.679 26.5434 87.7949 25.9784 88.2751 24.792L86.9756 24.2694C86.6649 25.0745 86.2553 25.3287 85.3089 25.3287C84.0377 25.3287 83.4727 24.7778 83.3597 23.4642H88.4163C88.4305 23.1959 88.4305 23.0829 88.4305 22.871ZM85.2383 20.6676C86.4106 20.6676 86.9332 21.1478 86.9897 22.4049H83.3738C83.5151 21.2184 84.1083 20.6676 85.2383 20.6676Z" fill="#003C75"></path>
  <path d="M94.5355 19.6224L93.0524 23.888L92.544 25.4841L92.0637 23.9022L90.5947 19.6224H88.9987L91.9507 27.2638L91.979 27.2356L91.8942 27.5181H89.4365V28.8034H90.8914C92.1343 28.8034 92.6711 28.3938 93.0807 27.3627L96.1316 19.6224H94.5355Z" fill="#003C75"></path>
  <path d="M101.234 19.4811C99.9058 19.4811 99.1855 20.1732 98.8606 21.2608V19.6223H97.4199V26.4022H98.8606V23.21C98.8606 21.6422 99.5951 20.7947 100.739 20.7947C101.657 20.7947 102.222 21.3173 102.222 22.3343V26.4022H103.663V22.2354C103.663 20.4416 102.83 19.4811 101.234 19.4811Z" fill="#003C75"></path>
  <path d="M110.894 19.6223V21.0489C110.428 20.0461 109.553 19.4811 108.394 19.4811C106.487 19.4811 105.287 20.8936 105.287 23.0123C105.287 25.131 106.502 26.5434 108.451 26.5434C109.581 26.5434 110.428 25.9784 110.894 25.0038V26.4022H112.335V19.6223H110.894ZM108.846 25.2298C107.349 25.2298 106.742 24.5942 106.742 23.0123C106.742 21.4303 107.349 20.7947 108.846 20.7947C110.343 20.7947 110.965 21.4303 110.965 23.0123C110.965 24.5942 110.343 25.2298 108.846 25.2298Z" fill="#003C75"></path>
  <path d="M120.572 22.871C120.572 20.7947 119.257 19.4811 117.365 19.4811C115.416 19.4811 114.032 20.9077 114.032 23.0264C114.032 25.1592 115.373 26.5434 117.436 26.5434C118.82 26.5434 119.936 25.9784 120.416 24.792L119.116 24.2694C118.806 25.0745 118.396 25.3287 117.45 25.3287C116.178 25.3287 115.613 24.7779 115.501 23.4643H120.557C120.572 23.1959 120.572 23.0829 120.572 22.871ZM117.379 20.6676C118.551 20.6676 119.074 21.1478 119.131 22.4049H115.514C115.656 21.2184 116.249 20.6676 117.379 20.6676Z" fill="#003C75"></path>
  <path d="M125.783 19.4952C124.427 19.4952 123.891 20.5122 123.679 21.5998V19.6224H122.238V26.4022H123.679V23.4643C123.679 21.8682 124.385 20.8371 125.67 20.8371C126.179 20.8371 126.391 20.9218 126.588 21.0066V19.6082C126.376 19.5094 126.08 19.4952 125.783 19.4952Z" fill="#003C75"></path>
  <path d="M130.208 26.5434C131.96 26.5434 133.047 25.7101 133.047 24.3824C133.047 23.2948 132.355 22.7015 131.296 22.5179L129.756 22.2495C129.107 22.1507 128.923 21.9105 128.923 21.4444C128.923 20.8794 129.304 20.6111 130.124 20.6111C130.928 20.6111 131.366 20.8088 131.493 21.8823L132.905 21.5433C132.651 20.1167 131.649 19.4811 130.067 19.4811C128.471 19.4811 127.467 20.2721 127.467 21.5292C127.467 22.7439 128.287 23.323 129.374 23.5066L130.603 23.7326C131.409 23.8739 131.607 24.0716 131.607 24.5801C131.607 25.131 131.197 25.3852 130.307 25.3852C129.361 25.3852 128.852 25.0745 128.711 24.0857L127.284 24.4953C127.524 25.7383 128.597 26.5434 130.208 26.5434Z" fill="#003C75"></path>
  <path d="M80.719 42.8811H82.3574L78.572 32.9938H76.4816L72.682 42.8811H74.3064L75.2669 40.2963H79.7585L80.719 42.8811ZM75.7753 38.9686L76.9336 35.8611L77.5268 34.1521L78.1059 35.8611L79.2641 38.9686H75.7753Z" fill="#003C75"></path>
  <path d="M83.6418 42.8811H85.0825V32.9938H83.6418V42.8811Z" fill="#003C75"></path>
  <path d="M92.0422 36.1012V39.2934C92.0422 40.8612 91.3077 41.7087 90.1636 41.7087C89.2455 41.7087 88.6805 41.1861 88.6805 40.1691V36.1012H87.2398V40.268C87.2398 42.0618 88.0732 43.0223 89.6693 43.0223C90.997 43.0223 91.7173 42.3302 92.0422 41.2426V42.881H93.4829V36.1012H92.0422Z" fill="#003C75"></path>
  <path d="M104.3 35.96C103.057 35.96 102.238 36.5956 101.843 37.782C101.588 36.5956 100.797 35.96 99.498 35.96C98.1703 35.96 97.4499 36.6521 97.1251 37.7397V36.1012H95.6844V42.881H97.1251V39.6889C97.1251 38.121 97.8596 37.2735 99.0037 37.2735C99.9218 37.2735 100.487 37.7962 100.487 38.8131V42.881H101.927V40.042C101.927 38.234 102.535 37.2735 103.82 37.2735C104.738 37.2735 105.289 37.8103 105.289 38.8696V42.881H106.73V38.7849C106.73 36.9487 105.896 35.96 104.3 35.96Z" fill="#003C75"></path>
  <path d="M109.605 34.7028C110.254 34.7028 110.607 34.3497 110.593 33.7283C110.579 33.1209 110.226 32.796 109.605 32.796C108.969 32.796 108.602 33.1209 108.616 33.7283C108.63 34.3497 108.983 34.7028 109.605 34.7028ZM108.87 42.881H110.311V36.1012H108.87V42.881Z" fill="#003C75"></path>
  <path d="M116.337 35.96C115.01 35.96 114.289 36.6521 113.965 37.7397V36.1012H112.524V42.881H113.965V39.6889C113.965 38.121 114.699 37.2735 115.843 37.2735C116.761 37.2735 117.326 37.7962 117.326 38.8131V42.881H118.767V38.7143C118.767 36.9204 117.934 35.96 116.337 35.96Z" fill="#003C75"></path>
  <path d="M121.65 34.7028C122.3 34.7028 122.653 34.3497 122.638 33.7283C122.625 33.1209 122.271 32.796 121.65 32.796C121.014 32.796 120.647 33.1209 120.661 33.7283C120.676 34.3497 121.029 34.7028 121.65 34.7028ZM120.915 42.881H122.356V36.1012H120.915V42.881Z" fill="#003C75"></path>
  <path d="M129.312 36.1012V39.2934C129.312 40.8612 128.578 41.7087 127.434 41.7087C126.516 41.7087 125.951 41.1861 125.951 40.1691V36.1012H124.51V40.268C124.51 42.0618 125.344 43.0223 126.939 43.0223C128.268 43.0223 128.987 42.3302 129.312 41.2426V42.881H130.753V36.1012H129.312Z" fill="#003C75"></path>
  <path d="M141.57 35.96C140.328 35.96 139.509 36.5956 139.112 37.782C138.858 36.5956 138.068 35.96 136.768 35.96C135.44 35.96 134.72 36.6521 134.395 37.7397V36.1012H132.954V42.881H134.395V39.6889C134.395 38.121 135.13 37.2735 136.274 37.2735C137.192 37.2735 137.757 37.7962 137.757 38.8131V42.881H139.198V40.042C139.198 38.234 139.805 37.2735 141.09 37.2735C142.008 37.2735 142.559 37.8103 142.559 38.8696V42.881H144V38.7849C144 36.9487 143.166 35.96 141.57 35.96Z" fill="#003C75"></path>
</svg>
