<?xml version="1.0" encoding="UTF-8"?>
<svg xmlns="http://www.w3.org/2000/svg" width="231" height="72" viewBox="0 0 231 72" fill="none">
  <path d="M172.678 20.8394C172.679 21.2394 172.602 21.6355 172.453 22.0051C172.304 22.3747 172.085 22.7105 171.81 22.9934C171.534 23.2763 171.207 23.5008 170.847 23.6539C170.487 23.807 170.1 23.8858 169.711 23.8858C169.321 23.8858 168.935 23.807 168.575 23.6539C168.214 23.5008 167.887 23.2763 167.612 22.9934C167.336 22.7105 167.117 22.3747 166.968 22.0051C166.819 21.6355 166.743 21.2394 166.743 20.8394C166.743 20.4394 166.819 20.0433 166.968 19.6737C167.117 19.3041 167.336 18.9682 167.612 18.6853C167.887 18.4024 168.214 18.178 168.575 18.0249C168.935 17.8718 169.321 17.793 169.711 17.793C170.1 17.793 170.487 17.8718 170.847 18.0249C171.207 18.178 171.534 18.4024 171.81 18.6853C172.085 18.9682 172.304 19.3041 172.453 19.6737C172.602 20.0433 172.679 20.4394 172.678 20.8394Z" fill="#999B9E"></path>
  <path d="M225.453 34.2138H217.899V41.9226H225.453V34.2138Z" fill="#999B9E"></path>
  <path d="M75.635 34.2138H68.0809V41.9226H75.635V34.2138Z" fill="#999B9E"></path>
  <path d="M52.9771 34.2138H45.4231V41.9226H52.9771V34.2138Z" fill="#999B9E"></path>
  <path d="M30.663 34.2138H23.109V41.9226H30.663V34.2138Z" fill="#999B9E"></path>
  <path d="M7.55402 34.2138H0V41.9226H7.55402V34.2138Z" fill="#999B9E"></path>
  <path d="M18.1419 18.8267H19.0382C24.8269 18.8267 27.525 21.9235 28.6525 30.1819L30.445 30.1027L30.2058 17H0.749448L0.459143 30.1027L2.18409 30.1819C2.48283 27.0852 2.84114 25.4174 3.61873 23.7497C4.99334 20.6525 7.86215 18.8267 11.388 18.8267H12.643V47.3338C12.643 50.3513 12.4639 51.3043 11.7473 52.019C11.1493 52.5748 9.95384 52.813 8.57877 52.813H7.20416V54.7185H23.5808V52.813H22.1978C20.8316 52.813 19.6277 52.5743 19.0387 52.019C18.3216 51.3043 18.1424 50.3508 18.1424 47.3338V18.8267" fill="#ED008C"></path>
  <path d="M96.0618 54.719L105.606 21.4179V47.5505C105.606 50.4024 105.443 51.4046 104.796 52.0983C104.31 52.6376 103.184 52.8693 101.936 52.8693H101.451V54.719H114.941V52.8693H114.239C112.998 52.8693 111.865 52.6381 111.379 52.0983C110.731 51.4046 110.57 50.4024 110.57 47.5505V25.2725C110.57 22.4201 110.731 21.341 111.379 20.6473C111.919 20.1849 112.998 19.8763 114.239 19.8763H114.941V18.1031H104.473L96.5941 45.0062L88.8853 18.1031H78.4709V19.8763H79.4418C82.3021 19.8763 82.8415 20.493 82.8415 24.1934V45.3917C82.8415 48.7835 82.6797 50.1712 82.1938 51.1734C81.6544 52.1757 80.5134 52.8693 79.3339 52.8693H78.4705V54.719H89.586V52.8693H88.8849C87.4821 52.8693 86.3486 52.3295 85.6934 51.2503C85.0537 50.1712 84.8919 49.169 84.8919 45.3917V21.4184L94.381 54.7195H96.0618" fill="#999B9E"></path>
  <path d="M126.542 28.6638C119.851 28.6638 115.48 33.9057 115.48 42.1543C115.48 50.0943 119.851 55.4905 126.373 55.4905C132.955 55.4905 137.326 50.0943 137.326 42.0774C137.326 34.1369 132.955 28.6638 126.542 28.6638ZM126.326 30.4366C128.261 30.4366 129.934 31.67 130.851 33.7514C131.714 35.6785 132.092 38.2997 132.092 42.0769C132.092 49.8621 130.203 53.7163 126.373 53.7163C122.549 53.7163 120.706 49.8617 120.706 41.9995C120.706 38.2992 121.091 35.6785 121.955 33.7514C122.811 31.7474 124.545 30.4366 126.326 30.4366Z" fill="#999B9E"></path>
  <path d="M146.292 17.7176L138.629 18.1031V19.7989H138.999C141.265 19.7989 141.759 20.57 141.759 24.1929V49.2459C141.759 52.4833 141.651 53.3317 141.219 54.719H143C144.341 52.4833 144.673 52.0983 145.212 52.0983C145.475 52.0983 145.736 52.1752 146.122 52.5607C148.773 54.719 149.907 55.1814 152.335 55.1814C158.155 55.1814 162.364 49.554 162.364 41.5371C162.364 33.9826 158.471 28.895 152.651 28.895C149.629 28.895 147.425 30.3597 146.292 32.9804V17.7176ZM151.888 30.8221C155.35 30.8221 157.13 34.5224 157.13 41.7683C157.13 49.3997 155.295 53.3313 151.788 53.3313C147.903 53.3313 145.859 49.3223 145.859 41.9995C145.859 38.2992 146.346 35.7558 147.479 33.8283C148.496 31.9786 150.231 30.8221 151.888 30.8221Z" fill="#999B9E"></path>
  <path d="M172.347 29.0493L164.476 29.5117V31.2076H165.07C167.328 31.2076 167.814 31.9786 167.814 35.5246V48.5522C167.814 52.0987 167.329 52.9467 165.07 52.9467H164.214V54.719H175.963V52.9467H175.114C172.84 52.9467 172.347 52.1752 172.347 48.5522V29.0493" fill="#999B9E"></path>
  <path d="M185.998 17.7176L178.128 18.1031V19.7989H178.714C180.98 19.7989 181.466 20.57 181.466 24.1929V48.5518C181.466 52.1752 180.98 52.9462 178.714 52.9462H177.858V54.7185H189.614V52.9462H188.75C186.476 52.9462 185.998 52.1747 185.998 48.5518V17.7176Z" fill="#999B9E"></path>
  <path d="M211.083 41.9226C210.82 33.7514 206.935 28.6638 201.062 28.6638C195.388 28.6638 191.294 34.2138 191.294 41.9226C191.294 50.1707 195.334 55.49 201.593 55.49C205.64 55.49 208.446 53.3313 210.767 48.5518L209.148 47.7038C207.26 51.7123 205.371 53.3313 202.457 53.3313C198.194 53.3313 196.368 49.94 196.313 41.9226H211.083ZM196.367 39.9951C196.414 34.2138 198.294 30.5909 201.323 30.5909C204.345 30.5909 206.125 34.1369 206.072 39.9951H196.367Z" fill="#999B9E"></path>
  <path d="M228.286 28.0355C228.742 28.0355 229.187 28.1522 229.622 28.3863C230.056 28.6203 230.394 28.9552 230.636 29.3904C230.879 29.8256 231 30.2796 231 30.7523C231 31.2204 230.88 31.6701 230.641 32.1016C230.403 32.5336 230.068 32.8689 229.638 33.1076C229.207 33.3463 228.756 33.4659 228.286 33.4659C227.816 33.4659 227.365 33.3468 226.934 33.1076C226.504 32.8689 226.168 32.534 225.929 32.1016C225.689 31.6701 225.569 31.2204 225.569 30.7523C225.569 30.2796 225.69 29.8256 225.934 29.3904C226.177 28.9552 226.516 28.6198 226.95 28.3863C227.386 28.1522 227.831 28.0355 228.286 28.0355ZM228.286 28.4876C227.906 28.4876 227.534 28.5851 227.174 28.7807C226.813 28.9763 226.531 29.2548 226.327 29.6178C226.123 29.9808 226.022 30.3593 226.022 30.7519C226.022 31.1425 226.122 31.5168 226.322 31.8751C226.522 32.2334 226.802 32.5124 227.161 32.7127C227.521 32.913 227.896 33.0129 228.286 33.0129C228.678 33.0129 229.052 32.913 229.412 32.7127C229.771 32.5129 230.05 32.2339 230.249 31.8751C230.448 31.5168 230.547 31.1425 230.547 30.7519C230.547 30.3593 230.446 29.9808 230.244 29.6178C230.041 29.2553 229.759 28.9763 229.397 28.7807C229.035 28.5851 228.665 28.4876 228.286 28.4876ZM227.095 29.3285H228.101C228.444 29.3285 228.694 29.3557 228.847 29.4096C229.001 29.4635 229.124 29.5578 229.215 29.6924C229.306 29.8265 229.352 29.9696 229.352 30.1206C229.352 30.334 229.275 30.5202 229.122 30.6782C228.97 30.8363 228.767 30.9254 228.514 30.9446C228.618 30.9878 228.701 31.0394 228.763 31.0994C228.881 31.2143 229.025 31.4075 229.195 31.6786L229.552 32.2507H228.974L228.714 31.7897C228.51 31.4291 228.346 31.203 228.223 31.1111C228.136 31.0431 228.01 31.0093 227.845 31.0093H227.567V32.2507H227.095V29.3285ZM227.567 30.6079H228.142C228.416 30.6079 228.603 30.5671 228.704 30.485C228.804 30.4029 228.853 30.2946 228.853 30.1595C228.853 30.0728 228.83 29.9949 228.781 29.9264C228.733 29.858 228.667 29.8064 228.58 29.7726C228.495 29.7388 228.337 29.7224 228.105 29.7224H227.567V30.6079Z" fill="#999B9E"></path>
</svg>
