<svg width="73" height="20" viewBox="0 0 73 20" fill="none" xmlns="http://www.w3.org/2000/svg">
<path d="M3.67908 0.00702703L-0.000732422 8.58807H2.39404L3.07304 6.86903H7.02293L7.70195 8.58807H10.1552L6.47534 0.00702703H3.67908ZM5.04441 1.99683L6.249 4.99623H3.83971L5.04441 1.99683Z" fill="#016FD0"/>
<path d="M10.4022 8.58108V0L13.8119 0.0146316L15.7905 5.54511L17.7253 0H21.1057V8.58108H18.9665V2.26052L16.6958 8.58108H14.8195L12.5415 2.26052V8.58108H10.4022Z" fill="#016FD0"/>
<path d="M22.5725 8.58108V0H29.5597V1.91669H24.741V3.38712H29.4429V5.19396H24.7337V6.7156H29.5524V8.58108H22.5725Z" fill="#016FD0"/>
<path d="M30.7944 0.00702703V8.58811H32.9336V5.5375H33.8317L36.4017 8.58811H39.0156L36.1973 5.42777C37.3509 5.33267 38.5483 4.33786 38.5483 2.79427C38.5483 0.987318 37.1318 0.0143434 35.5548 0.0143434L30.7944 0.00702703ZM32.9336 1.92371H35.3795C35.9636 1.92371 36.3944 2.3846 36.3944 2.82353C36.3944 3.39415 35.8395 3.72335 35.4087 3.72335H32.9336V1.92371Z" fill="#016FD0"/>
<path d="M41.6037 8.58108H39.4206V0H41.6037V8.58108Z" fill="#016FD0"/>
<path d="M46.7889 8.58079H46.3143C44.029 8.58079 42.6491 6.78116 42.6491 4.33055C42.6491 1.8213 44.0217 0.00702703 46.8984 0.00702703H49.2639V2.04076H46.8181C45.6499 2.04076 44.8175 2.95522 44.8175 4.3525C44.8175 6.01302 45.7667 6.708 47.1247 6.708H47.6869L46.7889 8.58079Z" fill="#016FD0"/>
<path d="M51.4462 0.00731524L47.7664 8.58108H50.1612L50.8402 6.86192H54.7901L55.4691 8.58108H57.915L54.2352 0L51.4462 0.00731524ZM52.8042 1.99716L54.0088 4.99644H51.5995L52.8042 1.99716Z" fill="#016FD0"/>
<path d="M58.1623 8.58108V0H60.8856L64.361 5.39148V0H66.5002V8.58108H63.8645L60.3015 3.05061V8.58108H58.1623Z" fill="#016FD0"/>
<path d="M15.5873 19.993V11.4119H22.5745V13.3286H17.7558V14.799H22.465V16.606H17.7558V18.1275H22.5745V19.993H15.5873Z" fill="#016FD0"/>
<path d="M49.8026 19.993V11.4119H56.7897V13.3286H51.971V14.799H56.6583V16.606H51.971V18.1275H56.7897V19.993H49.8026Z" fill="#016FD0"/>
<path d="M22.8445 19.993L26.2468 15.7574L22.7642 11.4119H25.4583L27.5318 14.0967L29.6127 11.4119H32.2046L28.7657 15.6988L32.1754 19.9857H29.4812L27.4661 17.3447L25.5021 19.9857L22.8445 19.993Z" fill="#016FD0"/>
<path d="M32.4284 11.4189V20H34.6261V17.2932H36.8821C38.7877 17.2932 40.2334 16.2764 40.2334 14.3085C40.2334 12.6771 39.1017 11.4261 37.1595 11.4261H32.4284V11.4189ZM34.6261 13.3574H36.9989C37.6122 13.3574 38.0576 13.7378 38.0576 14.345C38.0576 14.9157 37.6195 15.3326 36.9916 15.3326H34.6261V13.3574Z" fill="#016FD0"/>
<path d="M41.1529 11.4119V19.993H43.2922V16.9424H44.1902L46.7603 19.993H49.3741L46.5558 16.8326C47.7094 16.7375 48.9068 15.7427 48.9068 14.1991C48.9068 12.3922 47.4904 11.4192 45.9133 11.4192L41.1529 11.4119ZM43.2995 13.3359H45.7454C46.3295 13.3359 46.7603 13.7968 46.7603 14.2357C46.7603 14.8063 46.2054 15.1355 45.7746 15.1355H43.2995V13.3359Z" fill="#016FD0"/>
<path d="M57.7826 18.1272H62.0684C62.7035 18.1272 62.9736 17.7834 62.9736 17.4103C62.9736 17.0518 62.7035 16.686 62.0684 16.686H60.1336C58.4543 16.686 57.5124 15.6618 57.5124 14.1183C57.5124 12.7429 58.374 11.4189 60.871 11.4189H65.0399L64.1418 13.3501H60.5352C59.8488 13.3501 59.6371 13.7159 59.6371 14.0597C59.6371 14.4182 59.8999 14.8059 60.4256 14.8059H62.4553C64.3317 14.8059 65.1421 15.874 65.1421 17.2713C65.1421 18.771 64.2368 20 62.353 20H57.7826V18.1272Z" fill="#016FD0"/>
<path d="M65.6397 18.1272H69.9254C70.5607 18.1272 70.8308 17.7834 70.8308 17.4103C70.8308 17.0518 70.5607 16.686 69.9254 16.686H67.9907C66.3115 16.686 65.3696 15.6618 65.3696 14.1183C65.3696 12.7429 66.2311 11.4189 68.7281 11.4189H72.8971L71.999 13.3501H68.3922C67.706 13.3501 67.4943 13.7159 67.4943 14.0597C67.4943 14.4182 67.7571 14.8059 68.2827 14.8059H70.3124C72.1888 14.8059 72.9993 15.874 72.9993 17.2713C72.9993 18.771 72.0939 20 70.2102 20H65.6397V18.1272Z" fill="#016FD0"/>
</svg>
