<svg width="60" height="20" viewBox="0 0 60 20" fill="none" xmlns="http://www.w3.org/2000/svg">
<path d="M36.3472 4.90832C36.3472 7.62425 34.1279 9.81661 31.3786 9.82649C28.6292 9.82649 26.4099 7.63413 26.3999 4.9182C26.3999 2.21216 28.6192 0.00991174 31.3586 3.32524e-05C34.1079 -0.00984523 36.3372 2.18252 36.3472 4.90832C36.3472 4.89845 36.3472 4.89845 36.3472 4.90832Z" fill="#F27923"/>
<path d="M3.11867 0.286541H0.44V9.54927H3.11933C4.33867 9.61842 5.53867 9.23316 6.478 8.47317C7.54733 7.59399 8.15733 6.29069 8.15733 4.91823C8.15733 2.21219 6.088 0.286541 3.11867 0.286541ZM5.258 7.23902C4.678 7.73294 3.93867 7.97003 2.75867 7.97003H2.25867V1.84734H2.74867C3.928 1.84734 4.648 2.05479 5.248 2.59811C5.898 3.19081 6.26733 4.02983 6.25733 4.89914C6.278 5.79742 5.908 6.63643 5.258 7.23902ZM8.99733 0.286541H10.8267V9.54927H8.99733C8.99733 9.54992 8.99733 0.286541 8.99733 0.286541ZM15.3047 3.84214C14.1853 3.447 13.8853 3.18028 13.8853 2.67714C13.8853 2.17399 14.4653 1.67019 15.2547 1.67019C15.8347 1.68007 16.374 1.95666 16.724 2.42095L17.684 1.1868C16.924 0.515064 15.9447 0.150217 14.9347 0.150217C13.4153 0.0514325 12.1053 1.19668 12.0153 2.68833C12.0153 2.71797 12.0153 2.7476 12.0153 2.77724C12.0153 4.0509 12.6053 4.70288 14.3247 5.31535C14.7647 5.45365 15.1847 5.64134 15.584 5.86854C15.934 6.06611 16.144 6.43162 16.144 6.82676C16.144 7.55776 15.534 8.13994 14.8047 8.13006C14.7747 8.13006 14.7547 8.13006 14.7247 8.13006C13.8747 8.13994 13.0853 7.66577 12.7253 6.89591L11.546 8.00164C12.226 9.12713 13.4653 9.80874 14.7947 9.76923C16.694 9.76923 18.0333 8.51532 18.0333 6.72797C18.004 5.2541 17.374 4.59224 15.3047 3.84214ZM18.574 4.91823C18.554 7.56501 20.7133 9.73762 23.3927 9.75737C23.4427 9.75737 23.4827 9.75737 23.5327 9.75737C24.3327 9.75737 25.122 9.56968 25.832 9.20418V7.09084C25.272 7.74282 24.4527 8.10767 23.5927 8.10767C21.9033 8.15706 20.494 6.84388 20.444 5.17442C20.444 5.08551 20.444 4.9966 20.444 4.91758C20.384 3.21914 21.7333 1.79729 23.4527 1.73802C23.4827 1.73802 23.5027 1.73802 23.5327 1.73802C24.4127 1.7479 25.242 2.12328 25.822 2.7746V0.651387C25.132 0.285883 24.3627 0.0981916 23.5827 0.0981916C20.8633 0.0586777 18.614 2.21153 18.5747 4.89782C18.574 4.89848 18.574 4.90836 18.574 4.91823ZM40.3267 6.49813L37.8273 0.276663H35.838L39.8167 9.78635H40.7967L44.8453 0.276663H42.866L40.3267 6.49813ZM45.6647 9.54993H50.8527V7.9799H47.494V5.48131H50.7333V3.91129H47.4947V1.85722H50.8533V0.286541H45.6653L45.6647 9.54993ZM58.1007 3.02222C58.1007 1.28427 56.8913 0.286541 54.782 0.286541H52.0827V9.54927H53.912V5.82639H54.152L56.6913 9.54927H58.9307L55.9713 5.64858C57.2607 5.46155 58.2007 4.31565 58.1007 3.02222ZM54.432 4.55273H53.872V1.74856H54.432C55.5513 1.74856 56.1913 2.22272 56.1913 3.12101C56.1913 4.01929 55.6013 4.55273 54.432 4.55273ZM59.55 0.770587C59.55 0.612531 59.44 0.523625 59.24 0.523625H58.98V1.33366H59.18V1.01755L59.42 1.33366H59.66L59.36 0.997792C59.47 0.987913 59.56 0.889129 59.55 0.770587ZM59.21 0.87925H59.18V0.671801H59.22C59.32 0.671801 59.37 0.701437 59.37 0.780465C59.37 0.859493 59.31 0.87925 59.21 0.87925ZM59.29 0.207512C58.89 0.197634 58.56 0.513746 58.56 0.908885C58.55 1.30402 58.87 1.63002 59.27 1.63002C59.67 1.63989 60 1.32378 60 0.928643V0.918763C60 0.533502 59.68 0.217391 59.29 0.207512ZM59.29 1.51147C58.98 1.51147 58.73 1.26451 58.73 0.958278C58.73 0.9484 58.73 0.938521 58.73 0.928643C58.73 0.62241 58.98 0.375447 59.29 0.375447C59.6 0.375447 59.85 0.62241 59.85 0.928643C59.87 1.23488 59.63 1.49172 59.32 1.51147C59.31 1.51147 59.29 1.51147 59.29 1.51147ZM0.02 17.1438C-0.01 15.5936 1.22933 14.2995 2.80933 14.2699C2.84933 14.2699 2.88933 14.2699 2.92933 14.2699C3.96867 14.2007 4.95867 14.7243 5.47867 15.6226L4.71867 16.0868C4.39867 15.4052 3.68933 14.991 2.92933 15.0601C1.8 15.0404 0.87 15.9393 0.86 17.0451C0.86 17.0747 0.86 17.1043 0.86 17.1438C0.79 18.2002 1.59 19.1189 2.65933 19.188C2.70933 19.188 2.75933 19.1979 2.81933 19.188C3.74933 19.2769 4.58867 18.625 4.71867 17.7168H2.75933V16.9265H5.51867V19.8986H4.69867V19.0293L4.72867 18.8219C4.39867 19.5825 3.59933 20.0461 2.75933 19.9671C1.25933 19.9875 0.02 18.8028 0 17.3217C0.02 17.2624 0.02 17.2031 0.02 17.1438ZM6.518 13.9044H7.358V19.9085H6.518V13.9044ZM8.15733 17.8446C8.15733 16.6598 9.12733 15.7016 10.3267 15.7016C11.526 15.7016 12.496 16.6598 12.496 17.8446C12.496 19.0293 11.526 19.9875 10.3267 19.9875C9.13733 19.9974 8.16733 19.0491 8.15733 17.8742C8.15733 17.8544 8.15733 17.8544 8.15733 17.8446ZM11.666 17.8446C11.636 17.1136 11.016 16.5511 10.2767 16.5709C9.53733 16.5907 8.96733 17.213 8.98733 17.9433C9.01733 18.6546 9.59733 19.2071 10.3167 19.217C11.0667 19.2071 11.666 18.5947 11.656 17.8544C11.666 17.8544 11.666 17.8446 11.666 17.8446ZM14.1053 19.3066V19.9092H13.2853V13.8853H14.1153V16.3839C14.4553 15.9492 14.9853 15.7022 15.5347 15.7022C16.734 15.7022 17.704 16.6605 17.704 17.8452C17.704 19.03 16.734 19.9783 15.5347 19.9882C14.9853 19.9875 14.4553 19.7406 14.1053 19.3066ZM16.8147 17.8347C16.8647 17.0938 16.2947 16.4524 15.5353 16.403C14.7853 16.3536 14.136 16.9166 14.086 17.6667C14.086 17.726 14.086 17.7853 14.086 17.8347C14.036 18.5756 14.606 19.217 15.3653 19.2664C16.1153 19.3158 16.7647 18.7527 16.8147 18.0026C16.8147 17.9532 16.8147 17.894 16.8147 17.8347ZM18.224 18.8324C18.224 18.0125 18.744 17.6476 19.8733 17.5094C20.6833 17.4106 20.9627 17.3513 20.9627 17.0648C20.9627 16.7685 20.7427 16.403 20.1027 16.403C19.6027 16.3634 19.1527 16.7092 19.0533 17.2031L18.2533 16.8672C18.5433 16.1264 19.2927 15.6627 20.0927 15.7121C21.152 15.7121 21.802 16.2653 21.802 17.2624V19.9092H20.9933V19.2671C20.7233 19.761 20.1733 20.0475 19.614 19.9882C18.794 19.9875 18.224 19.5041 18.224 18.8324ZM20.6633 18.9411C20.8733 18.7534 20.9933 18.4965 20.9933 18.2199V17.8643C20.9933 18.0224 20.7033 18.0619 20.0733 18.131C19.4433 18.2101 19.054 18.3879 19.054 18.7633C19.054 19.1386 19.324 19.2572 19.724 19.2572C20.0633 19.2769 20.4033 19.1584 20.6633 18.9411ZM22.7127 13.9044H23.5327V19.9085H22.6927L22.7127 13.9044ZM26.4513 14.339H27.3713L30.1707 18.5558V14.339H30.9907V19.8986H30.1507L27.2713 15.6028V19.8986H26.4513V14.339ZM31.7993 17.8643C31.7793 16.6993 32.7193 15.7312 33.8987 15.7115C33.9187 15.7115 33.9387 15.7115 33.9587 15.7115C35.098 15.672 36.058 16.561 36.098 17.6865C36.098 17.726 36.098 17.7655 36.098 17.8149V18.1607H32.5993C32.7793 18.9312 33.5593 19.4047 34.3287 19.2269C34.6987 19.138 35.0187 18.9207 35.2187 18.6045L35.9087 19.0096C35.4987 19.6517 34.7693 20.0264 34.0093 19.9974C32.85 20.0567 31.85 19.1676 31.79 18.0224C31.7993 17.9532 31.7993 17.9137 31.7993 17.8643ZM32.6293 17.4501H35.2787C35.1787 16.8277 34.6187 16.3839 33.9793 16.4333C33.3487 16.4128 32.7893 16.8376 32.6293 17.4501ZM37.2673 18.5558V16.5314H36.4373V15.7905H37.2673V14.9014L38.0873 14.3779V15.7898H39.2467V16.5307H38.0873V18.5552C38.0873 18.9997 38.3173 19.2071 38.6473 19.2071C38.8673 19.2071 39.0773 19.1577 39.2673 19.0392V19.8097C39.0573 19.9381 38.8273 19.9974 38.5873 19.9777C37.7473 19.9678 37.2673 19.5733 37.2673 18.5558ZM39.7267 15.7905H40.5867L41.5567 18.8021L42.676 15.8103H43.486L44.6053 18.8021L45.6047 15.8103H46.4847L45.0253 19.9085H44.2453L43.126 16.887L41.9267 19.9085H41.1067L39.7267 15.7905ZM46.7747 17.8446C46.7747 16.6598 47.7447 15.7016 48.944 15.7016C50.1433 15.7016 51.1133 16.6598 51.1133 17.8446C51.1133 19.0293 50.1433 19.9875 48.944 19.9875C47.7547 19.9974 46.7847 19.0491 46.7747 17.8742C46.7747 17.8544 46.7747 17.8544 46.7747 17.8446ZM50.2833 17.8446C50.2533 17.1136 49.6333 16.5511 48.894 16.5709C48.154 16.6005 47.5847 17.213 47.6047 17.9433C47.6347 18.6546 48.2247 19.217 48.944 19.217C49.694 19.2071 50.2933 18.6045 50.2833 17.8643C50.2833 17.8544 50.2833 17.8446 50.2833 17.8446ZM51.9027 15.7905H52.7227V16.4919C52.9227 16.0276 53.4027 15.751 53.912 15.7905H54.262V16.6302H53.762C53.102 16.6302 52.7227 16.8969 52.7227 17.6865V19.8986H51.9027V15.7905ZM56.6113 18.0323L55.8613 18.8324V19.9085H55.0413V13.9044H55.8613V17.894L57.8007 15.7905H58.82L57.2107 17.5186L58.89 19.8986H57.91L56.6113 18.0323Z" fill="#35363A"/>
</svg>
