<svg width="34" height="20" viewBox="0 0 34 20" fill="none" xmlns="http://www.w3.org/2000/svg">
<mask id="mask0_1503_405" style="mask-type:luminance" maskUnits="userSpaceOnUse" x="0" y="0" width="34" height="20">
<path d="M34 0H0V20H34V0Z" fill="white"/>
</mask>
<g mask="url(#mask0_1503_405)">
<path fill-rule="evenodd" clip-rule="evenodd" d="M17.0088 17.3813C18.7987 18.9894 21.2023 19.9647 23.8168 19.9647C29.4317 19.9647 33.9763 15.4994 33.9763 10.0074C33.9763 4.49872 29.4317 0.0332031 23.8168 0.0332031C21.2023 0.0332031 18.7987 1.00837 17.0088 2.61661C14.9558 4.44716 13.6572 7.08189 13.6572 10.0074C13.6575 12.9329 14.9558 15.5679 17.0088 17.3813Z" fill="#E9B040"/>
<path fill-rule="evenodd" clip-rule="evenodd" d="M32.6242 15.551C32.6242 15.3799 32.7647 15.2432 32.94 15.2432C33.1329 15.2432 33.2731 15.38 33.2731 15.551C33.2731 15.7395 33.1326 15.8762 32.94 15.8762C32.7647 15.8762 32.6242 15.7395 32.6242 15.551ZM32.94 15.808C33.0804 15.808 33.2029 15.6879 33.2029 15.5512C33.2029 15.4145 33.0802 15.3118 32.94 15.3118C32.8169 15.3118 32.6944 15.4145 32.6944 15.5512C32.6944 15.6879 32.8171 15.808 32.94 15.808ZM32.9049 15.7053H32.8347V15.4143H32.9573C32.975 15.4143 33.0102 15.4143 33.0276 15.4316C33.0627 15.4485 33.0627 15.4659 33.0627 15.5001C33.0627 15.5343 33.0453 15.5686 33.0102 15.5686L33.0805 15.7055H32.9924L32.9573 15.5855H32.9049V15.7053V15.5341H32.9751C32.9924 15.5341 32.9924 15.5168 32.9924 15.4999C32.9924 15.4826 32.9924 15.4826 32.9751 15.4656H32.9049V15.7053Z" fill="#E9B040"/>
<path fill-rule="evenodd" clip-rule="evenodd" d="M20.29 8.94687C20.255 8.5876 20.1847 8.24552 20.1145 7.88609H13.9029C13.9732 7.52691 14.0785 7.18482 14.1836 6.84249H19.8163C19.694 6.48229 19.5535 6.1283 19.3953 5.78171H14.6224C14.798 5.41938 14.9913 5.06539 15.2015 4.72101H18.7988C18.5673 4.35562 18.3094 4.00682 18.0269 3.67736H15.9736C16.2912 3.2992 16.6373 2.94464 17.0089 2.61661C15.2017 1.02549 12.8152 0.0332031 10.1832 0.0332031C4.5858 0.0332031 0.0236816 4.49872 0.0236816 10.0074C0.0236816 15.4994 4.5858 19.9647 10.1832 19.9647C12.8152 19.9647 15.2015 18.9894 17.0089 17.3813C17.3749 17.059 17.7152 16.7101 18.0269 16.3375H15.9736C15.6928 15.9954 15.4472 15.6532 15.2015 15.2767H18.7988C19.025 14.9384 19.2244 14.5838 19.3954 14.216H14.6224C14.4644 13.8739 14.3067 13.5317 14.1836 13.1721H19.8163C19.9389 12.83 20.027 12.471 20.1143 12.1113C20.1846 11.7693 20.2547 11.4103 20.2899 11.0506C20.3254 10.7038 20.3431 10.3554 20.3427 10.0068C20.3427 9.64821 20.3251 9.28895 20.29 8.94687Z" fill="#CC2131"/>
<path fill-rule="evenodd" clip-rule="evenodd" d="M32.6242 12.318C32.6242 12.1299 32.7647 11.9932 32.94 11.9932C33.1329 11.9932 33.2731 12.13 33.2731 12.318C33.2731 12.4891 33.1326 12.6431 32.94 12.6431C32.7647 12.6431 32.6242 12.4889 32.6242 12.318ZM32.94 12.5574C33.0804 12.5574 33.2029 12.4547 33.2029 12.318C33.2029 12.1813 33.0802 12.0785 32.94 12.0785C32.8169 12.0785 32.6944 12.1813 32.6944 12.318C32.6944 12.4547 32.8171 12.5574 32.94 12.5574ZM32.9049 12.4547H32.8347V12.181H33.0276C33.0627 12.1984 33.0627 12.2326 33.0627 12.2668C33.0627 12.2837 33.0453 12.318 33.0102 12.3352L33.0805 12.4549H32.9924L32.9573 12.3522H32.9049V12.4547V12.3008H32.94C32.9573 12.3008 32.9751 12.3008 32.9751 12.2835C32.9924 12.2835 32.9924 12.2666 32.9924 12.2493C32.9924 12.2493 32.9924 12.2324 32.9751 12.2324C32.9751 12.215 32.9573 12.2324 32.94 12.2324H32.9049V12.4547Z" fill="white"/>
<path fill-rule="evenodd" clip-rule="evenodd" d="M13.5501 12.8823C13.2167 12.9677 12.971 13.0192 12.7254 13.0192C12.199 13.0192 11.883 12.6941 11.883 12.1123C11.883 11.9927 11.9006 11.8729 11.9182 11.736L11.9883 11.3427L12.041 11.0175L12.5148 8.21179H13.5676L13.4447 8.82781H14.1115L13.9535 9.8543H13.2867L13.006 11.5308C12.9885 11.6166 12.9885 11.6677 12.9885 11.7019C12.9885 11.9245 13.0938 12.0098 13.357 12.0098C13.4798 12.0098 13.585 11.9929 13.6903 11.9756L13.5501 12.8823ZM16.9542 12.848C16.5682 12.9507 16.2174 13.0019 15.8312 13.0019C14.6379 13.0019 13.9535 12.3859 13.9535 11.1716C13.9535 9.75136 14.7608 8.72487 15.8836 8.72487C16.7785 8.72487 17.3575 9.3066 17.3575 10.2131C17.3575 10.5214 17.3224 10.8121 17.2348 11.2227H15.0415C15.0239 11.2912 15.0239 11.3254 15.0239 11.3597C15.0239 11.8386 15.3572 12.078 15.989 12.078C16.3925 12.078 16.7433 11.9927 17.1295 11.8217L16.9542 12.848ZM16.3049 10.4016V10.1962C16.3049 9.85413 16.1118 9.66587 15.7785 9.66587C15.4275 9.66587 15.1819 9.92236 15.0765 10.4014L16.3049 10.4016ZM5.12751 12.9335H4.03956L4.67127 9.0501L3.25009 12.9335H2.49561L2.40792 9.06721L1.74105 12.9335H0.670715L1.53042 7.88664H3.12715L3.16231 11.0006L4.23265 7.88664H5.98739L5.12751 12.9335ZM7.77731 11.1031C7.67199 11.0858 7.63683 11.0858 7.56668 11.0858C6.93488 11.0858 6.61919 11.3252 6.61919 11.7018C6.61919 11.9585 6.77712 12.1296 7.02265 12.1296C7.54905 12.1296 7.75951 11.7018 7.77731 11.1031ZM8.65455 12.9335H7.70707L7.7246 12.506C7.4789 12.8308 7.14559 13.0019 6.56649 13.0019C6.0401 13.0019 5.58385 12.5402 5.58385 11.8729C5.58385 11.6848 5.61901 11.5139 5.67163 11.3427C5.847 10.7095 6.49625 10.3162 7.49644 10.2989C7.61929 10.2989 7.81221 10.2989 7.98776 10.3162C8.02266 10.1793 8.02266 10.1277 8.02266 10.0424C8.02266 9.76855 7.79467 9.68297 7.28581 9.68297C6.97004 9.68297 6.61893 9.73427 6.3734 9.81985L6.21539 9.85413L6.14524 9.87098L6.30316 8.94717C6.81202 8.79318 7.18049 8.72487 7.58421 8.72487C8.5317 8.72487 9.04056 9.15253 9.04056 9.93946C9.04056 10.1448 9.05809 10.2989 8.98785 10.7437L8.74232 12.215L8.70725 12.4718L8.68971 12.6771L8.67209 12.814L8.65455 12.9335ZM22.2534 8.86184C22.5691 8.86184 22.85 8.94742 23.236 9.13543L23.4289 8.04045C23.3235 7.98915 23.2885 7.98915 23.1482 7.93777L22.7098 7.81799C22.5694 7.78379 22.394 7.7666 22.2008 7.7666C21.6566 7.7666 21.3408 7.78379 21.0078 7.97205C20.8322 8.09184 20.6039 8.24582 20.3582 8.5195L20.2178 8.4853L19.0947 9.25505L19.1476 8.82738H17.9893L17.3053 12.9333H18.411L18.8143 10.7266C18.8143 10.7266 18.9725 10.4183 19.0426 10.316C19.2532 10.0592 19.4285 10.0592 19.6565 10.0592H19.7444C19.7076 10.32 19.69 10.583 19.6916 10.8462C19.6916 12.1806 20.4636 13.019 21.6568 13.019C21.9552 13.019 22.2187 12.9848 22.622 12.8821L22.8154 11.7189C22.4644 11.907 22.1485 11.9925 21.8852 11.9925C21.2361 11.9925 20.8497 11.5135 20.8497 10.7608C20.8493 9.64868 21.4286 8.86184 22.2534 8.86184ZM31.5704 7.88664L31.325 9.3237C31.0618 8.93024 30.7457 8.74197 30.3246 8.74197C29.7454 8.74197 29.2016 9.06703 28.8681 9.68297V9.66604L28.1663 9.2553L28.2366 8.82755H27.0609L26.3941 12.9335H27.482L27.8506 10.7268C27.8506 10.7268 28.1313 10.4185 28.2015 10.3162C28.3771 10.1108 28.5524 10.0764 28.6927 10.0595C28.5702 10.4016 28.4999 10.8121 28.4999 11.2743C28.4999 12.3008 29.0437 12.985 29.8507 12.985C30.2545 12.985 30.5703 12.848 30.8684 12.5229L30.816 12.9335H31.8515L32.6936 7.88664H31.5704ZM30.2196 11.9585C29.8509 11.9585 29.658 11.6848 29.658 11.1542C29.658 10.35 30.0089 9.76855 30.5176 9.76855C30.9036 9.76855 31.0968 10.0595 31.0968 10.5727C31.0968 11.3939 30.746 11.9585 30.2196 11.9585ZM25.1488 11.1031C25.0435 11.0858 25.0083 11.0858 24.9382 11.0858C24.306 11.0858 23.9902 11.3252 23.9902 11.7018C23.9902 11.9585 24.1484 12.1296 24.394 12.1296C24.9204 12.1296 25.131 11.7018 25.1488 11.1031ZM26.026 12.9335H25.0607L25.0959 12.506C24.8504 12.8308 24.5166 13.0019 23.938 13.0019C23.3938 13.0019 22.9203 12.5571 22.9203 11.8729C22.9203 10.8979 23.6745 10.2991 24.8677 10.2991C24.9908 10.2991 25.1834 10.2991 25.3416 10.3164C25.3768 10.1795 25.3945 10.1279 25.3945 10.0426C25.3945 9.76872 25.1663 9.68314 24.6399 9.68314C24.3415 9.68314 23.9731 9.73452 23.7275 9.82011L23.5871 9.8543L23.5169 9.87123L23.6746 8.94742C24.1837 8.79335 24.5523 8.72512 24.9557 8.72512C25.9032 8.72512 26.3945 9.15279 26.3945 9.93963C26.3945 10.1451 26.4296 10.2991 26.342 10.7439L26.1138 12.2152L26.0787 12.4719L26.0436 12.6773L26.0263 12.8143L26.026 12.9335ZM10.9531 9.70007C11.1638 9.70007 11.4619 9.71717 11.7779 9.76855L11.9359 8.81045C11.6199 8.77625 11.1988 8.72487 10.9531 8.72487C9.72497 8.72487 9.32142 9.37509 9.32142 10.1277C9.32142 10.624 9.54942 10.9831 10.1461 11.2567C10.5847 11.4621 10.6549 11.4961 10.6549 11.6847C10.6549 11.941 10.4269 12.0952 10.0056 12.0952C9.67227 12.0952 9.35632 12.0437 9.00548 11.9241L8.88254 12.8648L8.8999 12.8821L9.11053 12.9164C9.18077 12.9333 9.26855 12.9506 9.3914 12.9675C9.65456 12.9848 9.88272 13.0017 10.0231 13.0017C11.2515 13.0017 11.7603 12.54 11.7603 11.6331C11.7603 11.0686 11.4795 10.7266 10.9355 10.4872C10.4618 10.2815 10.4091 10.2478 10.4091 10.0592C10.4091 9.87123 10.6197 9.70007 10.9531 9.70007Z" fill="#1B3771"/>
<path fill-rule="evenodd" clip-rule="evenodd" d="M23.7284 7.71646L23.5351 8.81144C23.1491 8.62317 22.8683 8.53784 22.5525 8.53784C21.7277 8.53784 21.1488 9.32469 21.1488 10.4368C21.1488 11.2068 21.5348 11.6685 22.1843 11.6685C22.4472 11.6685 22.7631 11.5831 23.1141 11.4122L22.9211 12.5581C22.5174 12.6608 22.2543 12.7123 21.9559 12.7123C20.7628 12.7123 20.0258 11.8739 20.0258 10.5226C20.0258 8.72611 21.0435 7.45996 22.4999 7.45996C22.6927 7.45996 22.8681 7.47706 23.0085 7.51126L23.4474 7.61394C23.588 7.66533 23.6231 7.68243 23.7284 7.71646ZM20.1837 8.46936H20.0784C19.7102 8.46936 19.4996 8.64053 19.166 9.13642L19.2714 8.50339H18.2711L17.587 12.6095H18.6928C19.096 10.0945 19.2014 9.66685 19.7278 9.66685H19.798C19.9033 9.1707 20.0435 8.81127 20.2191 8.48629L20.1837 8.46936ZM13.832 12.5581C13.5337 12.6608 13.288 12.695 13.0424 12.695C12.481 12.695 12.165 12.3872 12.165 11.7885C12.165 11.6858 12.1825 11.5491 12.2001 11.4291L12.2703 11.0185L12.3229 10.6938L12.7967 7.88763H13.8846L13.7617 8.50356H14.3233L14.1828 9.51295H13.6213L13.3231 11.224C13.3056 11.2923 13.3056 11.3439 13.3056 11.395C13.3056 11.6005 13.4109 11.686 13.674 11.686C13.7969 11.686 13.902 11.686 13.9722 11.6518L13.832 12.5581ZM9.60317 9.80374C9.60317 10.3172 9.8487 10.6762 10.4278 10.9501C10.884 11.1555 10.9542 11.2237 10.9542 11.3949C10.9542 11.6516 10.7611 11.7712 10.3225 11.7712C9.98909 11.7712 9.69068 11.72 9.33984 11.6173L9.18182 12.5581L9.23452 12.5754L9.42762 12.6096C9.49759 12.6266 9.58563 12.6439 9.72585 12.6439C9.97138 12.6781 10.182 12.6781 10.3225 12.6781C11.4804 12.6781 12.0245 12.2502 12.0245 11.3094C12.0245 10.7446 11.7965 10.4195 11.2526 10.1632C10.7788 9.9578 10.7262 9.90667 10.7262 9.71841C10.7262 9.49602 10.9193 9.39334 11.2701 9.39334C11.4808 9.39334 11.779 9.41052 12.0599 9.44472L12.2176 8.50381C11.937 8.45243 11.4983 8.41823 11.2526 8.41823C10.0243 8.41797 9.58563 9.05109 9.60317 9.80374ZM32.1334 12.6096H31.0979L31.1508 12.216C30.8524 12.5239 30.5364 12.6608 30.1327 12.6608C29.3256 12.6608 28.7992 11.9939 28.7992 10.9674C28.7992 9.59854 29.624 8.43516 30.5889 8.43516C31.0277 8.43516 31.3435 8.62343 31.6421 8.99971L31.8876 7.56265H32.9756L32.1334 12.6096ZM30.5189 11.6516C31.0279 11.6516 31.3787 11.0699 31.3787 10.2657C31.3787 9.73525 31.1855 9.4614 30.7995 9.4614C30.3082 9.4614 29.9399 10.026 29.9399 10.8302C29.9399 11.3779 30.1329 11.6516 30.5189 11.6516ZM17.2008 12.5239C16.8146 12.6439 16.4638 12.695 16.0602 12.695C14.8319 12.695 14.2002 12.0622 14.2002 10.8473C14.2002 9.44455 15.0075 8.40087 16.1129 8.40087C17.0254 8.40087 17.6042 8.98261 17.6042 9.88932C17.6042 10.1974 17.5691 10.4883 17.4637 10.9158H15.2883C15.2708 10.9674 15.2708 11.0016 15.2708 11.0359C15.2708 11.5149 15.6043 11.7543 16.2358 11.7543C16.6393 11.7543 16.9902 11.6858 17.3764 11.4975L17.2008 12.5239ZM16.5866 10.0774V9.87222C16.5866 9.53005 16.3936 9.34179 16.0602 9.34179C15.7094 9.34179 15.4636 9.59854 15.3583 10.0774H16.5866ZM5.40944 12.6096H4.32148L4.95328 8.72585L3.53201 12.6096H2.77736L2.68967 8.76014L2.02297 12.6096H1.00525L1.86504 7.56265H3.44423L3.49694 10.6935L4.54947 7.56265H6.26914L5.40944 12.6096ZM8.12929 10.7789C8.02389 10.7789 7.97128 10.762 7.8835 10.762C7.26932 10.762 6.95356 10.9843 6.95356 11.3949C6.95356 11.6516 7.09395 11.8054 7.33956 11.8054C7.79572 11.8054 8.11167 11.3949 8.12929 10.7789ZM8.93629 12.6096H8.02371L8.04125 12.1818C7.76038 12.5239 7.392 12.6781 6.88314 12.6781C6.28651 12.6781 5.88296 12.2333 5.88296 11.566C5.88296 10.5568 6.58474 9.97507 7.81309 9.97507C7.93594 9.97507 8.09395 9.99217 8.26925 10.0091C8.30441 9.87239 8.30441 9.82109 8.30441 9.75261C8.30441 9.47892 8.11132 9.37624 7.60246 9.37624C7.28669 9.37624 6.93558 9.41052 6.69005 9.47892L6.53203 9.53031L6.42672 9.54741L6.58474 8.6236C7.12867 8.46953 7.49714 8.41823 7.90086 8.41823C8.84834 8.41823 9.3572 8.82879 9.3572 9.61564C9.3572 9.82109 9.33967 9.97507 9.26943 10.437L9.02363 11.8914L8.98856 12.1478L8.97102 12.3531L8.95348 12.5074L8.93629 12.6096ZM25.5007 10.7789C25.3777 10.7789 25.3252 10.762 25.2552 10.762C24.6234 10.762 24.3072 10.9843 24.3072 11.3949C24.3072 11.6516 24.4654 11.8054 24.711 11.8054C25.1498 11.8054 25.483 11.3949 25.5007 10.7789ZM26.3078 12.6096H25.3954L25.4127 12.1818C25.1321 12.5239 24.7637 12.6781 24.2548 12.6781C23.6582 12.6781 23.2544 12.2333 23.2544 11.566C23.2544 10.5568 23.9562 9.97507 25.1846 9.97507C25.3076 9.97507 25.4656 9.99217 25.6234 10.0091C25.6585 9.87239 25.6762 9.82109 25.6762 9.75261C25.6762 9.47892 25.483 9.37624 24.9745 9.37624C24.6583 9.37624 24.2901 9.41052 24.0443 9.47892L23.904 9.53031L23.7986 9.54741L23.9564 8.6236C24.5006 8.46953 24.8688 8.41823 25.2725 8.41823C26.22 8.41823 26.7113 8.82879 26.7113 9.61564C26.7113 9.82109 26.7113 9.97507 26.6237 10.437L26.3956 11.8914L26.3605 12.1478L26.3253 12.3531L26.308 12.5074L26.3078 12.6096ZM29.2556 8.46936H29.1503C28.782 8.46936 28.5714 8.64053 28.2379 9.13642L28.3432 8.50339H27.3429L26.676 12.6095H27.7639C28.1677 10.0945 28.273 9.66685 28.7994 9.66685H28.8696C28.9749 9.1707 29.1151 8.81127 29.2907 8.48629L29.2556 8.46936Z" fill="white"/>
</g>
</svg>
