<svg width="75" height="20" viewBox="0 0 75 20" fill="none" xmlns="http://www.w3.org/2000/svg">
<path d="M12.6946 0.970671C11.7546 0.324227 10.5279 0.000222084 9.01453 0.000222084H3.15573C2.69181 0.000222084 2.4355 0.232309 2.38681 0.695926L0.00673823 15.64C-0.0179971 15.7868 0.018714 15.921 0.116536 16.0431C0.213798 16.1654 0.336132 16.2262 0.482641 16.2262H3.26553C3.75363 16.2262 4.02192 15.9947 4.07116 15.5303L4.73018 11.5015C4.75424 11.3063 4.84009 11.1475 4.98659 11.0252C5.13299 10.9032 5.3161 10.8233 5.53581 10.7868C5.75552 10.7505 5.96269 10.7323 6.15833 10.7323C6.35342 10.7323 6.58521 10.7446 6.85417 10.7689C7.12245 10.7933 7.29347 10.8051 7.36678 10.8051C9.46603 10.8051 11.1138 10.2134 12.3101 9.02882C13.5059 7.84464 14.1045 6.20256 14.1045 4.10224C14.1045 2.66157 13.6342 1.61812 12.6946 0.970671ZM9.67377 5.45793C9.55132 6.31273 9.23435 6.87408 8.72174 7.14278C8.20901 7.41182 7.47669 7.54549 6.52477 7.54549L5.31632 7.58222L5.93896 3.66292C5.98753 3.39455 6.14613 3.2602 6.41486 3.2602H7.11081C8.08679 3.2602 8.79516 3.40093 9.23458 3.68128C9.67377 3.96229 9.82028 4.55477 9.67377 5.45793Z" fill="#003087"/>
<path d="M74.5228 0H71.8133C71.5442 0 71.3857 0.134351 71.3373 0.402937L68.957 15.6404L68.9203 15.7136C68.9203 15.8363 68.9692 15.9517 69.067 16.0617C69.1642 16.1713 69.2868 16.2264 69.4332 16.2264H71.8502C72.3133 16.2264 72.5697 15.9948 72.6192 15.5305L74.9993 0.549489V0.513103C74.999 0.171296 74.8399 0 74.5228 0Z" fill="#009CDE"/>
<path d="M41.7871 5.89793C41.7871 5.77612 41.7381 5.65991 41.641 5.55019C41.543 5.44036 41.4331 5.38516 41.3113 5.38516H38.4919C38.2228 5.38516 38.0032 5.50787 37.8326 5.75138L33.9512 11.4657L32.3402 5.97137C32.2175 5.58087 31.9492 5.38516 31.5345 5.38516H28.7879C28.6656 5.38516 28.5557 5.44025 28.4586 5.55019C28.3607 5.65991 28.3121 5.77623 28.3121 5.89793C28.3121 5.94719 28.5502 6.66719 29.0261 8.05905C29.502 9.45113 30.0147 10.9529 30.564 12.5647C31.1133 14.1762 31.3999 15.0312 31.4245 15.1283C29.4226 17.8634 28.422 19.3287 28.422 19.5237C28.422 19.8415 28.5806 20 28.898 20H31.7175C31.986 20 32.2056 19.8782 32.3768 19.6338L41.7143 6.15409C41.7627 6.10561 41.7871 6.02063 41.7871 5.89793Z" fill="#003087"/>
<path d="M68.0424 5.38516H65.2594C64.9173 5.38516 64.7105 5.78809 64.6372 6.59397C64.0018 5.6177 62.8429 5.12866 61.1582 5.12866C59.4006 5.12866 57.9052 5.78809 56.6727 7.10673C55.4397 8.42548 54.8235 9.97632 54.8235 11.7587C54.8235 13.1997 55.2445 14.3473 56.0866 15.2016C56.9287 16.0568 58.0577 16.4836 59.4741 16.4836C60.1818 16.4836 60.9019 16.3369 61.6343 16.0441C62.3667 15.7511 62.9399 15.3606 63.3555 14.872C63.3555 14.8965 63.3307 15.0061 63.2823 15.2014C63.2331 15.3971 63.209 15.544 63.209 15.6409C63.209 16.0321 63.3673 16.2269 63.6852 16.2269H66.212C66.6751 16.2269 66.9441 15.9954 67.017 15.531L68.5185 5.97103C68.5426 5.82448 68.5061 5.69036 68.4087 5.5681C68.3107 5.4464 68.1889 5.38516 68.0424 5.38516ZM63.2639 12.6011C62.6414 13.2116 61.8907 13.5168 61.012 13.5168C60.3037 13.5168 59.7305 13.3217 59.2909 12.9308C58.8513 12.5408 58.6315 12.0035 58.6315 11.319C58.6315 10.4162 58.9368 9.65265 59.5472 9.02994C60.1567 8.40723 60.9143 8.09588 61.8175 8.09588C62.5004 8.09588 63.0681 8.2974 63.5201 8.70011C63.9714 9.10305 64.1978 9.65881 64.1978 10.3669C64.1977 11.2459 63.8863 11.9909 63.2639 12.6011Z" fill="#009CDE"/>
<path d="M26.4445 5.38516H23.6616C23.3194 5.38516 23.1123 5.78809 23.039 6.59397C22.3799 5.6177 21.2202 5.12866 19.5603 5.12866C17.8026 5.12866 16.3072 5.78809 15.0746 7.10673C13.8416 8.42548 13.2255 9.97632 13.2255 11.7587C13.2255 13.1997 13.6466 14.3473 14.4889 15.2016C15.3311 16.0568 16.4599 16.4836 17.8759 16.4836C18.5591 16.4836 19.2675 16.3369 19.9997 16.0441C20.732 15.7511 21.3179 15.3606 21.7574 14.872C21.6594 15.1649 21.6108 15.4214 21.6108 15.6409C21.6108 16.0321 21.7694 16.2269 22.0869 16.2269H24.6134C25.0769 16.2269 25.3458 15.9954 25.4191 15.531L26.9203 5.97103C26.9444 5.82448 26.9078 5.69036 26.8105 5.5681C26.7128 5.4464 26.5909 5.38516 26.4445 5.38516ZM21.6659 12.6192C21.0433 13.2183 20.2801 13.5168 19.3774 13.5168C18.669 13.5168 18.1015 13.3217 17.6746 12.9308C17.2471 12.5408 17.0337 12.0035 17.0337 11.319C17.0337 10.4162 17.3387 9.65265 17.9492 9.02994C18.5591 8.40723 19.316 8.09588 20.2195 8.09588C20.9027 8.09588 21.4703 8.2974 21.9223 8.70022C22.3736 9.10316 22.5997 9.65892 22.5997 10.367C22.5997 11.2704 22.2884 12.0216 21.6659 12.6192Z" fill="#003087"/>
<path d="M54.2925 0.970671C53.3525 0.324227 52.126 0.000222084 50.6125 0.000222084H44.7902C44.3017 0.000222084 44.033 0.232309 43.9847 0.695926L41.6045 15.64C41.5797 15.7869 41.6163 15.9212 41.7143 16.0432C41.8111 16.1654 41.9339 16.2262 42.0804 16.2262H45.0829C45.3758 16.2262 45.571 16.0677 45.6688 15.7502L46.328 11.5015C46.3522 11.3063 46.4377 11.1475 46.5843 11.0252C46.7308 10.9032 46.9137 10.8234 47.1337 10.7868C47.3533 10.7505 47.5603 10.7323 47.7562 10.7323C47.9513 10.7323 48.1831 10.7446 48.4517 10.7689C48.7202 10.7933 48.8917 10.8051 48.9643 10.8051C51.064 10.8051 52.7114 10.2134 53.9078 9.02882C55.104 7.84464 55.702 6.20256 55.702 4.10224C55.7023 2.66168 55.2321 1.61812 54.2925 0.970671ZM50.5392 6.99623C50.0021 7.36244 49.1964 7.54549 48.1225 7.54549L46.9507 7.58222L47.5732 3.66292C47.6215 3.39455 47.7801 3.2602 48.0491 3.2602H48.708C49.245 3.2602 49.6721 3.28461 49.99 3.33331C50.3068 3.38257 50.6125 3.53472 50.9054 3.79111C51.1984 4.0476 51.3448 4.42008 51.3448 4.90844C51.3448 5.93398 51.076 6.62979 50.5392 6.99623Z" fill="#009CDE"/>
</svg>
