<svg width="32" height="20" viewBox="0 0 32 20" fill="none" xmlns="http://www.w3.org/2000/svg">
<path d="M6.2668 0H14.2539C15.3689 0 16.0623 0.907995 15.8022 2.02568L12.0836 17.9774C11.8212 19.0912 10.7049 20 9.58921 20H1.60285C0.489476 20 -0.205532 19.0912 0.0545604 17.9774L3.7747 2.02568C4.03479 0.907995 5.15051 0 6.2668 0Z" fill="#E21836"/>
<path d="M13.5889 0H22.7739C23.8887 0 23.386 0.907995 23.1238 2.02568L19.4058 17.9774C19.1449 19.0912 19.2263 20 18.1092 20H8.9242C7.80713 20 7.11582 19.0912 7.37825 17.9774L11.0961 2.02568C11.36 0.907995 12.4734 0 13.5889 0Z" fill="#00447C"/>
<path d="M22.4091 0H30.3962C31.5127 0 32.2062 0.907995 31.944 2.02568L28.226 17.9774C27.9635 19.0912 26.8465 20 25.7302 20H17.7467C16.6296 20 15.9368 19.0912 16.1984 17.9774L19.917 2.02568C20.1771 0.907995 21.292 0 22.4091 0Z" fill="#007B84"/>
<path d="M8.35212 5.11215C7.53077 5.12051 7.2882 5.11215 7.21071 5.09387C7.18093 5.23528 6.62667 7.78984 6.62512 7.79198C6.50578 8.3088 6.41895 8.67721 6.12401 8.91511C5.95658 9.05341 5.76113 9.12012 5.53452 9.12012C5.17027 9.12012 4.95807 8.93942 4.92244 8.59669L4.91563 8.479C4.91563 8.479 5.0266 7.78673 5.0266 7.78284C5.0266 7.78284 5.6083 5.45488 5.71246 5.14716C5.71791 5.12966 5.71946 5.12051 5.72083 5.11215C4.58857 5.12207 4.38785 5.11215 4.37403 5.09387C4.36644 5.11896 4.3384 5.26329 4.3384 5.26329L3.74444 7.8871L3.69343 8.10962L3.59473 8.8375C3.59473 9.05341 3.63717 9.22964 3.72166 9.37863C3.99226 9.85111 4.76417 9.92191 5.20084 9.92191C5.76346 9.92191 6.29124 9.80248 6.64789 9.58443C7.26698 9.21894 7.42895 8.64765 7.5734 8.13997L7.64037 7.87951C7.64037 7.87951 8.2396 5.46169 8.34142 5.14716C8.34531 5.12966 8.34687 5.12051 8.35212 5.11215ZM10.3909 7.06263C10.2465 7.06263 9.98251 7.09764 9.74539 7.21376C9.65934 7.25792 9.57796 7.30888 9.49211 7.35965L9.56959 7.08013L9.52715 7.03306C9.0243 7.13479 8.91177 7.14841 8.44726 7.21376L8.40833 7.23963C8.3544 7.68643 8.30651 8.02236 8.10657 8.9006C8.03045 9.22427 7.95141 9.55105 7.87218 9.87395L7.89359 9.91499C8.36959 9.8899 8.51404 9.8899 8.92773 9.8967L8.96122 9.86033C9.01378 9.59132 9.0206 9.52829 9.13701 8.98346C9.19172 8.72514 9.3058 8.15755 9.36207 7.95545C9.46544 7.9076 9.56745 7.86053 9.66479 7.86053C9.89666 7.86053 9.86843 8.06263 9.85947 8.14316C9.84954 8.27834 9.76505 8.71989 9.67842 9.099L9.6206 9.3437C9.5803 9.5244 9.53611 9.70005 9.49581 9.8792L9.51333 9.91499C9.98251 9.8899 10.1256 9.8899 10.5263 9.8967L10.5734 9.86033C10.6458 9.44018 10.667 9.32775 10.7955 8.716L10.8601 8.43493C10.9857 7.88484 11.0488 7.60591 10.9538 7.37871C10.8533 7.12409 10.6123 7.06263 10.3909 7.06263ZM12.6686 7.63856C12.4192 7.68642 12.2601 7.71832 12.102 7.73893C11.9453 7.76403 11.7925 7.78678 11.5515 7.82024L11.5324 7.83755L11.5149 7.85136C11.4898 8.03071 11.4722 8.18573 11.439 8.368C11.4107 8.55648 11.3673 8.77064 11.2966 9.07836C11.2419 9.31392 11.2137 9.396 11.1826 9.47887C11.1522 9.56173 11.1187 9.64226 11.0572 9.87393L11.0716 9.89532L11.0837 9.91497C11.3089 9.90427 11.4563 9.89669 11.6077 9.89532C11.759 9.88988 11.9157 9.89532 12.1583 9.89669L12.1795 9.87937L12.2023 9.86031C12.2373 9.6514 12.2426 9.59519 12.264 9.49326C12.2852 9.38394 12.3218 9.23261 12.4116 8.82841C12.454 8.63856 12.5013 8.4493 12.5453 8.25556C12.5911 8.06261 12.639 7.87257 12.6845 7.68272L12.6777 7.65977L12.6686 7.63856ZM12.6739 6.86202C12.4473 6.72839 12.0495 6.7708 11.7818 6.95539C11.5149 7.13629 11.4846 7.39305 11.7104 7.52843C11.9331 7.65837 12.3324 7.61966 12.5977 7.43351C12.8641 7.24872 12.8974 6.99429 12.6739 6.86202ZM14.0443 9.95685C14.5028 9.95685 14.9727 9.83061 15.3265 9.45597C15.5986 9.15214 15.7234 8.70009 15.7666 8.51394C15.9074 7.89694 15.7978 7.60886 15.6602 7.43341C15.4511 7.16595 15.0816 7.08017 14.6982 7.08017C14.4677 7.08017 13.9187 7.10293 13.4899 7.49799C13.1819 7.78295 13.0396 8.16965 12.9537 8.54039C12.8671 8.91814 12.7674 9.59816 13.3933 9.85123C13.5864 9.93409 13.8648 9.95685 14.0443 9.95685ZM14.0085 8.5686C14.1142 8.10137 14.239 7.70923 14.5575 7.70923C14.8071 7.70923 14.8252 8.001 14.7142 8.46978C14.6944 8.57385 14.6032 8.96074 14.48 9.12549C14.394 9.24706 14.2921 9.32079 14.1796 9.32079C14.1461 9.32079 13.947 9.32079 13.9439 9.02532C13.9423 8.87943 13.9721 8.73043 14.0085 8.5686ZM16.9127 9.89676L16.9486 9.86039C16.9994 9.59138 17.0077 9.52816 17.1203 8.98352C17.1765 8.7252 17.2929 8.15761 17.3476 7.95551C17.4512 7.90746 17.5515 7.86039 17.6519 7.86039C17.8822 7.86039 17.8542 8.06249 17.8451 8.14302C17.8367 8.2784 17.7522 8.71976 17.664 9.09886L17.6093 9.34356C17.5674 9.52446 17.5219 9.69991 17.4816 9.87926L17.4991 9.91505C17.9698 9.88996 18.1075 9.88995 18.5105 9.89676L18.5591 9.86039C18.6298 9.44004 18.6489 9.32761 18.7813 8.71606L18.8443 8.43479C18.9705 7.8847 19.0344 7.60596 18.9409 7.37877C18.8375 7.12415 18.595 7.06268 18.3767 7.06268C18.2321 7.06268 17.9667 7.0975 17.731 7.21382C17.6467 7.25798 17.5622 7.30875 17.4793 7.35971L17.5515 7.08019L17.5127 7.03292C17.0101 7.13485 16.8952 7.14847 16.4313 7.21382L16.3957 7.23969C16.3394 7.68649 16.2936 8.02223 16.0937 8.90065C16.0176 9.22433 15.9386 9.55111 15.8595 9.87401L15.8807 9.91505C16.3575 9.88996 16.4998 9.88995 16.9127 9.89676ZM20.3713 9.91495C20.4009 9.77062 20.5767 8.91514 20.5783 8.91514C20.5783 8.91514 20.728 8.28745 20.7371 8.26469C20.7371 8.26469 20.7842 8.19933 20.8314 8.17346H20.9007C21.5546 8.17346 22.293 8.17346 22.8718 7.74806C23.2656 7.45628 23.5349 7.02543 23.655 6.5018C23.6861 6.37342 23.7091 6.22073 23.7091 6.06803C23.7091 5.86749 23.6688 5.66908 23.5524 5.51406C23.2573 5.10149 22.6695 5.0939 21.9911 5.09079C21.9889 5.09079 21.6566 5.0939 21.6566 5.0939C20.7881 5.1046 20.4398 5.10149 20.2968 5.08398C20.2847 5.1472 20.2619 5.25963 20.2619 5.25963C20.2619 5.25963 19.9508 6.70021 19.9508 6.70254C19.9508 6.70254 19.2064 9.76537 19.1713 9.9097C19.9296 9.90056 20.2405 9.90056 20.3713 9.91495ZM20.9478 7.35592C20.9478 7.35592 21.2785 5.91826 21.277 5.9237L21.2877 5.84998L21.2924 5.79377L21.4245 5.80738C21.4245 5.80738 22.1067 5.86593 22.1227 5.86749C22.3919 5.97155 22.5029 6.23979 22.4254 6.58992C22.3547 6.90989 22.147 7.17891 21.8801 7.30884C21.6603 7.41894 21.3911 7.42808 21.1136 7.42808H20.9341L20.9478 7.35592ZM23.0072 8.59523C22.9198 8.96753 22.8193 9.64755 23.4421 9.88992C23.6407 9.97434 23.8186 9.99943 23.9995 9.99029C24.1904 9.97998 24.3674 9.88427 24.5313 9.74656C24.5165 9.80316 24.5017 9.85977 24.4869 9.91656L24.5152 9.95294C24.9631 9.93407 25.1021 9.93407 25.5875 9.93777L25.6315 9.90431C25.7023 9.48805 25.7691 9.08385 25.9533 8.2875C26.043 7.90606 26.1326 7.52831 26.2246 7.14843L26.2102 7.10661C25.7091 7.19939 25.5752 7.21923 25.0932 7.2875L25.0566 7.31727C25.0517 7.35597 25.0466 7.39313 25.042 7.43028C24.967 7.30929 24.8584 7.206 24.6908 7.14162C24.4764 7.05739 23.973 7.16593 23.5402 7.55963C23.2361 7.8407 23.0901 8.22584 23.0072 8.59523ZM24.0596 8.61799C24.1669 8.15913 24.2901 7.77087 24.6094 7.77087C24.8113 7.77087 24.9176 7.95702 24.896 8.27447C24.8788 8.35364 24.8603 8.43709 24.8383 8.53143C24.8064 8.66778 24.7718 8.80297 24.7381 8.93835C24.7038 9.03094 24.6639 9.11828 24.6201 9.17644C24.5379 9.29276 24.3425 9.36492 24.23 9.36492C24.198 9.36492 24.001 9.36492 23.9942 9.07471C23.9926 8.93018 24.0224 8.78138 24.0596 8.61799ZM29.5555 7.10289L29.5168 7.05874C29.0209 7.15911 28.9312 7.17506 28.4756 7.23652L28.4422 7.26998C28.4406 7.27542 28.4392 7.28379 28.4369 7.29138L28.4353 7.28379C28.0962 8.06554 28.1061 7.8969 27.8301 8.51234C27.8285 8.48433 27.8285 8.46683 27.827 8.43707L27.7579 7.10289L27.7144 7.05874C27.195 7.15911 27.1828 7.17506 26.7031 7.23652L26.6657 7.26998C26.6604 7.28593 26.6604 7.30344 26.6573 7.3225L26.6604 7.32931C26.7204 7.63547 26.706 7.5672 26.7662 8.05037C26.7942 8.28749 26.8316 8.52596 26.8596 8.76016C26.9069 9.1521 26.9334 9.34506 26.9912 9.94319C26.6673 10.4773 26.5905 10.6794 26.2787 11.1482L26.2808 11.1529L26.0612 11.4999C26.0361 11.5365 26.0133 11.5616 25.9814 11.5723C25.9464 11.5896 25.9008 11.5927 25.8375 11.5927H25.7159L25.535 12.1937L26.1554 12.2044C26.5197 12.2029 26.7486 12.0327 26.8719 11.8039L27.262 11.136H27.2558L27.2968 11.0889C27.5593 10.5244 29.5555 7.10289 29.5555 7.10289ZM23.0072 14.9968H22.7439L23.7181 11.7774H24.0413L24.1439 11.4457L24.1538 11.8145C24.1417 12.0425 24.3212 12.2446 24.7928 12.2111H25.3381L25.5257 11.5912H25.3205C25.2026 11.5912 25.1479 11.5615 25.1547 11.4977L25.1447 11.1224H24.1349V11.1244C23.8085 11.1312 22.8335 11.1557 22.6361 11.2082C22.3972 11.2697 22.1455 11.4506 22.1455 11.4506L22.2444 11.1185H21.2998L21.103 11.7774L20.1158 15.046H19.9242L19.7363 15.6614H21.6177L21.5546 15.8667H22.4817L22.5432 15.6614H22.8033L23.0072 14.9968ZM22.2352 12.4315C22.084 12.4733 21.8025 12.6002 21.8025 12.6002L22.0528 11.7774H22.8033L22.6223 12.3769C22.6223 12.3769 22.3904 12.3905 22.2352 12.4315ZM22.2497 13.607C22.2497 13.607 22.0139 13.6365 21.8587 13.6716C21.7059 13.7178 21.4193 13.8637 21.4193 13.8637L21.6779 13.0075H22.4323L22.2497 13.607ZM21.8291 15.0044H21.0763L21.2945 14.2817H22.045L21.8291 15.0044ZM23.6421 13.0075H24.7273L24.5713 13.5121H23.4718L23.3067 14.0637H24.2688L23.5403 15.0886C23.4893 15.1639 23.4435 15.1905 23.3927 15.2117C23.3417 15.2376 23.2748 15.2679 23.1973 15.2679H22.9304L22.747 15.8721H23.4451C23.808 15.8721 24.0223 15.7071 24.1806 15.4907L24.6802 14.8075L24.7874 15.5012C24.8102 15.6311 24.9036 15.7071 24.9669 15.7367C25.0368 15.7717 25.109 15.8318 25.211 15.8408C25.3205 15.8454 25.3995 15.8491 25.4521 15.8491H25.7951L26.0011 15.173H25.8658C25.7881 15.173 25.6543 15.16 25.6316 15.1357C25.6088 15.1061 25.6088 15.0606 25.5965 14.9913L25.4877 14.2961H25.0421L25.2375 14.0637H26.3349L26.5037 13.5121H25.4877L25.646 13.0075H26.6589L26.8467 12.3852H23.8269L23.6421 13.0075ZM14.4769 15.1449L14.7302 14.303H15.7712L15.9614 13.6769H14.9194L15.0785 13.1587H16.0967L16.2853 12.5524H13.7377L13.553 13.1587H14.1318L13.9774 13.6769H13.397L13.2047 14.3137H13.7833L13.4457 15.4275C13.4002 15.5749 13.4671 15.6312 13.5096 15.6996C13.553 15.7663 13.597 15.8105 13.6959 15.8356C13.7979 15.8583 13.8678 15.872 13.9628 15.872H15.1363L15.3454 15.1783L14.8252 15.2497C14.7248 15.2497 14.4466 15.2377 14.4769 15.1449ZM14.5963 11.1148L14.3325 11.5911C14.2761 11.6952 14.2253 11.7598 14.1795 11.7895C14.1392 11.8146 14.0594 11.8251 13.9438 11.8251H13.8061L13.6222 12.4345H14.0793C14.2991 12.4345 14.4678 12.354 14.5484 12.3137C14.6351 12.2674 14.6578 12.2939 14.7248 12.2293L14.8792 12.0957H16.3066L16.496 11.4612H15.4512L15.6336 11.1148H14.5963ZM16.7036 15.1571C16.6793 15.1221 16.6968 15.0604 16.734 14.932L17.1241 13.6418H18.512C18.7143 13.6389 18.8603 13.6366 18.9553 13.6298C19.0573 13.6191 19.1683 13.5827 19.2892 13.5173C19.414 13.4489 19.4778 13.3767 19.5317 13.2938C19.5919 13.2112 19.6885 13.0303 19.7714 12.7513L20.2618 11.1186L18.8216 11.127C18.8216 11.127 18.3781 11.1923 18.1828 11.2645C17.9858 11.345 17.7043 11.5699 17.7043 11.5699L17.8343 11.1223H16.9446L15.6991 15.2497C15.6549 15.41 15.6253 15.5263 15.6185 15.5961C15.6161 15.6714 15.7135 15.7459 15.7766 15.8021C15.8511 15.8583 15.9613 15.8492 16.067 15.8583C16.1782 15.8667 16.3363 15.8719 16.5545 15.8719H17.2382L17.4481 15.1639L16.836 15.2217C16.7706 15.2217 16.7233 15.1867 16.7036 15.1571ZM17.3759 12.7704H18.8336L18.741 13.0606C18.7279 13.0674 18.6968 13.0462 18.5484 13.0637H17.2861L17.3759 12.7704ZM17.6679 11.7971H19.1379L19.0322 12.1466C19.0322 12.1466 18.3393 12.1398 18.2284 12.1602C17.7401 12.2446 17.4549 12.5053 17.4549 12.5053L17.6679 11.7971ZM18.7736 14.0325C18.7615 14.0759 18.7424 14.1023 18.7158 14.1221C18.6862 14.1412 18.6383 14.148 18.5668 14.148H18.3591L18.3714 13.7946H17.5074L17.4723 15.5225C17.471 15.6471 17.483 15.7193 17.5744 15.7771C17.6657 15.8492 17.947 15.8584 18.3256 15.8584H18.867L19.0625 15.2116L18.5912 15.2375L18.4344 15.2466C18.413 15.2375 18.3926 15.2291 18.3698 15.2064C18.35 15.1867 18.3165 15.1988 18.3219 15.0741L18.3256 14.6312L18.8199 14.6108C19.0868 14.6108 19.2009 14.524 19.2982 14.4413C19.3911 14.3622 19.4215 14.2711 19.4565 14.148L19.5395 13.7559H18.8602L18.7736 14.0325Z" fill="#FEFEFE"/>
</svg>
