<svg width="37" height="20" viewBox="0 0 37 20" fill="none" xmlns="http://www.w3.org/2000/svg">
<path fill-rule="evenodd" clip-rule="evenodd" d="M2.67896 20.0004C10.2319 16.8298 20.8297 13.9561 34.8657 16.8336L35.0128 13.3465C20.2042 11.7628 9.57844 16.3826 2.67896 19.6566V20.0004Z" fill="#E7A83A"/>
<path fill-rule="evenodd" clip-rule="evenodd" d="M10.5782 10.8043L13.8517 0.231993H16.7726L13.4989 10.8043H10.5782ZM9.27249 0.234876L6.6451 4.71649C5.97628 5.89022 5.58535 6.48315 5.39733 7.22484H5.35727C5.40386 6.28457 5.26993 5.1302 5.2573 4.47773L4.96722 0.234876H0.0505096L0 0.519243C1.26318 0.519243 2.01221 1.14077 2.21834 2.41207L3.17664 10.8043H6.20262L12.3209 0.234876H9.27249ZM31.9866 10.8043L31.9061 9.23197L28.2588 9.22907L27.5129 10.8041H24.342L30.0917 0.251996H33.9839L34.9577 10.8041L31.9866 10.8043ZM31.6517 4.56806C31.6193 3.78671 31.5921 2.72616 31.6465 2.0844H31.6033C31.4256 2.60921 30.6621 4.18532 30.3262 4.96045L29.2395 7.2779H31.8003L31.6517 4.56806ZM19.839 11.1047C17.7768 11.1047 16.4084 10.4641 15.4313 9.89288L16.8227 7.81154C17.6998 8.29204 18.3884 8.8465 19.9728 8.8465C20.4823 8.8465 20.9733 8.71684 21.2521 8.24402C21.6583 7.55623 21.1583 7.18629 20.0173 6.55361L19.4539 6.19483C17.7625 5.06272 17.0309 3.98751 17.8271 2.11059C18.3366 0.910015 19.6804 0 21.8973 0C23.4262 0 24.8594 0.647714 25.6946 1.28058L24.095 3.11812C23.28 2.47248 22.6045 2.14585 21.8314 2.14585C21.215 2.14585 20.7468 2.37866 20.5851 2.69272C20.2809 3.28309 20.6834 3.68563 21.5723 4.22609L22.2421 4.64347C24.2956 5.91215 24.7849 7.24241 24.2702 8.4861C23.3851 10.6268 21.652 11.1047 19.839 11.1047ZM35.7566 1.86726H35.5642V0.721125H36.0082C36.2907 0.721125 36.4349 0.818043 36.4349 1.05066C36.4349 1.2581 36.3046 1.34389 36.1295 1.36327L36.4573 1.86726H36.2397L35.9375 1.37729H35.7566V1.86726ZM35.9712 1.21665C36.1156 1.21665 36.2425 1.20284 36.2425 1.03664C36.2425 0.89826 36.104 0.881558 35.9884 0.881558H35.7564V1.21665H35.9712ZM35.9654 2.3102C35.3581 2.3102 34.9256 1.86457 34.9256 1.2748C34.9256 0.651835 35.4059 0.239414 35.9654 0.239414C36.5198 0.239414 37 0.651835 37 1.2748C37 1.89757 36.5198 2.3102 35.9654 2.3102ZM35.9654 0.419433C35.5078 0.419433 35.1518 0.770821 35.1518 1.2748C35.1518 1.74538 35.4627 2.13017 35.9654 2.13017C36.4177 2.13017 36.7738 1.78147 36.7738 1.2748C36.7738 0.770821 36.4177 0.419433 35.9654 0.419433Z" fill="#1D5B99"/>
</svg>
