<svg width="50" height="50" viewBox="0 0 50 50" fill="none" xmlns="http://www.w3.org/2000/svg">
<g clip-path="url(#clip0_799_453)">
<path d="M0.269397 2.2694L0 2.52802V16.9892L0.269397 17.2478C0.431035 17.4203 0.657328 17.5172 0.862069 17.5172C1.06681 17.5172 1.2931 17.4203 1.45474 17.2478L1.72414 16.9892V3.72414H48.2759V25.6099L48.5453 25.8685C48.8901 26.2241 49.3858 26.2241 49.7306 25.8685L50 25.6099V2.52802L49.7306 2.2694L49.472 2H0.528017L0.269397 2.2694Z" fill="#FCF4DA"/>
<path d="M7.16595 5.71767C6.99354 5.87931 6.89655 6.09483 6.89655 6.32112C6.89655 7.63578 5.63578 8.89655 4.32112 8.89655C4.09483 8.89655 3.87931 8.99353 3.71767 9.16595L3.44828 9.42457V30.7823L3.71767 31.0409C3.87931 31.2134 4.09483 31.3103 4.32112 31.3103C5.63578 31.3103 6.89655 32.5711 6.89655 33.8858C6.89655 34.1121 6.99354 34.3276 7.16595 34.4892L7.42457 34.7586H28.7823L29.0409 34.4892C29.3966 34.1444 29.3966 33.6487 29.0409 33.3039L28.7823 33.0345H18.6422C10.1509 33.0345 8.51293 33.0129 8.51293 32.8836C8.51293 32.5388 7.72629 31.2026 7.26293 30.7823C6.81035 30.3621 5.61422 29.694 5.3125 29.694C5.20474 29.694 5.17241 27.7004 5.17241 20.1034C5.17241 12.0647 5.19397 10.5129 5.32328 10.5129C5.6681 10.5129 7.00431 9.72629 7.42457 9.26293C7.84483 8.81034 8.51293 7.61422 8.51293 7.30172C8.51293 7.20474 11.8858 7.17241 25 7.17241C38.8578 7.17241 41.4871 7.19396 41.4871 7.32328C41.4871 7.6681 42.2737 9.00431 42.7371 9.42457C43.1897 9.84483 44.3858 10.5129 44.6983 10.5129C44.7953 10.5129 44.8276 11.9246 44.8276 17.194V23.8858L45.097 24.1444C45.4418 24.5 45.9375 24.5 46.2823 24.1444L46.5517 23.8858V9.42457L46.2823 9.16595C46.1207 8.99353 45.9052 8.89655 45.6789 8.89655C44.3642 8.89655 43.1035 7.63578 43.1035 6.32112C43.1035 6.09483 43.0065 5.87931 42.8341 5.71767L42.5754 5.44828H7.42457L7.16595 5.71767Z" fill="#FCF4DA"/>
<path d="M8.89009 16.0625C8.62069 16.3211 8.62069 16.3427 8.62069 18.3793C8.62069 20.4159 8.62069 20.4375 8.89009 20.6961L9.14871 20.9655H40.8513L41.1099 20.6961C41.3793 20.4375 41.3793 20.4159 41.3793 18.3793C41.3793 16.3427 41.3793 16.3211 41.1099 16.0625L40.8513 15.7931H9.14871L8.89009 16.0625ZM39.6552 19.2414H10.3448V17.5172H39.6552V19.2414Z" fill="#FCF4DA"/>
<path d="M0.269397 19.5108C-0.269397 20.0388 0.107759 20.9655 0.862069 20.9655C1.30388 20.9655 1.72414 20.5453 1.72414 20.1034C1.72414 19.6616 1.30388 19.2414 0.862069 19.2414C0.657328 19.2414 0.431035 19.3384 0.269397 19.5108Z" fill="#FCF4DA"/>
<path d="M0.269397 22.9591L0 23.2177V37.6789L0.269397 37.9375L0.528017 38.2069H28.7823L29.0409 37.9375C29.3966 37.5927 29.3966 37.097 29.0409 36.7522L28.7823 36.4828H1.72414V23.2177L1.45474 22.9591C1.2931 22.7866 1.06681 22.6897 0.862069 22.6897C0.657328 22.6897 0.431035 22.7866 0.269397 22.9591Z" fill="#FCF4DA"/>
<path d="M10.6142 22.9591C10.4418 23.1207 10.3448 23.347 10.3448 23.5517C10.3448 23.7565 10.4418 23.9828 10.6142 24.1444L10.8728 24.4138H39.1272L39.3858 24.1444C39.7414 23.7996 39.7414 23.3039 39.3858 22.9591L39.1272 22.6897H10.8728L10.6142 22.9591Z" fill="#FCF4DA"/>
<path d="M35.8836 27.9052C33.4806 28.8642 31.4116 29.7586 31.2823 29.8879C31.0453 30.1034 31.0345 30.2004 31.0345 31.7629C31.0345 34.3707 31.2931 36.1379 31.9612 38.1961C32.9957 41.3642 34.9892 44.3922 37.403 46.4612C38.6315 47.5172 40.1724 48.5517 40.5172 48.5517C40.819 48.5517 42.3168 47.5819 43.319 46.7414C46.2284 44.2845 48.4483 40.7823 49.3535 37.2371C49.7953 35.5022 49.9138 34.6078 49.9677 32.3879C50.0216 30.3405 50.0108 30.1573 49.8276 29.9418C49.6013 29.6832 40.8405 26.1272 40.4634 26.1487C40.3448 26.1487 38.2866 26.9461 35.8836 27.9052ZM44.4612 29.5L48.3082 31.0409L48.2435 32.819C48.1573 34.8341 47.9418 36.1164 47.3707 37.8297C46.5625 40.2435 45.2155 42.431 43.3728 44.2953C42.306 45.3836 40.7866 46.6121 40.5172 46.6121C40.2478 46.6121 38.7392 45.3944 37.6616 44.306C35.8405 42.4634 34.4828 40.2543 33.6638 37.8297C33.0927 36.0948 32.8664 34.8341 32.7909 32.819L32.7263 31.0409L36.5409 29.5108C38.6422 28.6703 40.4203 27.9806 40.4849 27.9698C40.5603 27.9698 42.3491 28.6595 44.4612 29.5Z" fill="#FCF4DA"/>
<path d="M41.2069 36.2888L39.6552 37.819L38.9655 37.1509C38.5776 36.7737 38.1789 36.4828 38.0496 36.4828C37.4569 36.4828 36.972 37.0539 37.1013 37.5927C37.1444 37.722 37.6509 38.3039 38.2328 38.8858C39.7414 40.3621 39.5366 40.4052 41.9289 38.0345C43.0065 36.9569 43.8685 36.0086 43.9116 35.8578C44.0517 35.2974 43.5884 34.7586 42.9741 34.7586C42.8233 34.7586 42.2091 35.2866 41.2069 36.2888Z" fill="#FCF4DA"/>
</g>
<defs>
<clipPath id="clip0_799_453">
<rect width="49.9999" height="50" fill="white" transform="translate(0 -0.000244141)"/>
</clipPath>
</defs>
</svg>
