<svg width="90" height="90" viewBox="0 0 90 90" fill="none" xmlns="http://www.w3.org/2000/svg">
<path d="M41.2547 37.5H48.7547V56.25H41.2547V37.5ZM41.251 60H48.751V67.5H41.251V60Z" fill="#BCBCBC"/>
<path d="M51.6335 15.7498C50.3285 13.2936 47.786 11.7673 45.0035 11.7673C42.221 11.7673 39.6785 13.2936 38.3735 15.7536L10.856 67.7398C10.2454 68.8814 9.94288 70.1625 9.97839 71.4567C10.0139 72.7509 10.3862 74.0134 11.0585 75.1198C11.7211 76.2313 12.6621 77.1507 13.7887 77.7872C14.9152 78.4238 16.1883 78.7556 17.4822 78.7498H72.5247C75.1797 78.7498 77.5835 77.3923 78.9522 75.1198C79.6235 74.013 79.9951 72.7506 80.0306 71.4566C80.0661 70.1627 79.7643 68.8818 79.1547 67.7398L51.6335 15.7498ZM17.4822 71.2498L45.0035 19.2636L72.5435 71.2498H17.4822Z" fill="#BCBCBC"/>
</svg>
