<svg width="6" height="12" viewBox="0 0 6 12" fill="none" xmlns="http://www.w3.org/2000/svg">
<path d="M5.26362 0.600142H4.67915C3.05469 0.600142 1.7331 1.92176 1.7331 3.54623V4.78957H0.734547C0.631723 4.78957 0.54834 4.87296 0.54834 4.97578V6.46544C0.54834 6.56826 0.631723 6.65164 0.734547 6.65164H1.73303V11.2139C1.73303 11.3168 1.81641 11.4001 1.91923 11.4001H3.40889C3.51171 11.4001 3.59509 11.3168 3.59509 11.2139V6.65164H5.07678C5.1796 6.65164 5.26299 6.56826 5.26299 6.46544V4.97578C5.26299 4.87296 5.1796 4.78957 5.07678 4.78957H3.59509V3.54623C3.59509 2.94851 4.08139 2.46221 4.67908 2.46221H5.26355C5.36637 2.46221 5.44975 2.37883 5.44975 2.276V0.786348C5.44983 0.683525 5.36644 0.600142 5.26362 0.600142Z" fill="#2C5697"/>
</svg>
