<svg width="18" height="18" viewBox="0 0 18 18" fill="none" xmlns="http://www.w3.org/2000/svg">
<g clip-path="url(#clip0_916_425)">
<path d="M9.1 18C9.1 18 15.7 11.6033 15.7 6.75C15.7 4.95979 15.0046 3.2429 13.7669 1.97703C12.5292 0.711159 10.8504 0 9.1 0C7.34957 0 5.67084 0.711159 4.4331 1.97703C3.19536 3.2429 2.5 4.95979 2.5 6.75C2.5 11.6033 9.1 18 9.1 18ZM9.1 10.125C8.22479 10.125 7.38542 9.76942 6.76655 9.13649C6.14768 8.50355 5.8 7.64511 5.8 6.75C5.8 5.85489 6.14768 4.99645 6.76655 4.36351C7.38542 3.73058 8.22479 3.375 9.1 3.375C9.97521 3.375 10.8146 3.73058 11.4335 4.36351C12.0523 4.99645 12.4 5.85489 12.4 6.75C12.4 7.64511 12.0523 8.50355 11.4335 9.13649C10.8146 9.76942 9.97521 10.125 9.1 10.125Z" fill="white"/>
</g>
<defs>
<clipPath id="clip0_916_425">
<rect width="18" height="18" fill="white"/>
</clipPath>
</defs>
</svg>
