<svg width="115" height="48" viewBox="0 0 115 48" fill="none" xmlns="http://www.w3.org/2000/svg">
<g clip-path="url(#clip0_799_598)">
<path d="M13.8447 0H14.8444C18.3149 0.0747192 21.7288 1.45703 24.1807 3.90408C23.2754 4.81939 22.3512 5.69734 21.4647 6.61265C20.0878 5.37979 18.428 4.42711 16.6174 4.09088C13.9391 3.53048 11.0533 4.03484 8.80878 5.5479C6.35681 7.13569 4.69701 9.82558 4.33865 12.7023C3.94256 15.5416 4.7536 18.5304 6.62087 20.7346C8.41269 22.8828 11.1476 24.2277 13.9768 24.3211C16.6174 24.4706 19.3711 23.6673 21.295 21.8367C22.8039 20.5478 23.5017 18.5864 23.7281 16.6811C20.5971 16.6811 17.4661 16.6998 14.3351 16.6811V12.833H27.5192C28.1982 16.9613 27.2174 21.6125 24.0487 24.5639C21.9362 26.6561 19.0127 27.889 16.0327 28.1318C13.1469 28.412 10.1668 27.8703 7.60166 26.488C4.52726 24.8628 2.07529 22.1169 0.868169 18.8853C-0.263509 15.9152 -0.282371 12.5528 0.773862 9.56406C1.73579 6.83681 3.5842 4.42711 5.96072 2.74593C8.24294 1.08343 11.0156 0.168118 13.8447 0Z" fill="#3780FF"/>
<path d="M91.3838 1.04443H95.4909V28.1985C94.1283 28.1985 92.7464 28.2175 91.3838 28.1794C91.403 19.1471 91.3838 10.0958 91.3838 1.04443Z" fill="#38B137"/>
<path d="M37.217 10.6174C39.7213 10.1338 42.4343 10.6755 44.5022 12.2038C46.3804 13.5581 47.6895 15.6862 48.0879 18.0078C48.6001 20.697 47.9551 23.6377 46.2476 25.7658C44.4074 28.1454 41.3908 29.4223 38.4502 29.2288C35.7562 29.0741 33.138 27.7005 31.5444 25.4562C29.7421 22.9799 29.3057 19.5749 30.2923 16.6729C31.2788 13.5581 34.0677 11.1785 37.217 10.6174ZM37.7862 14.2933C36.7617 14.5641 35.8131 15.1639 35.1301 16.0151C33.2898 18.2593 33.4036 21.9158 35.4336 24.0053C36.5909 25.2047 38.3363 25.7658 39.949 25.4369C41.4477 25.166 42.7568 24.1407 43.4777 22.7864C44.7299 20.4842 44.3694 17.3113 42.4532 15.5121C41.2201 14.3513 39.4177 13.8676 37.7862 14.2933Z" fill="#FA3913"/>
<path d="M57.7522 10.6189C60.6191 10.0576 63.7518 10.8705 65.8972 12.9221C69.3907 16.1157 69.7704 22.0963 66.7896 25.7737C64.9859 28.0963 62.062 29.3737 59.1762 29.2382C56.4232 29.1608 53.7082 27.7673 52.0754 25.4641C50.2337 22.9286 49.835 19.4447 50.8793 16.4834C51.9235 13.4641 54.6575 11.1609 57.7522 10.6189ZM58.3218 14.2963C57.2966 14.5673 56.3473 15.1673 55.6638 15.9996C53.8411 18.206 53.917 21.806 55.8726 23.9157C57.0307 25.1737 58.8344 25.7931 60.5052 25.4447C61.9861 25.1544 63.3151 24.1479 64.0366 22.7931C65.2707 20.4705 64.91 17.2963 62.9734 15.4963C61.7393 14.335 59.9356 13.8705 58.3218 14.2963Z" fill="#FCBD06"/>
<path d="M74.214 11.7382C76.3692 10.3488 79.2367 9.96291 81.5606 11.1593C82.2915 11.4873 82.8912 12.047 83.4722 12.6066C83.4909 12.0855 83.4722 11.5452 83.4909 11.0049C84.7466 11.0242 86.0022 11.0049 87.2766 11.0242V28.0439C87.2579 30.6104 86.6207 33.3312 84.8215 35.203C82.8537 37.2677 79.8364 37.9045 77.1189 37.48C74.214 37.0362 71.6839 34.8557 70.5595 32.0962C71.6839 31.5366 72.8646 31.0928 74.0266 30.5718C74.6825 32.1541 76.0132 33.5049 77.6811 33.8136C79.3491 34.1224 81.2795 33.6979 82.3664 32.2699C83.5284 30.8033 83.5284 28.7965 83.4722 27.0019C82.6101 27.8703 81.6168 28.6421 80.4174 28.9316C77.8123 29.6841 74.9449 28.7579 72.9396 26.944C70.9155 25.1301 69.7161 22.3321 69.8286 19.5534C69.8848 16.408 71.609 13.3784 74.214 11.7382ZM78.0934 14.2082C76.9502 14.4012 75.882 15.0572 75.1511 15.9642C73.3894 18.1254 73.3894 21.5795 75.1698 23.7022C76.1818 24.9564 77.8123 25.6511 79.3866 25.4775C80.8671 25.3231 82.2353 24.3583 82.9662 23.0268C84.2031 20.7691 83.9969 17.7009 82.329 15.7326C81.2982 14.5169 79.649 13.9187 78.0934 14.2082Z" fill="#3780FF"/>
<path d="M100.496 12.7398C102.832 10.5735 106.434 9.83843 109.432 10.9797C112.274 12.0435 114.085 14.7321 115 17.4981C110.775 19.239 106.57 20.9605 102.346 22.7013C102.93 23.8039 103.825 24.8097 105.032 25.2159C106.726 25.8155 108.751 25.6027 110.172 24.4809C110.736 24.0553 111.184 23.4944 111.612 22.9528C112.683 23.6685 113.754 24.3648 114.825 25.0805C113.306 27.3436 110.756 28.9297 108.011 29.1812C104.974 29.5487 101.742 28.3881 99.7759 26.0283C96.5442 22.3145 96.8557 16.0861 100.496 12.7398ZM102.579 16.3182C101.917 17.266 101.645 18.4266 101.664 19.5678C104.487 18.4073 107.31 17.2467 110.133 16.0668C109.666 14.9836 108.536 14.3259 107.388 14.1519C105.538 13.823 103.611 14.8095 102.579 16.3182Z" fill="#FA3913"/>
<path d="M2.43473 31.7698H3.36334L5.73204 37.6642L8.09577 31.7698H9.02934L6.08958 39H5.36457L2.43473 31.7698ZM2.13182 31.7698H2.95118L3.08525 36.1794V39H2.13182V31.7698ZM8.50793 31.7698H9.32729V39H8.37385V36.1794L8.50793 31.7698ZM12.3813 38.4438L13.876 33.627H14.8592L12.704 39.8293C12.6544 39.9617 12.5882 40.1041 12.5054 40.2564C12.426 40.4119 12.3233 40.5593 12.1975 40.6983C12.0717 40.8374 11.9194 40.9499 11.7407 41.036C11.5652 41.1254 11.355 41.1701 11.11 41.1701C11.0372 41.1701 10.9445 41.1601 10.8319 41.1403C10.7194 41.1204 10.6399 41.1039 10.5936 41.0906L10.5886 40.3457C10.6151 40.349 10.6565 40.3524 10.7128 40.3557C10.7723 40.3623 10.8137 40.3656 10.8369 40.3656C11.0455 40.3656 11.2226 40.3375 11.3682 40.2812C11.5139 40.2282 11.6364 40.1372 11.7357 40.0081C11.8383 39.8823 11.9261 39.7085 11.9989 39.4867L12.3813 38.4438ZM11.2838 33.627L12.6792 37.7983L12.9176 38.7666L12.2571 39.1043L10.2807 33.627H11.2838ZM20.9274 35.6183H19.0951L19.0851 34.8486H20.7487C21.0235 34.8486 21.2635 34.8022 21.4687 34.7095C21.674 34.6168 21.8329 34.4844 21.9454 34.3123C22.0613 34.1368 22.1192 33.9282 22.1192 33.6866C22.1192 33.4217 22.0679 33.2065 21.9653 33.041C21.866 32.8722 21.712 32.7497 21.5035 32.6735C21.2982 32.5941 21.0367 32.5544 20.7189 32.5544H19.3086V39H18.3502V31.7698H20.7189C21.0897 31.7698 21.4207 31.8078 21.712 31.884C22.0034 31.9568 22.25 32.0727 22.452 32.2316C22.6572 32.3872 22.8128 32.5858 22.9187 32.8275C23.0247 33.0692 23.0776 33.3588 23.0776 33.6965C23.0776 33.9945 23.0015 34.2643 22.8492 34.5059C22.6969 34.7443 22.4851 34.9396 22.2136 35.0919C21.9454 35.2442 21.6309 35.3418 21.2701 35.3849L20.9274 35.6183ZM20.8828 39H18.7177L19.2589 38.2204H20.8828C21.1873 38.2204 21.4455 38.1674 21.6574 38.0615C21.8726 37.9555 22.0365 37.8065 22.149 37.6145C22.2616 37.4192 22.3179 37.1891 22.3179 36.9243C22.3179 36.6561 22.2699 36.4244 22.1739 36.2291C22.0779 36.0337 21.9272 35.8831 21.722 35.7772C21.5167 35.6712 21.2519 35.6183 20.9274 35.6183H19.5618L19.5718 34.8486H21.4389L21.6425 35.1267C21.9901 35.1565 22.2848 35.2558 22.5264 35.4246C22.7681 35.5901 22.9518 35.802 23.0776 36.0602C23.2068 36.3185 23.2713 36.6032 23.2713 36.9144C23.2713 37.3646 23.172 37.7453 22.9734 38.0565C22.778 38.3644 22.5016 38.5994 22.1441 38.7616C21.7865 38.9205 21.3661 39 20.8828 39ZM27.8349 37.7585V33.627H28.7585V39H27.8796L27.8349 37.7585ZM28.0087 36.6263L28.3911 36.6164C28.3911 36.9739 28.353 37.305 28.2769 37.6096C28.204 37.9108 28.0848 38.1724 27.9193 38.3942C27.7538 38.616 27.537 38.7898 27.2688 38.9156C27.0006 39.0381 26.6746 39.0993 26.2905 39.0993C26.029 39.0993 25.789 39.0612 25.5705 38.9851C25.3553 38.909 25.1699 38.7914 25.0143 38.6325C24.8587 38.4736 24.7379 38.2667 24.6518 38.0118C24.569 37.7569 24.5277 37.4507 24.5277 37.0931V33.627H25.4463V37.1031C25.4463 37.3447 25.4728 37.545 25.5258 37.7039C25.5821 37.8595 25.6566 37.9837 25.7493 38.0764C25.8453 38.1657 25.9512 38.2286 26.0671 38.2651C26.1863 38.3015 26.3087 38.3197 26.4345 38.3197C26.8252 38.3197 27.1347 38.2452 27.3631 38.0962C27.5916 37.9439 27.7554 37.7403 27.8548 37.4854C27.9574 37.2272 28.0087 36.9408 28.0087 36.6263ZM33.2874 37.5748C33.2874 37.4424 33.2576 37.3199 33.198 37.2073C33.1417 37.0915 33.0242 36.9872 32.8454 36.8945C32.67 36.7985 32.4051 36.7157 32.0509 36.6462C31.7529 36.5833 31.4831 36.5088 31.2415 36.4227C31.0031 36.3367 30.7995 36.2324 30.6307 36.1099C30.4651 35.9874 30.3377 35.8434 30.2483 35.6779C30.1589 35.5123 30.1142 35.3187 30.1142 35.0969C30.1142 34.885 30.1606 34.6847 30.2533 34.496C30.3493 34.3073 30.4833 34.1401 30.6555 33.9945C30.8309 33.8488 31.0412 33.7346 31.2861 33.6518C31.5311 33.569 31.8042 33.5277 32.1055 33.5277C32.5359 33.5277 32.9034 33.6038 33.2079 33.7561C33.5125 33.9084 33.7459 34.112 33.9081 34.3669C34.0703 34.6185 34.1514 34.8982 34.1514 35.2061H33.2328C33.2328 35.0571 33.1881 34.9131 33.0987 34.7741C33.0126 34.6317 32.8851 34.5142 32.7163 34.4215C32.5508 34.3288 32.3472 34.2825 32.1055 34.2825C31.8506 34.2825 31.6437 34.3222 31.4848 34.4017C31.3292 34.4778 31.215 34.5755 31.1421 34.6946C31.0726 34.8138 31.0379 34.9396 31.0379 35.072C31.0379 35.1714 31.0544 35.2607 31.0875 35.3402C31.1239 35.4163 31.1868 35.4875 31.2762 35.5537C31.3656 35.6166 31.4914 35.6762 31.6536 35.7325C31.8158 35.7888 32.0227 35.845 32.2743 35.9013C32.7146 36.0006 33.0772 36.1198 33.3619 36.2589C33.6466 36.3979 33.8584 36.5684 33.9975 36.7703C34.1365 36.9723 34.2061 37.2173 34.2061 37.5053C34.2061 37.7403 34.1564 37.9555 34.0571 38.1508C33.9611 38.3462 33.8204 38.515 33.635 38.6574C33.4529 38.7964 33.2344 38.9056 32.9795 38.9851C32.7279 39.0612 32.4448 39.0993 32.1303 39.0993C31.6569 39.0993 31.2564 39.0149 30.9286 38.8461C30.6009 38.6772 30.3526 38.4587 30.1837 38.1906C30.0149 37.9224 29.9305 37.6394 29.9305 37.3414H30.8541C30.8674 37.593 30.9402 37.7933 31.0726 37.9423C31.205 38.0879 31.3673 38.1922 31.5593 38.2551C31.7513 38.3147 31.9416 38.3445 32.1303 38.3445C32.3819 38.3445 32.5922 38.3114 32.761 38.2452C32.9331 38.179 33.0639 38.0879 33.1533 37.9721C33.2427 37.8562 33.2874 37.7238 33.2874 37.5748ZM36.4109 33.627V39H35.4872V33.627H36.4109ZM35.4177 32.2018C35.4177 32.0528 35.4624 31.927 35.5518 31.8244C35.6445 31.7218 35.7802 31.6704 35.959 31.6704C36.1344 31.6704 36.2685 31.7218 36.3612 31.8244C36.4572 31.927 36.5052 32.0528 36.5052 32.2018C36.5052 32.3441 36.4572 32.4666 36.3612 32.5693C36.2685 32.6686 36.1344 32.7182 35.959 32.7182C35.7802 32.7182 35.6445 32.6686 35.5518 32.5693C35.4624 32.4666 35.4177 32.3441 35.4177 32.2018ZM38.8044 34.7741V39H37.8857V33.627H38.7547L38.8044 34.7741ZM38.5859 36.1099L38.2035 36.095C38.2068 35.7275 38.2615 35.3882 38.3674 35.077C38.4733 34.7625 38.6223 34.4894 38.8143 34.2576C39.0063 34.0259 39.2348 33.8471 39.4996 33.7213C39.7678 33.5922 40.0641 33.5277 40.3885 33.5277C40.6533 33.5277 40.8917 33.5641 41.1036 33.6369C41.3154 33.7064 41.4959 33.819 41.6448 33.9746C41.7971 34.1302 41.913 34.3321 41.9925 34.5804C42.0719 34.8254 42.1116 35.125 42.1116 35.4792V39H41.188V35.4693C41.188 35.1879 41.1466 34.9628 41.0638 34.794C40.9811 34.6218 40.8602 34.4977 40.7013 34.4215C40.5424 34.3421 40.3471 34.3023 40.1154 34.3023C39.8869 34.3023 39.6784 34.3503 39.4897 34.4463C39.3043 34.5423 39.1437 34.6748 39.008 34.8436C38.8756 35.0124 38.7713 35.2061 38.6951 35.4246C38.6223 35.6398 38.5859 35.8682 38.5859 36.1099ZM45.7367 39.0993C45.3626 39.0993 45.0233 39.0364 44.7187 38.9106C44.4174 38.7815 44.1576 38.6011 43.9391 38.3693C43.7239 38.1376 43.5583 37.8628 43.4425 37.545C43.3266 37.2272 43.2687 36.8796 43.2687 36.5022V36.2936C43.2687 35.8566 43.3332 35.4676 43.4623 35.1267C43.5915 34.7824 43.7669 34.491 43.9887 34.2527C44.2105 34.0143 44.4621 33.8339 44.7435 33.7114C45.0249 33.5889 45.3162 33.5277 45.6175 33.5277C46.0015 33.5277 46.3326 33.5939 46.6107 33.7263C46.8921 33.8587 47.1222 34.0441 47.3009 34.2825C47.4797 34.5175 47.6121 34.7956 47.6982 35.1167C47.7843 35.4345 47.8273 35.7821 47.8273 36.1596V36.5717H43.8149V35.8219H46.9086V35.7524C46.8954 35.514 46.8457 35.2823 46.7596 35.0571C46.6769 34.832 46.5445 34.6466 46.3624 34.501C46.1803 34.3553 45.932 34.2825 45.6175 34.2825C45.4089 34.2825 45.2169 34.3272 45.0415 34.4165C44.866 34.5026 44.7154 34.6317 44.5896 34.8039C44.4638 34.976 44.3661 35.1862 44.2966 35.4345C44.2271 35.6828 44.1923 35.9692 44.1923 36.2936V36.5022C44.1923 36.7571 44.2271 36.9971 44.2966 37.2222C44.3694 37.444 44.4737 37.6394 44.6094 37.8082C44.7485 37.977 44.9157 38.1095 45.111 38.2055C45.3096 38.3015 45.5347 38.3495 45.7863 38.3495C46.1108 38.3495 46.3856 38.2833 46.6107 38.1508C46.8358 38.0184 47.0328 37.8413 47.2016 37.6195L47.7578 38.0615C47.6419 38.2369 47.4946 38.4041 47.3158 38.563C47.137 38.7219 46.9169 38.851 46.6554 38.9503C46.3971 39.0497 46.0909 39.0993 45.7367 39.0993ZM52.0284 37.5748C52.0284 37.4424 51.9986 37.3199 51.939 37.2073C51.8827 37.0915 51.7652 36.9872 51.5864 36.8945C51.411 36.7985 51.1461 36.7157 50.7919 36.6462C50.4939 36.5833 50.2241 36.5088 49.9825 36.4227C49.7441 36.3367 49.5405 36.2324 49.3717 36.1099C49.2061 35.9874 49.0787 35.8434 48.9893 35.6779C48.8999 35.5123 48.8552 35.3187 48.8552 35.0969C48.8552 34.885 48.9016 34.6847 48.9943 34.496C49.0903 34.3073 49.2243 34.1401 49.3965 33.9945C49.572 33.8488 49.7822 33.7346 50.0272 33.6518C50.2721 33.569 50.5453 33.5277 50.8465 33.5277C51.2769 33.5277 51.6444 33.6038 51.9489 33.7561C52.2535 33.9084 52.4869 34.112 52.6491 34.3669C52.8113 34.6185 52.8924 34.8982 52.8924 35.2061H51.9738C51.9738 35.0571 51.9291 34.9131 51.8397 34.7741C51.7536 34.6317 51.6261 34.5142 51.4573 34.4215C51.2918 34.3288 51.0882 34.2825 50.8465 34.2825C50.5916 34.2825 50.3847 34.3222 50.2258 34.4017C50.0702 34.4778 49.956 34.5755 49.8831 34.6946C49.8136 34.8138 49.7789 34.9396 49.7789 35.072C49.7789 35.1714 49.7954 35.2607 49.8285 35.3402C49.8649 35.4163 49.9278 35.4875 50.0172 35.5537C50.1066 35.6166 50.2324 35.6762 50.3946 35.7325C50.5568 35.7888 50.7637 35.845 51.0154 35.9013C51.4557 36.0006 51.8182 36.1198 52.1029 36.2589C52.3876 36.3979 52.5994 36.5684 52.7385 36.7703C52.8775 36.9723 52.9471 37.2173 52.9471 37.5053C52.9471 37.7403 52.8974 37.9555 52.7981 38.1508C52.7021 38.3462 52.5614 38.515 52.376 38.6574C52.1939 38.7964 51.9754 38.9056 51.7205 38.9851C51.4689 39.0612 51.1858 39.0993 50.8713 39.0993C50.3979 39.0993 49.9974 39.0149 49.6696 38.8461C49.3419 38.6772 49.0936 38.4587 48.9247 38.1906C48.7559 37.9224 48.6715 37.6394 48.6715 37.3414H49.5951C49.6084 37.593 49.6812 37.7933 49.8136 37.9423C49.946 38.0879 50.1083 38.1922 50.3003 38.2551C50.4923 38.3147 50.6826 38.3445 50.8713 38.3445C51.1229 38.3445 51.3332 38.3114 51.502 38.2452C51.6741 38.179 51.8049 38.0879 51.8943 37.9721C51.9837 37.8562 52.0284 37.7238 52.0284 37.5748ZM57.2822 37.5748C57.2822 37.4424 57.2524 37.3199 57.1928 37.2073C57.1366 37.0915 57.019 36.9872 56.8403 36.8945C56.6648 36.7985 56.4 36.7157 56.0457 36.6462C55.7478 36.5833 55.478 36.5088 55.2363 36.4227C54.9979 36.3367 54.7943 36.2324 54.6255 36.1099C54.46 35.9874 54.3325 35.8434 54.2431 35.6779C54.1537 35.5123 54.1091 35.3187 54.1091 35.0969C54.1091 34.885 54.1554 34.6847 54.2481 34.496C54.3441 34.3073 54.4782 34.1401 54.6503 33.9945C54.8258 33.8488 55.036 33.7346 55.281 33.6518C55.526 33.569 55.7991 33.5277 56.1003 33.5277C56.5307 33.5277 56.8982 33.6038 57.2028 33.7561C57.5073 33.9084 57.7407 34.112 57.9029 34.3669C58.0652 34.6185 58.1463 34.8982 58.1463 35.2061H57.2276C57.2276 35.0571 57.1829 34.9131 57.0935 34.7741C57.0074 34.6317 56.88 34.5142 56.7111 34.4215C56.5456 34.3288 56.342 34.2825 56.1003 34.2825C55.8454 34.2825 55.6385 34.3222 55.4796 34.4017C55.324 34.4778 55.2098 34.5755 55.137 34.6946C55.0675 34.8138 55.0327 34.9396 55.0327 35.072C55.0327 35.1714 55.0493 35.2607 55.0824 35.3402C55.1188 35.4163 55.1817 35.4875 55.2711 35.5537C55.3604 35.6166 55.4862 35.6762 55.6485 35.7325C55.8107 35.7888 56.0176 35.845 56.2692 35.9013C56.7095 36.0006 57.072 36.1198 57.3567 36.2589C57.6414 36.3979 57.8533 36.5684 57.9923 36.7703C58.1314 36.9723 58.2009 37.2173 58.2009 37.5053C58.2009 37.7403 58.1512 37.9555 58.0519 38.1508C57.9559 38.3462 57.8152 38.515 57.6298 38.6574C57.4477 38.7964 57.2292 38.9056 56.9743 38.9851C56.7227 39.0612 56.4397 39.0993 56.1252 39.0993C55.6518 39.0993 55.2512 39.0149 54.9235 38.8461C54.5957 38.6772 54.3474 38.4587 54.1786 38.1906C54.0097 37.9224 53.9253 37.6394 53.9253 37.3414H54.849C54.8622 37.593 54.935 37.7933 55.0675 37.9423C55.1999 38.0879 55.3621 38.1922 55.5541 38.2551C55.7461 38.3147 55.9365 38.3445 56.1252 38.3445C56.3768 38.3445 56.587 38.3114 56.7558 38.2452C56.928 38.179 57.0588 38.0879 57.1481 37.9721C57.2375 37.8562 57.2822 37.7238 57.2822 37.5748Z" fill="#333438"/>
</g>
<defs>
<clipPath id="clip0_799_598">
<rect width="115" height="48" fill="white"/>
</clipPath>
</defs>
</svg>
