<svg width="56" height="56" viewBox="0 0 56 56" fill="none" xmlns="http://www.w3.org/2000/svg">
<g clip-path="url(#clip0_799_437)">
<path d="M17.062 56H43.312C47.5336 56 50.9683 52.5654 50.9683 48.3438C50.9683 47.7396 50.4786 47.25 49.8745 47.25H46.5933V5.46875C46.5933 2.45325 44.14 0 41.1245 0C41.1245 0 9.65271 0 9.40576 0C6.99353 0 5.03076 1.96277 5.03076 4.375V9.84375C5.03076 10.4479 5.52039 10.9375 6.12451 10.9375H11.5933V50.2971C11.5933 53.2695 13.856 56 17.062 56ZM43.312 53.8125H21.4345C22.1223 52.8978 22.5308 51.7502 22.5308 50.5201V49.4264H48.671C48.163 51.9198 45.9528 53.8125 43.312 53.8125ZM44.4058 5.46875V47.25H21.437C20.8329 47.25 20.3433 47.7396 20.3433 48.3438V50.5312C20.3433 52.3406 18.8714 53.8125 17.062 53.8125C15.101 53.8125 13.7808 52.1155 13.7808 50.2971V4.375C13.7808 3.5863 13.5706 2.83691 13.1959 2.1875H41.1245C42.9339 2.1875 44.4058 3.65936 44.4058 5.46875ZM7.21826 8.75V4.375C7.21826 3.16888 8.19965 2.1875 9.40576 2.1875C10.6016 2.1875 11.5933 3.15179 11.5933 4.375V8.75H7.21826Z" fill="#FCF4DA"/>
<path d="M29.0942 31.2819C29.0942 33.1754 29.8864 34.9263 31.2817 36.1696V43.3131C31.2817 43.7164 31.5039 44.0873 31.8594 44.2774C32.2148 44.468 32.6468 44.447 32.9822 44.2231L35.6567 42.4402L38.3313 44.2231C38.6675 44.4474 39.0991 44.4675 39.4541 44.2774C39.8096 44.0873 40.0317 43.7164 40.0317 43.3131V36.1696C41.4276 34.9258 42.2192 33.175 42.2192 31.2819C42.2192 27.6635 39.2755 24.7194 35.6567 24.7194C32.038 24.7194 29.0942 27.6631 29.0942 31.2819ZM36.2634 40.2156C35.896 39.9708 35.4175 39.9708 35.05 40.2156L33.4692 41.2696V37.4709C34.1644 37.7166 34.9005 37.8444 35.6567 37.8444C36.413 37.8444 37.1491 37.7166 37.8442 37.4709V41.2696L36.2634 40.2156ZM40.0317 31.2819C40.0317 33.7509 38.0211 35.6569 35.6567 35.6569C33.2915 35.6569 31.2817 33.7522 31.2817 31.2819C31.2817 28.8696 33.2445 26.9069 35.6567 26.9069C38.069 26.9069 40.0317 28.8696 40.0317 31.2819Z" fill="#FCF4DA"/>
<path d="M19.2495 9.40686H38.937C39.5411 9.40686 40.0308 8.91724 40.0308 8.31311C40.0308 7.70898 39.5411 7.21936 38.937 7.21936H19.2495C18.6454 7.21936 18.1558 7.70898 18.1558 8.31311C18.1558 8.91724 18.6454 9.40686 19.2495 9.40686Z" fill="#FCF4DA"/>
<path d="M23.6245 15.9681H38.937C39.5411 15.9681 40.0308 15.4785 40.0308 14.8744C40.0308 14.2703 39.5411 13.7806 38.937 13.7806H23.6245C23.0204 13.7806 22.5308 14.2703 22.5308 14.8744C22.5308 15.4785 23.0204 15.9681 23.6245 15.9681Z" fill="#FCF4DA"/>
<path d="M23.6245 22.5319H38.937C39.5411 22.5319 40.0308 22.0422 40.0308 21.4381C40.0308 20.834 39.5411 20.3444 38.937 20.3444H23.6245C23.0204 20.3444 22.5308 20.834 22.5308 21.4381C22.5308 22.0422 23.0204 22.5319 23.6245 22.5319Z" fill="#FCF4DA"/>
<path d="M19.2495 35.6569H25.812C26.4161 35.6569 26.9058 35.1672 26.9058 34.5631C26.9058 33.959 26.4161 33.4694 25.812 33.4694H19.2495C18.6454 33.4694 18.1558 33.959 18.1558 34.5631C18.1558 35.1672 18.6454 35.6569 19.2495 35.6569Z" fill="#FCF4DA"/>
<path d="M19.2495 29.0931H25.812C26.4161 29.0931 26.9058 28.6035 26.9058 27.9994C26.9058 27.3953 26.4161 26.9056 25.812 26.9056H19.2495C18.6454 26.9056 18.1558 27.3953 18.1558 27.9994C18.1558 28.6035 18.6454 29.0931 19.2495 29.0931Z" fill="#FCF4DA"/>
<path d="M19.2495 42.2181H25.812C26.4161 42.2181 26.9058 41.7285 26.9058 41.1244C26.9058 40.5203 26.4161 40.0306 25.812 40.0306H19.2495C18.6454 40.0306 18.1558 40.5203 18.1558 41.1244C18.1558 41.7285 18.6454 42.2181 19.2495 42.2181Z" fill="#FCF4DA"/>
</g>
<defs>
<clipPath id="clip0_799_437">
<rect width="56" height="56" fill="white"/>
</clipPath>
</defs>
</svg>
