<svg width="57" height="57" viewBox="0 0 57 57" fill="none" xmlns="http://www.w3.org/2000/svg">
<path d="M26.3165 38.481C26.745 38.0526 26.745 37.3592 26.3165 36.9307C25.8876 36.5035 25.1929 36.5035 24.7635 36.9307C24.3355 37.3592 24.3355 38.0526 24.7635 38.481C25.1929 38.9082 25.8876 38.9082 26.3165 38.481Z" fill="#FCF4DA"/>
<path d="M21.1187 12.4787C21.1187 19.1232 26.535 24.5293 33.1924 24.5293C39.8498 24.5293 45.2661 19.1232 45.2661 12.4787C45.2661 5.83429 39.8498 0.428589 33.1924 0.428589C26.535 0.428589 21.1187 5.83429 21.1187 12.4787ZM43.0711 12.4787C43.0711 17.9153 38.6396 22.3382 33.1924 22.3382C27.7452 22.3382 23.3137 17.9153 23.3137 12.4787C23.3137 7.04265 27.7452 2.61972 33.1924 2.61972C38.6396 2.61972 43.0711 7.04265 43.0711 12.4787Z" fill="#FCF4DA"/>
<path d="M13.1281 56.208C13.5535 56.636 14.2462 56.6407 14.6772 56.217L19.9987 50.9846C20.9028 50.0823 21.1777 48.7464 20.7801 47.5851L21.9248 46.4834C22.5411 45.8893 23.3525 45.5618 24.2103 45.5618H38.8019C41.3906 45.5618 43.8374 44.5696 45.6923 42.768C45.7686 42.6939 45.1128 43.4648 55.6469 30.8993C57.2093 29.0545 56.9756 26.2842 55.1254 24.7232C53.2868 23.1766 50.5326 23.3988 48.9659 25.212L42.489 31.856C41.6711 30.8514 40.4239 30.2252 39.0764 30.2252H26.8367C25.095 29.4979 23.247 29.1298 21.3402 29.1298C16.0547 29.1298 11.4396 31.5662 8.96285 36.1342C7.91939 35.9369 6.81889 36.252 6.02719 37.0421L0.805616 42.2689C0.379313 42.6957 0.378455 43.3861 0.8039 43.8141L13.1281 56.208ZM21.3398 31.3205C23.021 31.3205 24.6464 31.6582 26.1719 32.3243C26.3109 32.3851 26.4606 32.4163 26.612 32.4163H39.0764C40.2665 32.4163 41.2718 33.385 41.2718 34.607C41.2718 35.8154 40.2871 36.7981 39.0764 36.7981H30.121C29.515 36.7981 29.0235 37.2887 29.0235 37.8935C29.0235 38.4987 29.515 38.9888 30.121 38.9888H39.0764C41.4974 38.9888 43.4668 37.0233 43.4668 34.607C43.4668 34.4144 43.4531 34.2235 43.4282 34.0343C49.6937 27.6064 50.5772 26.7033 50.6149 26.6583C51.3972 25.7367 52.7859 25.6199 53.7097 26.3972C54.6343 27.1775 54.7514 28.5627 53.967 29.4894L44.1221 41.2356C42.6845 42.613 40.7971 43.3711 38.8019 43.3711H24.2103C22.7804 43.3711 21.4269 43.9168 20.4001 44.9069L19.4673 45.8054L10.8683 37.2236C12.8781 33.4607 16.6492 31.3205 21.3398 31.3205ZM7.58058 38.5903C7.94255 38.2291 8.49837 38.164 8.93969 38.4362C9.12968 38.5518 8.58415 38.0561 18.4466 47.8856C18.8853 48.3235 18.8617 49.0212 18.4526 49.4296L13.9159 53.8902L3.13098 43.0441L7.58058 38.5903Z" fill="#FCF4DA"/>
<path d="M31.8784 5.90647V7.19016C30.6007 7.64217 29.6829 8.85994 29.6829 10.2883C29.6829 12.1002 31.16 13.5748 32.9759 13.5748C33.581 13.5748 34.0734 14.0662 34.0734 14.6701C34.0734 15.2741 33.581 15.7655 32.9759 15.7655C32.5071 15.7655 32.0006 15.4714 31.5507 14.9368C31.1604 14.4737 30.4682 14.4142 30.0042 14.8033C29.5401 15.1928 29.4801 15.8836 29.8704 16.3468C30.4571 17.0432 31.1471 17.5286 31.8784 17.7734V19.052C31.8784 19.6572 32.3699 20.1473 32.9759 20.1473C33.5819 20.1473 34.0734 19.6572 34.0734 19.052V17.7683C35.351 17.3158 36.2688 16.0981 36.2688 14.6701C36.2688 12.8578 34.7917 11.3837 32.9759 11.3837C32.3707 11.3837 31.8784 10.8923 31.8784 10.2883C31.8784 9.68434 32.3707 9.19253 32.9759 9.19253C33.3649 9.19253 33.7753 9.39071 34.163 9.76524C34.5987 10.186 35.2935 10.1744 35.7151 9.73999C36.1367 9.3051 36.1251 8.61168 35.6898 8.19091C35.1327 7.65287 34.5751 7.34853 34.0734 7.18246V5.90647C34.0734 5.30122 33.5819 4.81069 32.9759 4.81069C32.3699 4.81069 31.8784 5.30122 31.8784 5.90647Z" fill="#FCF4DA"/>
</svg>
