<svg width="10" height="10" viewBox="0 0 10 10" fill="none" xmlns="http://www.w3.org/2000/svg">
<g clip-path="url(#clip0_916_449)">
<path d="M5.00063 6.60016C5.88429 6.60016 6.60063 5.88381 6.60063 5.00016C6.60063 4.1165 5.88429 3.40016 5.00063 3.40016C4.11698 3.40016 3.40063 4.1165 3.40063 5.00016C3.40063 5.88381 4.11698 6.60016 5.00063 6.60016Z" fill="#2C5697"/>
<path d="M7.2 0H2.8C2.05765 0.000840738 1.34595 0.29611 0.82103 0.82103C0.29611 1.34595 0.000840738 2.05765 0 2.8V7.2C0.000840738 7.94235 0.29611 8.65405 0.82103 9.17897C1.34595 9.70389 2.05765 9.99916 2.8 10H7.2C7.94235 9.99916 8.65405 9.70389 9.17897 9.17897C9.70389 8.65405 9.99916 7.94235 10 7.2V2.8C9.99916 2.05765 9.70389 1.34595 9.17897 0.82103C8.65405 0.29611 7.94235 0.000840738 7.2 0ZM5 7.4C4.52532 7.4 4.06131 7.25924 3.66663 6.99553C3.27195 6.73181 2.96434 6.35698 2.78269 5.91844C2.60104 5.4799 2.55351 4.99734 2.64612 4.53178C2.73872 4.06623 2.9673 3.63859 3.30294 3.30294C3.63859 2.9673 4.06623 2.73872 4.53178 2.64612C4.99734 2.55351 5.4799 2.60104 5.91844 2.78269C6.35698 2.96434 6.73181 3.27195 6.99553 3.66663C7.25924 4.06131 7.4 4.52532 7.4 5C7.39928 5.6363 7.14619 6.24633 6.69626 6.69626C6.24633 7.14619 5.6363 7.39928 5 7.4ZM7.6 3C7.48133 3 7.36533 2.96481 7.26666 2.89888C7.16799 2.83295 7.09109 2.73925 7.04567 2.62961C7.00026 2.51997 6.98838 2.39933 7.01153 2.28295C7.03468 2.16656 7.09183 2.05965 7.17574 1.97574C7.25965 1.89182 7.36656 1.83468 7.48295 1.81153C7.59933 1.78838 7.71997 1.80026 7.82961 1.84567C7.93925 1.89108 8.03295 1.96799 8.09888 2.06666C8.16481 2.16533 8.2 2.28133 8.2 2.4C8.2 2.55913 8.13679 2.71174 8.02426 2.82426C7.91174 2.93679 7.75913 3 7.6 3Z" fill="#2C5697"/>
</g>
<defs>
<clipPath id="clip0_916_449">
<rect width="10" height="10" fill="white"/>
</clipPath>
</defs>
</svg>
