<svg width="14" height="18" viewBox="0 0 14 18" fill="none" xmlns="http://www.w3.org/2000/svg">
<path d="M7.1 18C7.1 18 13.7 11.6033 13.7 6.75C13.7 4.95979 13.0046 3.2429 11.7669 1.97703C10.5292 0.711159 8.85043 0 7.1 0C5.34957 0 3.67084 0.711159 2.4331 1.97703C1.19536 3.2429 0.5 4.95979 0.5 6.75C0.5 11.6033 7.1 18 7.1 18ZM7.1 10.125C6.22479 10.125 5.38542 9.76942 4.76655 9.13649C4.14768 8.50355 3.8 7.64511 3.8 6.75C3.8 5.85489 4.14768 4.99645 4.76655 4.36351C5.38542 3.73058 6.22479 3.375 7.1 3.375C7.97521 3.375 8.81458 3.73058 9.43345 4.36351C10.0523 4.99645 10.4 5.85489 10.4 6.75C10.4 7.64511 10.0523 8.50355 9.43345 9.13649C8.81458 9.76942 7.97521 10.125 7.1 10.125Z" fill="#FFD221"/>
</svg>
