<svg width="24" height="25" viewBox="0 0 24 25" fill="none" xmlns="http://www.w3.org/2000/svg">
<g clip-path="url(#clip0_261_22774)">
<path d="M12 15.5C15.3 15.5 18 12.8 18 9.5C18 6.2 15.3 3.5 12 3.5C8.7 3.5 6 6.2 6 9.5C6 12.8 8.7 15.5 12 15.5Z" fill="#789AEE"/>
<path d="M22.05 20.075L19.425 14.6C20.4 13.175 21 11.375 21 9.5C21 4.55 16.95 0.5 12 0.5C7.05 0.5 3 4.55 3 9.5C3 11.45 3.6 13.175 4.65 14.675L2.1 20.075C2.025 20.3 2.025 20.6 2.1 20.75C2.175 20.9 2.475 21.125 2.7 21.125L6.225 21.35L8.625 23.975C8.775 24.125 9 24.2 9.15 24.2C9.15 24.2 9.225 24.2 9.3 24.2C9.525 24.2 9.75 23.975 9.9 23.75L12.075 19.25L14.25 23.75C14.325 23.975 14.55 24.125 14.85 24.2C14.85 24.2 14.925 24.2 15 24.2C15.225 24.2 15.375 24.125 15.525 23.975L17.925 21.35L21.45 21.125C21.675 21.125 21.9 20.975 22.05 20.75C22.2 20.525 22.125 20.3 22.05 20.075ZM12 2C16.125 2 19.5 5.375 19.5 9.5C19.5 13.625 16.125 17 12 17C7.875 17 4.5 13.625 4.5 9.5C4.5 5.375 7.875 2 12 2Z" fill="#789AEE"/>
<path d="M14.8982 6.61713L11.2265 10.2889L9.28212 8.3446L8.23518 9.39154L11.2265 12.3828L15.9452 7.66406L14.8982 6.61713Z" fill="white"/>
</g>
<defs>
<clipPath id="clip0_261_22774">
<rect width="24" height="24" fill="white" transform="translate(0 0.5)"/>
</clipPath>
</defs>
</svg>
