<svg width="47" height="50" viewBox="0 0 47 50" fill="none" xmlns="http://www.w3.org/2000/svg">
<path d="M17.6533 0.142632C13.5893 0.826492 10.3067 3.85501 9.21257 7.92886C9.02695 8.62249 8.98787 9.08166 8.94879 11.2798C8.89995 13.4584 8.87064 13.8687 8.73386 14.0152C8.08908 14.7382 7.87416 16.1938 8.24539 17.1805C8.68502 18.3431 9.54473 19.1051 10.7561 19.3982L11.44 19.574L11.6061 20.3556C11.7038 20.8538 11.948 21.5084 12.2704 22.1629C12.7198 23.0715 12.8859 23.2962 13.7456 24.1461L14.703 25.1035V26.2172C14.703 27.1942 14.6834 27.3407 14.5271 27.4286C14.4294 27.4775 12.0262 28.4251 9.2028 29.5193C3.58538 31.6979 3.24345 31.8737 2.04181 33.0558C1.24072 33.8569 0.664321 34.785 0.273544 35.889L0 36.6705V48.9995L0.263774 49.3415C0.810862 50.0644 -0.722935 50.0155 19.6463 49.9862L37.9151 49.9569L38.2766 49.7127C38.9116 49.2828 39.0289 48.8921 39.0289 47.2117V45.7561L39.869 45.4728C42.9952 44.4079 45.4864 41.692 46.3755 38.3997C46.6783 37.2567 46.7272 35.1074 46.4731 33.8862C45.6721 30.0273 42.8194 26.9988 39.0679 26.0218C38.2278 25.8069 37.9054 25.8265 37.6709 26.1293C37.2215 26.7057 37.5634 27.1551 38.6576 27.4286C41.6177 28.1809 44.0406 30.5353 44.8905 33.5052C45.164 34.4431 45.2617 36.3579 45.0859 37.3446C44.49 40.7346 41.9694 43.4505 38.6478 44.3102C36.9577 44.7401 34.9648 44.6228 33.3528 43.9976C30.0019 42.6787 27.794 39.4646 27.794 35.889C27.794 33.0363 29.2106 30.3399 31.5455 28.7182C32.5517 28.0246 33.2356 27.7315 34.7108 27.3407C35.4728 27.1453 35.717 26.6569 35.3067 26.1293C35.1699 25.9535 35.0136 25.8753 34.7987 25.8753C33.9097 25.8753 31.6139 26.8132 30.5295 27.624C30.2364 27.8487 29.7284 28.2883 29.406 28.601L28.8198 29.1774L26.5533 28.2883L24.277 27.4091V24.9081L25.039 24.1461C26.1723 23.0031 26.9148 21.6354 27.2078 20.1406L27.3251 19.5447L27.8819 19.4373C29.533 19.1149 30.7248 17.669 30.7248 15.9984C30.7248 15.3634 30.4415 14.4548 30.0996 14.0054C29.8749 13.7124 29.8651 13.6537 29.8261 11.27C29.7772 9.01327 29.7577 8.7495 29.5232 7.85071C28.1164 2.60453 22.9679 -0.746386 17.6533 0.142632ZM21.5904 1.73505C24.746 2.55568 27.1395 4.93942 28.0969 8.20241C28.2629 8.79834 28.3118 9.26728 28.3509 10.8206C28.3997 12.5107 28.3899 12.7061 28.2532 12.6573C28.1653 12.628 27.9406 12.5693 27.7549 12.5303C27.4814 12.4814 27.4032 12.4228 27.4032 12.2567C27.4032 12.1395 27.3251 11.905 27.2372 11.7292C26.9929 11.2993 24.6776 8.79834 24.3552 8.62249C23.8862 8.37826 23.3098 8.44664 22.6651 8.83742C19.7831 10.5764 16.7643 11.4166 13.3939 11.4166C12.2704 11.4166 12.2704 11.4166 11.9187 11.7194C11.7331 11.8855 11.5475 12.1297 11.5182 12.2567C11.4595 12.4912 11.3814 12.54 10.7561 12.6475L10.3849 12.7159L10.424 10.7718C10.4631 9.01327 10.4924 8.7495 10.7366 7.9484C11.4205 5.69167 13.0031 3.71824 15.0351 2.57522C15.7874 2.15513 16.5396 1.88159 17.6338 1.63735C18.7084 1.39312 20.4474 1.44197 21.5904 1.73505ZM24.8436 11.1528L25.9476 12.3446L25.9085 16.0082C25.8694 20.1113 25.8597 20.1406 25.1367 21.567C24.1402 23.5502 22.1375 24.8495 19.8808 24.9667C16.7643 25.1426 14.1168 23.4036 13.1692 20.5607C12.9054 19.7694 12.9054 19.7694 12.8663 16.3208L12.837 12.882H13.6577C16.7741 12.882 20.0957 12.0027 22.7237 10.4885C23.2317 10.1954 23.6615 9.96091 23.6909 9.96091C23.7202 9.97067 24.2379 10.508 24.8436 11.1528ZM11.3325 18.0402C11.2348 18.1379 10.424 17.7471 10.1114 17.4443C9.70104 17.0437 9.52519 16.6237 9.52519 16.0375C9.52519 15.168 10.1309 14.3767 11.0394 14.0836L11.3325 13.9859L11.3618 15.9886C11.3716 17.0926 11.3618 18.0109 11.3325 18.0402ZM28.2532 14.2692C29.699 15.1387 29.533 17.2587 27.9699 17.9034C27.7647 17.9914 27.5595 18.0598 27.5009 18.0598C27.4423 18.0598 27.4032 17.3564 27.4032 16.0082V13.9566L27.6768 14.0152C27.8233 14.0543 28.0773 14.1618 28.2532 14.2692ZM22.8116 26.7155V27.6436L21.1899 29.6463C20.3009 30.7405 19.5388 31.6588 19.4998 31.6783C19.4607 31.7076 18.6987 30.8186 17.7999 29.7049L16.1684 27.6924V26.7741C16.1684 25.9437 16.1879 25.8558 16.3442 25.9046C18.5033 26.6178 20.5451 26.6373 22.2059 25.9828C22.4599 25.8753 22.6944 25.7971 22.7432 25.7874C22.7823 25.7776 22.8116 26.1977 22.8116 26.7155ZM16.8229 30.8284L18.4056 32.7921L16.7936 33.9351C15.9046 34.5701 15.1621 35.0683 15.1524 35.0488C15.0351 34.9218 12.5537 29.8515 12.583 29.8124C12.6807 29.7245 15.0449 28.8159 15.1328 28.8452C15.1915 28.855 15.9437 29.7538 16.8229 30.8284ZM25.1172 29.3044L26.4165 29.8124L25.0977 32.4404C24.1793 34.2672 23.7495 35.0488 23.6615 34.9999C23.3392 34.8046 20.6623 32.88 20.6135 32.8116C20.5744 32.7432 23.6811 28.8159 23.7788 28.8061C23.8081 28.8061 24.404 29.0308 25.1172 29.3044ZM12.5928 33.2414C14.0777 36.27 14.195 36.4361 14.9081 36.5728C15.2794 36.6412 15.8655 36.4556 16.1977 36.1625C16.3149 36.055 16.4029 36.0257 16.4419 36.0941C16.481 36.1527 16.6569 36.4263 16.8425 36.7096L17.1746 37.2176L16.227 42.8057C15.7092 45.8831 15.2891 48.4231 15.2891 48.4622C15.2891 48.5111 13.687 48.5404 11.7233 48.5404H8.15747V44.066C8.15747 39.7479 8.1477 39.5818 7.96208 39.3864C7.70808 39.1031 7.42476 39.0347 7.16099 39.1715C6.69206 39.4255 6.70183 39.3473 6.69206 44.066V48.5404H1.41657V42.9425C1.41657 36.8171 1.41657 36.7877 2.00273 35.5861C2.51074 34.5505 3.53653 33.4759 4.54278 32.9581C4.90425 32.7627 10.9808 30.379 11.1176 30.3692C11.1567 30.3692 11.821 31.6588 12.5928 33.2414ZM27.7452 30.6623C27.6572 30.8186 27.5693 30.9554 27.54 30.9554C27.5205 30.9554 27.5595 30.8186 27.6475 30.6623C27.7354 30.4962 27.8233 30.3692 27.8526 30.3692C27.8722 30.3692 27.8331 30.4962 27.7452 30.6623ZM26.905 32.5087C25.4689 36.563 26.778 41.1156 30.168 43.8217L30.8225 44.3493V48.5404H23.6909L23.642 48.3157C23.6127 48.1984 23.4662 47.2899 23.3001 46.2934C23.0363 44.6717 22.9777 44.4665 22.753 44.2614C22.3622 43.9194 21.9226 43.9878 21.6881 44.4372C21.5611 44.6717 21.5807 44.9061 21.8737 46.6256L22.1961 48.5404H16.735L16.7839 48.2668C16.8132 48.1203 17.2235 45.7072 17.6924 42.8936L18.5619 37.794H19.4607C20.2325 37.794 20.3595 37.8135 20.4083 37.9601C20.4279 38.0578 20.5646 38.8589 20.7112 39.7479C21.0043 41.6138 21.0726 41.8288 21.4048 41.9851C21.7467 42.1414 21.8737 42.1219 22.1668 41.8874C22.499 41.6236 22.4892 41.5162 22.0887 39.1422L21.7663 37.2176L22.1571 36.6217L22.5478 36.0355L22.8018 36.2016C23.4857 36.6412 23.7495 36.6998 24.2477 36.5142C24.7557 36.3286 25.0097 35.9573 26.0844 33.7983C26.6705 32.6162 27.159 31.6588 27.1688 31.6686C27.1883 31.6783 27.0613 32.0593 26.905 32.5087ZM20.4963 34.5701L21.356 35.1758L21.1899 35.4396C21.0922 35.5763 20.9261 35.8401 20.8186 36.0062L20.6135 36.3286H18.347L17.9855 35.7913C17.7901 35.4982 17.6338 35.2246 17.6436 35.1856C17.6436 35.0488 19.3435 33.896 19.49 33.9253C19.5682 33.9448 20.0273 34.2282 20.4963 34.5701ZM33.0695 45.4532C34.1344 45.8342 35.1699 46.0199 36.4204 46.0199L37.5732 46.0296L37.5146 48.4915L34.9062 48.5208L32.2879 48.5404V46.8796C32.2879 45.971 32.3173 45.2188 32.3466 45.2188C32.3856 45.2188 32.708 45.3262 33.0695 45.4532Z" fill="#FCF4DA"/>
<path d="M36.0003 28.2981C33.8217 28.4251 31.5162 29.7049 30.3341 31.4439C29.3278 32.9191 28.9273 34.1793 28.937 35.8401C28.937 37.2274 29.1129 38.0285 29.699 39.2106C30.4513 40.7541 31.7018 42.0046 33.2063 42.7276C34.3591 43.2746 34.9941 43.4016 36.5376 43.4114C37.7784 43.4114 37.9835 43.3821 38.7553 43.1379C41.3442 42.2879 43.2395 40.2559 43.9233 37.5986C44.1187 36.8171 44.0992 34.7948 43.8745 33.9937C42.8975 30.4279 39.6541 28.0832 36.0003 28.2981ZM38.0031 29.9394C39.0386 30.1836 39.9667 30.7112 40.7873 31.5318C43.2297 33.9448 43.2492 37.7745 40.8264 40.207C39.996 41.0374 38.7162 41.7213 37.6221 41.9069C33.8413 42.5517 30.4024 39.7186 30.3927 35.9378C30.3829 34.8046 30.5295 34.1695 31.0277 33.1438C32.2782 30.5646 35.1406 29.2555 38.0031 29.9394Z" fill="#FCF4DA"/>
<path d="M37.583 34.9999L36.0394 36.5044L35.3458 35.8303C34.7596 35.2637 34.6033 35.1563 34.32 35.1563C33.8999 35.1563 33.6459 35.4103 33.6361 35.8401C33.6264 36.1039 33.7631 36.2797 34.5838 37.1101C35.6486 38.1848 35.9515 38.3704 36.313 38.175C36.6842 37.9698 39.9863 34.7459 40.1035 34.4626C40.1914 34.2575 40.1816 34.1402 40.0644 33.9058C39.9863 33.7495 39.8397 33.5931 39.7616 33.5541C39.3024 33.3782 39.1363 33.4955 37.583 34.9999Z" fill="#FCF4DA"/>
</svg>
