<svg width="36" height="50" viewBox="0 0 36 50" fill="none" xmlns="http://www.w3.org/2000/svg">
<path d="M35.632 17.6058C35.632 15.806 34.689 14.1634 33.202 13.2406C33.4336 12.649 33.5537 12.0161 33.5537 11.3695C33.5537 8.84991 31.7414 6.7423 29.3168 6.31429C28.891 3.91027 26.7861 2.07846 24.2619 2.07846C23.6149 2.07846 22.9821 2.19824 22.3908 2.42979C21.468 0.942442 19.8254 -0.000549316 18.0253 -0.000549316C16.2255 -0.000549316 14.5825 0.942442 13.6601 2.42979C13.0685 2.19824 12.436 2.07846 11.789 2.07846C10.4153 2.07846 9.12483 2.61404 8.1559 3.5864C7.40479 4.34019 6.91689 5.28585 6.73912 6.31276C5.7084 6.49244 4.7593 6.98262 4.00361 7.73679C3.03201 8.70686 2.49719 9.99699 2.49719 11.3695C2.49719 12.0161 2.61697 12.649 2.8489 13.2406C1.36194 14.163 0.418945 15.806 0.418945 17.6058C0.418945 19.4063 1.36194 21.0493 2.8489 21.9717C2.61697 22.5637 2.49719 23.1958 2.49719 23.842C2.49719 26.3666 4.32786 28.4715 6.7315 28.898C6.99356 30.3957 7.9068 31.698 9.23622 32.4564V49.0228C9.23622 49.418 9.47426 49.7739 9.83894 49.925C10.204 50.076 10.624 49.9925 10.9032 49.7133L18.0253 42.5916L25.1473 49.7133C25.4269 49.9929 25.8465 50.076 26.2116 49.925C26.5763 49.7739 26.8143 49.418 26.8143 49.0228V32.4552C28.1418 31.6972 29.0486 30.3964 29.3026 28.9018C30.3341 28.7237 31.2844 28.235 32.0416 27.4812C33.0166 26.5104 33.5537 25.218 33.5537 23.842C33.5537 23.1958 33.4336 22.5633 33.202 21.9717C34.689 21.0493 35.632 19.4063 35.632 17.6058ZM11.1893 33.0984C11.3873 33.1213 11.5872 33.1342 11.789 33.1342C12.251 33.1342 12.7049 33.0721 13.1425 32.9527V44.7122L11.1893 46.6653V33.0984ZM17.3348 40.5199L15.0956 42.7587V34.2909C15.9341 34.8764 16.9491 35.2132 18.0253 35.2132C19.0953 35.2132 20.1123 34.8772 20.955 34.292V42.7591L18.7161 40.5199C18.3346 40.1384 17.7163 40.1384 17.3348 40.5199ZM22.9081 44.7118V32.9527C23.346 33.0721 23.8003 33.1342 24.2619 33.1342C24.4633 33.1342 24.6632 33.1213 24.8612 33.098V46.6653L22.9081 44.7118ZM31.5514 20.6095C31.2664 20.7094 31.0437 20.9356 30.9483 21.2225C30.8529 21.509 30.8957 21.8237 31.0639 22.0747C31.4152 22.5981 31.6006 23.2092 31.6006 23.8424C31.6006 24.695 31.268 25.4957 30.6637 26.0969C30.0625 26.695 29.2656 27.0239 28.418 27.0239C28.4115 27.0239 28.4054 27.0239 28.3986 27.0239C28.1388 27.0239 27.8897 27.1272 27.7062 27.3115C27.5219 27.4965 27.4197 27.7479 27.422 28.0092C27.4334 29.3005 26.6663 30.4525 25.4673 30.9446C25.0851 31.1014 24.6792 31.1811 24.2619 31.1811C23.6283 31.1811 23.0164 30.9957 22.4923 30.6448C22.3534 30.5521 22.1947 30.499 22.0322 30.4853C22.0315 30.4849 22.0307 30.4849 22.0299 30.4849C22.0044 30.4826 21.9788 30.4811 21.9533 30.4811C21.946 30.4807 21.9391 30.48 21.9319 30.48C21.4566 30.48 21.061 30.8195 20.9736 31.2692C20.4915 32.464 19.3215 33.2601 18.0257 33.2601C16.6833 33.2601 15.4938 32.4194 15.0544 31.1659C15.0193 31.0487 14.9628 30.9416 14.8892 30.8477C14.8888 30.8473 14.8884 30.8466 14.8877 30.8458C14.8682 30.821 14.848 30.7974 14.8263 30.7749C14.8232 30.7718 14.8205 30.7684 14.8179 30.7653C14.7992 30.7462 14.7793 30.7283 14.7591 30.7111C14.753 30.7058 14.7473 30.6997 14.7408 30.6944C14.7347 30.6894 14.7278 30.6848 14.7214 30.6799C14.6195 30.5994 14.502 30.5383 14.3738 30.5036C14.0992 30.4289 13.8058 30.4777 13.5701 30.6368C13.044 30.9931 12.428 31.1811 11.789 31.1811C11.3709 31.1811 10.965 31.1018 10.5832 30.9454C9.38156 30.4529 8.60603 29.2974 8.60756 28.0016C8.60794 27.7426 8.50494 27.4938 8.32184 27.3103C8.13873 27.1269 7.89002 27.0239 7.631 27.0239C5.877 27.0239 4.45031 25.5968 4.45031 23.8424C4.45031 23.2096 4.63609 22.5981 4.98704 22.0747C5.15526 21.8237 5.19799 21.509 5.10262 21.2225C5.00726 20.9356 4.78448 20.7094 4.49952 20.6095C3.22732 20.1628 2.37245 18.9558 2.37245 17.6058C2.37245 16.2565 3.22694 15.0499 4.49952 14.6036C4.78448 14.5037 5.00726 14.2771 5.10262 13.9906C5.19799 13.7037 5.15526 13.389 4.98704 13.138C4.63609 12.6146 4.45031 12.0031 4.45031 11.3695C4.45031 10.5192 4.78181 9.72005 5.38377 9.11923C5.98496 8.51918 6.78337 8.18883 7.63252 8.18883H7.63977C7.89917 8.18883 8.14789 8.08583 8.331 7.90235C8.51448 7.71848 8.61748 7.469 8.61633 7.20884C8.61366 6.36197 8.94135 5.56508 9.53911 4.96503C10.1392 4.36308 10.9383 4.03158 11.789 4.03158C12.4238 4.03158 13.0353 4.21659 13.5579 4.56716C13.8085 4.73539 14.1232 4.77811 14.4101 4.68275C14.6969 4.58738 14.9232 4.3646 15.0231 4.07964C15.4698 2.80744 16.676 1.95257 18.0253 1.95257C19.3745 1.95257 20.5811 2.80744 21.0278 4.07964C21.1278 4.3646 21.3543 4.58738 21.6408 4.68275C21.9277 4.77811 22.242 4.73539 22.493 4.56716C23.0156 4.21697 23.6271 4.03158 24.2619 4.03158C26.0155 4.03158 27.4422 5.45865 27.4422 7.21227C27.4422 7.75167 27.8798 8.18883 28.4188 8.18883C30.1857 8.18883 31.6006 9.61629 31.6006 11.3695C31.6006 12.0028 31.4148 12.6146 31.0639 13.138C30.8957 13.389 30.8529 13.7037 30.9483 13.9906C31.0437 14.2771 31.2664 14.5033 31.5514 14.6036C32.824 15.0499 33.6785 16.2565 33.6785 17.6058C33.6789 18.9558 32.824 20.1628 31.5514 20.6095Z" fill="#FCF4DA"/>
<path d="M18.0279 6.83493C16.6501 6.83493 15.3061 7.09318 14.0336 7.60206C13.5327 7.80234 13.2893 8.37072 13.4896 8.87121C13.6899 9.37208 14.2582 9.61546 14.7587 9.41557C15.7998 8.99901 16.8995 8.78805 18.0279 8.78805C22.8745 8.78805 26.817 12.7309 26.817 17.5771C26.817 22.4233 22.8745 26.3661 18.0279 26.3661C13.1817 26.3661 9.23888 22.4233 9.23888 17.5771C9.23888 16.4487 9.45021 15.3489 9.86639 14.3079C10.0667 13.807 9.82329 13.2387 9.32242 13.0384C8.82155 12.8385 8.25354 13.0815 8.05289 13.5824C7.54401 14.8553 7.28575 16.1992 7.28575 17.5771C7.28575 23.5002 12.1049 28.3193 18.0279 28.3193C23.9514 28.3193 28.7701 23.5002 28.7701 17.5771C28.7701 11.654 23.9514 6.83493 18.0279 6.83493Z" fill="#FCF4DA"/>
<path d="M22.9106 17.5771C22.9106 18.1165 23.3481 18.5536 23.8871 18.5536C24.4265 18.5536 24.8637 18.1165 24.8637 17.5771C24.8637 13.8078 21.7971 10.7412 18.0278 10.7412C17.4888 10.7412 17.0512 11.1783 17.0512 11.7177C17.0512 12.2571 17.4888 12.6943 18.0278 12.6943C20.7202 12.6943 22.9106 14.8847 22.9106 17.5771Z" fill="#FCF4DA"/>
</svg>
