<svg width="105" height="17" viewBox="0 0 105 17" fill="none" xmlns="http://www.w3.org/2000/svg">
<path d="M14.5475 5.9298L10.3506 5.29107L8.47444 1.30812C8.4232 1.19907 8.3389 1.11079 8.23476 1.05713C7.97359 0.922113 7.65621 1.03463 7.52563 1.30812L5.64949 5.29107L1.45256 5.9298C1.33685 5.94711 1.23106 6.00423 1.15007 6.09078C1.05215 6.19617 0.998187 6.33796 1.00005 6.48499C1.00191 6.63202 1.05943 6.77227 1.15998 6.87491L4.19652 9.97507L3.47912 14.3527C3.4623 14.4545 3.47306 14.5592 3.51018 14.655C3.54731 14.7508 3.60931 14.8337 3.68916 14.8944C3.76901 14.9552 3.86352 14.9912 3.96196 14.9986C4.0604 15.0059 4.15883 14.9843 4.24611 14.936L8.00003 12.8692L11.754 14.936C11.8564 14.9931 11.9755 15.0122 12.0895 14.9914C12.3771 14.9395 12.5705 14.6539 12.5209 14.3527L11.8036 9.97507L14.8401 6.87491C14.9227 6.79009 14.9773 6.67931 14.9938 6.55814C15.0384 6.25522 14.8368 5.9748 14.5475 5.9298Z" fill="#FFD221"/>
<path d="M36.5475 5.9298L32.3506 5.29107L30.4744 1.30812C30.4232 1.19907 30.3389 1.11079 30.2348 1.05713C29.9736 0.922113 29.6562 1.03463 29.5256 1.30812L27.6495 5.29107L23.4526 5.9298C23.3369 5.94711 23.2311 6.00423 23.1501 6.09078C23.0521 6.19617 22.9982 6.33796 23 6.48499C23.0019 6.63202 23.0594 6.77227 23.16 6.87491L26.1965 9.97507L25.4791 14.3527C25.4623 14.4545 25.4731 14.5592 25.5102 14.655C25.5473 14.7508 25.6093 14.8337 25.6892 14.8944C25.769 14.9552 25.8635 14.9912 25.962 14.9986C26.0604 15.0059 26.1588 14.9843 26.2461 14.936L30 12.8692L33.754 14.936C33.8564 14.9931 33.9755 15.0122 34.0895 14.9914C34.3771 14.9395 34.5705 14.6539 34.5209 14.3527L33.8036 9.97507L36.8401 6.87491C36.9227 6.79009 36.9773 6.67931 36.9938 6.55814C37.0384 6.25522 36.8368 5.9748 36.5475 5.9298Z" fill="#FFD221"/>
<path d="M58.5475 5.9298L54.3506 5.29107L52.4744 1.30812C52.4232 1.19907 52.3389 1.11079 52.2348 1.05713C51.9736 0.922113 51.6562 1.03463 51.5256 1.30812L49.6495 5.29107L45.4526 5.9298C45.3369 5.94711 45.2311 6.00423 45.1501 6.09078C45.0521 6.19617 44.9982 6.33796 45 6.48499C45.0019 6.63202 45.0594 6.77227 45.16 6.87491L48.1965 9.97507L47.4791 14.3527C47.4623 14.4545 47.4731 14.5592 47.5102 14.655C47.5473 14.7508 47.6093 14.8337 47.6892 14.8944C47.769 14.9552 47.8635 14.9912 47.962 14.9986C48.0604 15.0059 48.1588 14.9843 48.2461 14.936L52 12.8692L55.754 14.936C55.8564 14.9931 55.9755 15.0122 56.0895 14.9914C56.3771 14.9395 56.5705 14.6539 56.5209 14.3527L55.8036 9.97507L58.8401 6.87491C58.9227 6.79009 58.9773 6.67931 58.9938 6.55814C59.0384 6.25522 58.8368 5.9748 58.5475 5.9298Z" fill="#FFD221"/>
<path d="M80.5475 5.9298L76.3506 5.29107L74.4744 1.30812C74.4232 1.19907 74.3389 1.11079 74.2348 1.05713C73.9736 0.922113 73.6562 1.03463 73.5256 1.30812L71.6495 5.29107L67.4526 5.9298C67.3369 5.94711 67.2311 6.00423 67.1501 6.09078C67.0521 6.19617 66.9982 6.33796 67 6.48499C67.0019 6.63202 67.0594 6.77227 67.16 6.87491L70.1965 9.97507L69.4791 14.3527C69.4623 14.4545 69.4731 14.5592 69.5102 14.655C69.5473 14.7508 69.6093 14.8337 69.6892 14.8944C69.769 14.9552 69.8635 14.9912 69.962 14.9986C70.0604 15.0059 70.1588 14.9843 70.2461 14.936L74 12.8692L77.754 14.936C77.8564 14.9931 77.9755 15.0122 78.0895 14.9914C78.3771 14.9395 78.5705 14.6539 78.5209 14.3527L77.8036 9.97507L80.8401 6.87491C80.9227 6.79009 80.9773 6.67931 80.9938 6.55814C81.0384 6.25522 80.8368 5.9748 80.5475 5.9298Z" fill="#FFD221"/>
<path d="M102.548 5.9298L98.3506 5.29107L96.4744 1.30812C96.4232 1.19907 96.3389 1.11079 96.2348 1.05713C95.9736 0.922113 95.6562 1.03463 95.5256 1.30812L93.6495 5.29107L89.4526 5.9298C89.3369 5.94711 89.2311 6.00423 89.1501 6.09078C89.0521 6.19617 88.9982 6.33796 89 6.48499C89.0019 6.63202 89.0594 6.77227 89.16 6.87491L92.1965 9.97507L91.4791 14.3527C91.4623 14.4545 91.4731 14.5592 91.5102 14.655C91.5473 14.7508 91.6093 14.8337 91.6892 14.8944C91.769 14.9552 91.8635 14.9912 91.962 14.9986C92.0604 15.0059 92.1588 14.9843 92.2461 14.936L96 12.8692L99.754 14.936C99.8564 14.9931 99.9755 15.0122 100.09 14.9914C100.377 14.9395 100.571 14.6539 100.521 14.3527L99.8036 9.97507L102.84 6.87491C102.923 6.79009 102.977 6.67931 102.994 6.55814C103.038 6.25522 102.837 5.9748 102.548 5.9298Z" fill="#FFD221"/>
</svg>
