<svg width="61" height="61" viewBox="0 0 61 61" fill="none" xmlns="http://www.w3.org/2000/svg">
<path d="M48.9703 20.7546L51.409 18.3155C52.7338 16.9911 52.7338 14.8352 51.409 13.5099C50.0841 12.1851 47.9282 12.1851 46.6034 13.5099L43.9997 16.1136C41.2836 14.2219 38.1874 12.9125 34.9434 12.2842V8.90521H37.209C37.8347 8.90521 38.3418 8.3981 38.3418 7.7724V4.82709C38.3418 2.95308 36.8174 1.42865 34.9434 1.42865H25.8809C24.0069 1.42865 22.4824 2.95308 22.4824 4.82709V7.7724C22.4824 8.3981 22.9895 8.90521 23.6152 8.90521H25.8809V12.2842C22.6373 12.9121 19.5407 14.2219 16.8246 16.1136L14.2209 13.5099C12.8964 12.1851 10.7406 12.1851 9.41525 13.5099C8.09039 14.8348 8.09039 16.9907 9.41525 18.3155L11.8539 20.7546C8.4736 24.965 6.62305 30.2096 6.62305 35.6396C6.62305 48.7568 17.2949 59.4286 30.4121 59.4286C43.5293 59.4286 54.2012 48.7568 54.2012 35.6396C54.2012 30.2096 52.3506 24.965 48.9703 20.7546ZM48.2052 15.1118C48.6473 14.6702 49.3655 14.6706 49.8071 15.1118C50.2483 15.5534 50.2483 16.272 49.8071 16.7137L47.4663 19.0541C46.9388 18.5124 46.3857 17.996 45.8104 17.5071L48.2052 15.1118ZM24.748 4.82709C24.748 4.20227 25.256 3.69427 25.8809 3.69427H34.9434C35.5682 3.69427 36.0762 4.20227 36.0762 4.82709V6.63959H24.748V4.82709ZM32.6777 8.90521V11.9576C31.1763 11.8169 29.6483 11.8169 28.1465 11.9576V8.90521H32.6777ZM11.0171 15.1118C11.4587 14.6706 12.1774 14.6702 12.619 15.1118L15.0138 17.5071C14.4386 17.996 13.8854 18.5124 13.358 19.0541L11.0171 16.7137C10.5759 16.272 10.5759 15.5534 11.0171 15.1118ZM30.4121 57.163C18.5441 57.163 8.88867 47.5076 8.88867 35.6396C8.88867 30.4043 10.7892 25.3602 14.2399 21.4356C15.1904 20.3546 16.2511 19.3669 17.3923 18.4987C20.2522 16.3225 23.6374 14.8901 27.1818 14.356C28.2425 14.1971 29.3293 14.1161 30.4121 14.1161C31.4949 14.1161 32.5817 14.1971 33.642 14.356C37.1869 14.8901 40.572 16.3225 43.4324 18.4987C44.5732 19.3669 45.6338 20.3546 46.5843 21.4356C50.035 25.3602 51.9356 30.4043 51.9356 35.6396C51.9356 47.5076 42.2801 57.163 30.4121 57.163Z" fill="#FCF4DA"/>
<path d="M30.4156 39.038C32.2896 39.038 33.8141 37.5136 33.8141 35.6396C33.8141 34.1629 32.8671 32.9036 31.5485 32.4359V24.3115C31.5485 23.6858 31.0413 23.1786 30.4156 23.1786C29.7899 23.1786 29.2828 23.6858 29.2828 24.3115V32.4359C27.9642 32.9036 27.0172 34.1629 27.0172 35.6396C27.0172 37.5136 28.5416 39.038 30.4156 39.038ZM30.4156 34.5068C31.0405 34.5068 31.5485 35.0148 31.5485 35.6396C31.5485 36.2644 31.0405 36.7724 30.4156 36.7724C29.7908 36.7724 29.2828 36.2644 29.2828 35.6396C29.2828 35.0148 29.7908 34.5068 30.4156 34.5068Z" fill="#FCF4DA"/>
<path d="M42.4814 23.6891C42.4637 23.6683 42.446 23.6475 42.4261 23.628C42.4049 23.6063 42.3823 23.5869 42.3597 23.5674C40.3632 21.5921 37.8966 20.1305 35.2199 19.3402C34.6194 19.1632 33.9898 19.5057 33.8128 20.1057C33.6358 20.7057 33.9783 21.3359 34.5783 21.5129C36.5616 22.0987 38.4117 23.1112 39.9888 24.463L39.2246 25.2272C38.7825 25.6697 38.7825 26.387 39.2246 26.8296C39.4458 27.0508 39.7357 27.1614 40.026 27.1614C40.3158 27.1614 40.6056 27.0508 40.8269 26.8296L41.5929 26.0636C43.6426 28.4469 44.8599 31.3807 45.0971 34.5075H44.0076C43.3819 34.5075 42.8748 35.015 42.8748 35.6403C42.8748 36.266 43.3819 36.7731 44.0076 36.7731H45.0971C44.8599 39.9003 43.6426 42.8336 41.5929 45.217L40.8269 44.451C40.3844 44.0089 39.6671 44.0089 39.2246 44.451C38.7821 44.8935 38.7821 45.6108 39.2246 46.0533L39.9906 46.8193C37.6072 48.8689 34.6734 50.0863 31.5467 50.3239V49.234C31.5467 48.6083 31.0396 48.1012 30.4139 48.1012C29.7882 48.1012 29.2811 48.6083 29.2811 49.234V50.3235C26.1543 50.0863 23.2205 48.8689 20.8372 46.8193L21.6032 46.0533C22.0457 45.6108 22.0457 44.8935 21.6032 44.451C21.1607 44.0089 20.4434 44.0089 20.0008 44.451L19.2349 45.217C17.1852 42.8336 15.9679 39.8998 15.7307 36.7731H16.8201C17.4458 36.7731 17.9529 36.266 17.9529 35.6403C17.9529 35.0146 17.4458 34.5075 16.8201 34.5075H15.7307C15.9679 31.3807 17.1852 28.4469 19.2349 26.0636L20.0008 26.8296C20.2221 27.0508 20.5119 27.1614 20.8018 27.1614C21.0921 27.1614 21.3819 27.0508 21.6032 26.8296C22.0452 26.387 22.0452 25.6697 21.6032 25.2272L20.839 24.463C22.416 23.1107 24.2662 22.0987 26.2495 21.5129C26.8495 21.3359 27.192 20.7057 27.015 20.1057C26.838 19.5057 26.2087 19.1636 25.6078 19.3402C22.9316 20.13 20.4659 21.5912 18.4698 23.5656C18.4463 23.5856 18.4233 23.6059 18.4016 23.6276C18.3822 23.6471 18.3649 23.6674 18.3472 23.6878C15.1705 26.8942 13.4217 31.1351 13.4217 35.6403C13.4217 40.145 15.1705 44.3855 18.3463 47.5914C18.364 47.6122 18.3817 47.633 18.4016 47.6525C18.4211 47.6724 18.4415 47.6897 18.4618 47.7074C21.6682 50.8837 25.9087 52.6325 30.4139 52.6325C34.9186 52.6325 39.1591 50.8841 42.365 47.7083C42.3858 47.6901 42.4066 47.6724 42.4261 47.6525C42.4456 47.6335 42.4628 47.6127 42.4805 47.5928C45.6573 44.3864 47.4061 40.1454 47.4061 35.6403C47.4061 31.1356 45.6573 26.895 42.4814 23.6891Z" fill="#FCF4DA"/>
<path d="M30.4098 20.913C31.035 20.913 31.5426 20.4055 31.5426 19.7802C31.5426 19.155 31.035 18.6474 30.4098 18.6474C29.7845 18.6474 29.2769 19.155 29.2769 19.7802C29.2769 20.4055 29.7845 20.913 30.4098 20.913Z" fill="#FCF4DA"/>
</svg>
