<svg width="150" height="150" viewBox="0 0 150 150" fill="none" xmlns="http://www.w3.org/2000/svg">
<path fill-rule="evenodd" clip-rule="evenodd" d="M146.768 71.8172C144.759 72.0199 143.396 70.689 143.153 68.2845L142.923 65.9975L140.12 66.2809L139.987 64.9592L149.238 64.0215L149.603 67.631C149.847 70.037 148.778 71.6137 146.768 71.8172ZM148.45 67.0166L148.219 65.4607L144.072 65.88L144.303 68.1271C144.474 69.8166 145.316 70.6284 146.638 70.4947C147.96 70.3611 148.62 69.3973 148.45 67.0166ZM146.434 53.1086L145.86 53.736L144.525 52.5165L144.184 54.2989L143.36 54.1415L143.744 52.3168L142.036 52.9043L141.781 52.1486L143.499 51.5857L142.092 50.3623L142.655 49.7387L144.006 50.9675L144.329 49.1765L145.167 49.3301L144.783 51.1548L146.479 50.5712L146.732 51.3276L145.028 51.886L146.434 53.1086ZM137.259 41.9422C136.719 42.2878 136.114 42.5196 135.481 42.6233C134.849 42.7271 134.202 42.7006 133.58 42.5455C132.958 42.3904 132.374 42.11 131.864 41.7215C131.354 41.3329 130.929 40.8443 130.614 40.2857C130.147 39.4763 129.927 38.5472 129.984 37.6141C130.041 36.6811 130.371 35.7854 130.934 35.0387C131.496 34.292 132.266 33.7274 133.147 33.4153C134.028 33.1032 134.982 33.0573 135.889 33.2834C136.796 33.5096 137.616 33.9977 138.248 34.6869C138.879 35.3762 139.294 36.236 139.44 37.1593C139.586 38.0826 139.457 39.0285 139.069 39.879C138.681 40.7296 138.052 41.4471 137.259 41.9422ZM137.675 35.8698C137.296 35.2743 136.75 34.8043 136.105 34.5189C135.459 34.2335 134.744 34.1455 134.049 34.2661C133.353 34.3867 132.709 34.7105 132.198 35.1966C131.686 35.6826 131.33 36.3093 131.174 36.9975C131.018 37.6857 131.07 38.4047 131.322 39.0637C131.574 39.7228 132.016 40.2924 132.591 40.7009C133.166 41.1093 133.85 41.3382 134.555 41.3588C135.261 41.3793 135.956 41.1906 136.555 40.8164C136.962 40.5737 137.316 40.2506 137.595 39.8668C137.874 39.483 138.072 39.0464 138.177 38.5837C138.282 38.1209 138.291 37.6417 138.205 37.1752C138.119 36.7086 137.938 36.2645 137.675 35.8698ZM129.821 25.5567L127.657 27.4214L130.701 30.954L129.845 31.6905L126.801 28.1578L124.527 30.1177L128.065 34.2241L127.19 34.979L122.784 29.8651L129.831 23.7981L134.115 28.7707L133.238 29.5256L129.821 25.5567ZM117.61 25.046L114.637 22.4948L120.693 15.4402L123.666 17.9914C125.933 19.9375 126.248 22.6914 124.448 24.7872C122.649 26.883 119.88 26.9913 117.613 25.046H117.61ZM122.851 18.8162L120.946 17.182L116.397 22.481L118.302 24.1152C120.045 25.612 122.08 25.5037 123.438 23.9209C124.796 22.3381 124.597 20.3122 122.854 18.8162H122.851ZM111.198 20.2108L116.407 12.5081L117.507 13.2522L112.299 20.955L111.198 20.2108ZM105.546 16.8625L106.361 6.7306L107.623 7.41102L106.946 15.7282L113.542 10.605L114.712 11.2355L106.708 17.4868L105.546 16.8625ZM95.1538 12.4904L93.8974 12.0995L94.8612 9.00303L93.134 2.11814L94.4918 2.54053L95.8741 8.10757L100.187 4.31378L101.443 4.70468L96.1099 9.41851L95.1538 12.4904ZM88.9754 8.40862L84.108 7.57537L82.7087 9.69498L81.3602 9.46458L87.0762 1.01149L88.3726 1.23343L90.9683 11.108L89.5936 10.873L88.9754 8.40862ZM87.4871 2.45605L84.7454 6.60772L88.6982 7.28354L87.4871 2.45605ZM81.1897 9.52141L74.8301 9.2964L75.158 0.00390625L76.4851 0.0492167L76.1979 8.18975L81.2296 8.36792L81.1897 9.52141ZM68.7393 6.80739L66.4507 7.02166L66.7141 9.82707L65.3909 9.95071L64.5216 0.689707L68.1311 0.351031C70.544 0.126014 72.1107 1.20118 72.2996 3.21634C72.4885 5.23151 71.1469 6.577 68.7393 6.80739ZM70.9764 3.34075C70.852 2.01753 69.8951 1.34402 68.2017 1.5053L65.9523 1.71649L66.3424 5.87123L68.5918 5.66004C70.2852 5.50184 71.1008 4.66321 70.9764 3.34075ZM68.171 140.409L69.5226 140.622L63.9164 149.155L62.6178 148.951L59.8876 139.108L61.2654 139.324L61.9151 141.782L66.7979 142.55L68.171 140.409ZM62.2115 142.902L63.4856 147.715L66.1735 143.525L62.2115 142.902ZM56.4855 147.718L55.0263 142.173L50.7679 146.024L49.5069 145.651L54.776 140.866L55.6891 137.783L56.9501 138.157L56.0286 141.265L57.8486 148.122L56.4855 147.718ZM52.7501 7.08079L50.9184 6.73597L51.5413 8.43166L50.791 8.70122L50.1927 6.99631L48.9985 8.42705L48.3649 7.88256L49.5645 6.5002L47.7674 6.21375L47.9041 5.37435L49.7358 5.71917L49.1175 4.03731L49.8671 3.76775L50.4607 5.45729L51.6519 4.02963L52.2908 4.59102L51.0989 5.95033L52.8875 6.25752L52.7501 7.08079ZM43.2909 143.028L43.8608 134.705L37.333 139.914L36.1557 139.3L44.0773 132.945L45.2431 133.554L44.5642 143.691L43.2909 143.028ZM39.1592 20.1033C38.637 20.4754 38.0451 20.7382 37.4189 20.8759C36.7927 21.0136 36.1451 21.0234 35.515 20.9047C34.8849 20.7861 34.2852 20.5414 33.752 20.1853C33.2188 19.8292 32.763 19.3691 32.4119 18.8326C32.0608 18.2961 31.8218 17.6941 31.709 17.063C31.5962 16.4318 31.6121 15.7843 31.7557 15.1594C31.8992 14.5345 32.1675 13.945 32.5445 13.4264C32.9214 12.9077 33.3993 12.4705 33.9493 12.141C34.4715 11.7689 35.0634 11.5061 35.6896 11.3684C36.3159 11.2307 36.9634 11.2209 37.5935 11.3396C38.2236 11.4582 38.8233 11.7029 39.3565 12.059C39.8897 12.4151 40.3455 12.8752 40.6966 13.4117C41.0477 13.9483 41.2868 14.5502 41.3995 15.1814C41.5123 15.8125 41.4964 16.46 41.3528 17.0849C41.2093 17.7098 40.941 18.2993 40.564 18.8179C40.1871 19.3366 39.7093 19.7738 39.1592 20.1033ZM39.5678 14.15C39.0405 13.3531 38.2191 12.7973 37.2833 12.6043C36.3474 12.4113 35.3732 12.5967 34.5736 13.12C33.774 13.6432 33.2142 14.4618 33.0164 15.3967C32.8187 16.3316 32.9992 17.3067 33.5185 18.1089C34.0457 18.9058 34.8671 19.4616 35.803 19.6546C36.7388 19.8476 37.7131 19.6622 38.5126 19.1389C39.3122 18.6157 39.8721 17.7971 40.0698 16.8622C40.2675 15.9273 40.087 14.9522 39.5678 14.15ZM29.1195 26.3946L33.1552 22.7759L33.927 23.636L28.9029 28.1425L22.6931 21.2192L27.5789 16.8371L28.3469 17.6973L24.4502 21.1923L26.3609 23.3188L29.8322 20.2055L30.5863 21.0464L27.1151 24.1598L29.1195 26.3946ZM24.1891 33.4077L21.697 36.4328L14.5195 30.5194L17.0116 27.4943C18.9131 25.1904 21.6617 24.8179 23.7944 26.5728C25.927 28.3276 26.0906 31.1007 24.1891 33.4077ZM22.9496 27.6003C21.3368 26.2732 19.3148 26.5159 17.8533 28.2915L16.2567 30.2306L21.6494 34.6741L23.2468 32.7365C24.7083 30.9602 24.5593 28.9251 22.9496 27.6003ZM19.4806 39.9201L11.6711 34.8676L12.393 33.7518L20.2018 38.805L19.4806 39.9201ZM16.2482 45.6331L6.10561 45.0256L6.76069 43.747L15.0894 44.2577L9.83259 37.7637L10.4393 36.5818L16.8526 44.4604L16.2482 45.6331ZM12.0843 56.1298L11.7172 57.3931L8.6069 56.4953L1.76425 58.3646L2.15822 56.9991L7.68763 55.4985L3.80706 51.2731L4.17185 50.009L8.99319 55.242L12.0843 56.1298ZM10.5906 61.7176L8.1392 62.3819L7.40271 67.2692L9.54844 68.627L9.34492 69.9802L0.777399 64.4277L0.973232 63.1276L10.7956 60.3352L10.5906 61.7176ZM2.21428 63.9862L6.41817 66.6495L7.01642 62.6821L2.21428 63.9862ZM8.24749 70.1361L9.40329 70.1545L9.30268 76.5195L0.000976562 76.372L0.0217119 75.0435L8.16762 75.1725L8.24749 70.1361ZM3.27946 79.1575C5.28541 78.9271 6.66546 80.2396 6.94039 82.641L7.20227 84.9242L9.99924 84.6032L10.1528 85.9226L0.914098 86.9839L0.501696 83.3821C0.226761 80.9776 1.27274 79.3871 3.27946 79.1575ZM1.65673 83.2869L1.91323 85.5301L6.05646 85.0555L5.79995 82.8123C5.60642 81.1227 4.75243 80.3256 3.43305 80.4769C2.11367 80.6282 1.4609 81.5981 1.65673 83.2869ZM3.86466 97.8508L4.43065 97.2164L5.78152 98.4183L6.09869 96.6312L6.92427 96.7787L6.56562 98.608L8.26669 97.9974L8.5301 98.7501L6.82059 99.3353L8.24211 100.54L7.68917 101.171L6.32141 99.9627L6.02113 101.757L5.18327 101.615L5.54191 99.7853L3.85237 100.391L3.58895 99.6394L5.28618 99.058L3.86466 97.8508ZM13.1917 108.903C13.727 108.551 14.3287 108.311 14.9599 108.198C15.5912 108.086 16.2387 108.104 16.8628 108.251C17.487 108.397 18.0746 108.67 18.5897 109.052C19.1048 109.434 19.5365 109.916 19.8585 110.471C20.2342 110.995 20.4994 111.59 20.6381 112.22C20.7767 112.85 20.786 113.502 20.6652 114.136C20.5444 114.769 20.2961 115.372 19.9354 115.907C19.5747 116.441 19.1091 116.897 18.5669 117.247C18.0246 117.596 17.4171 117.832 16.781 117.939C16.145 118.046 15.4937 118.023 14.8668 117.872C14.2399 117.72 13.6504 117.442 13.1341 117.055C12.6177 116.669 12.1853 116.181 11.8631 115.622C11.4912 115.1 11.2299 114.507 11.0952 113.88C10.9604 113.253 10.9551 112.606 11.0794 111.977C11.2038 111.348 11.4553 110.751 11.8185 110.222C12.1817 109.694 12.649 109.245 13.1917 108.903ZM12.8569 114.982C13.2435 115.572 13.7962 116.035 14.4454 116.311C15.0945 116.588 15.811 116.666 16.5045 116.536C17.198 116.406 17.8375 116.074 18.3424 115.581C18.8473 115.088 19.1949 114.456 19.3415 113.766C19.488 113.076 19.427 112.358 19.166 111.702C18.905 111.047 18.4558 110.483 17.875 110.082C17.2941 109.682 16.6077 109.462 15.9022 109.451C15.1967 109.44 14.5037 109.638 13.9105 110.02C13.5061 110.268 13.1564 110.596 12.8827 110.984C12.6091 111.371 12.4171 111.811 12.3185 112.275C12.22 112.739 12.2169 113.218 12.3094 113.684C12.402 114.149 12.5882 114.591 12.8569 114.982ZM20.8484 125.181L22.988 123.29L19.8984 119.798L20.7432 119.05L23.832 122.542L26.0806 120.553L22.4896 116.493L23.3551 115.725L27.8262 120.779L20.8615 126.94L16.514 122.025L17.3795 121.257L20.8484 125.181ZM33.0592 125.529L36.0674 128.043L30.1033 135.179L27.0959 132.666C24.8019 130.746 24.4517 127.998 26.2242 125.877C27.9967 123.756 30.7676 123.612 33.0607 125.529H33.0592ZM27.8984 131.831L29.8253 133.443L34.3064 128.081L32.3795 126.468C30.6132 124.994 28.5811 125.129 27.2433 126.73C25.9055 128.33 26.1359 130.356 27.9 131.834L27.8984 131.831ZM39.5394 130.282L34.4293 138.05L33.3195 137.319L38.4296 129.551L39.5394 130.282ZM69.7062 140.565L76.0658 140.705L75.8607 149.998L74.5329 149.969L74.7126 141.828L69.6808 141.717L69.7062 140.565ZM82.1765 143.109L84.4613 142.863L84.161 140.064L85.4811 139.922L86.4741 149.167L82.8685 149.551C80.4647 149.809 78.8819 148.75 78.6661 146.742C78.4503 144.735 79.7728 143.367 82.1765 143.109ZM79.9901 146.603C80.1322 147.924 81.0975 148.582 82.7878 148.4L85.0334 148.159L84.588 144.012L82.3424 144.253C80.649 144.435 79.845 145.282 79.9901 146.603ZM96.3349 143.216L98.1604 143.586L97.5614 141.882L98.3155 141.623L98.8892 143.336L100.103 141.922L100.73 142.479L99.5113 143.839L101.304 144.15L101.156 144.988L99.3293 144.617L99.9237 146.307L99.1703 146.566L98.6004 144.865L97.387 146.279L96.7558 145.709L97.9661 144.367L96.1821 144.039L96.3349 143.216ZM110.095 130.384C110.901 129.912 111.829 129.687 112.762 129.738C113.695 129.789 114.593 130.113 115.343 130.671C116.093 131.228 116.662 131.994 116.98 132.873C117.298 133.752 117.35 134.705 117.13 135.613C116.91 136.521 116.428 137.345 115.743 137.981C115.058 138.617 114.201 139.037 113.279 139.19C112.357 139.342 111.411 139.22 110.558 138.838C109.704 138.456 108.983 137.832 108.482 137.043C108.135 136.504 107.9 135.901 107.793 135.269C107.687 134.637 107.709 133.99 107.86 133.368C108.011 132.745 108.287 132.159 108.671 131.646C109.055 131.134 109.539 130.704 110.095 130.384ZM109.606 136.33C109.984 136.94 110.535 137.423 111.188 137.719C111.841 138.014 112.568 138.109 113.275 137.991C113.982 137.872 114.638 137.546 115.159 137.054C115.681 136.562 116.044 135.925 116.203 135.226C116.361 134.527 116.308 133.796 116.051 133.127C115.793 132.458 115.342 131.881 114.755 131.468C114.168 131.056 113.472 130.828 112.755 130.813C112.038 130.798 111.333 130.996 110.729 131.383C110.32 131.624 109.965 131.947 109.685 132.331C109.405 132.714 109.206 133.151 109.101 133.614C108.996 134.077 108.986 134.557 109.072 135.024C109.159 135.491 109.339 135.935 109.603 136.33H109.606ZM120.217 124.231L116.134 127.797L115.374 126.926L120.457 122.486L126.577 129.491L121.633 133.809L120.872 132.939L124.815 129.494L122.936 127.344L119.423 130.416L118.68 129.565L122.193 126.497L120.217 124.231ZM125.239 117.283L127.773 114.292L134.87 120.305L132.335 123.295C130.403 125.576 127.651 125.906 125.541 124.121C123.431 122.335 123.304 119.561 125.239 117.281V117.283ZM131.504 122.487L133.128 120.571L127.796 116.053L126.172 117.969C124.686 119.723 124.808 121.759 126.399 123.107C127.99 124.456 130.018 124.238 131.504 122.485V122.487ZM130.035 110.836L137.77 115.996L137.033 117.102L129.298 111.943L130.035 110.836ZM133.347 105.162L143.484 105.901L142.812 107.169L134.492 106.55L139.663 113.111L139.041 114.285L132.732 106.325L133.347 105.162ZM137.647 94.7266L138.031 93.4679L141.134 94.4087L148.003 92.6324L147.591 93.9925L142.036 95.4186L145.86 99.7016L145.476 100.96L140.725 95.6613L137.647 94.7266ZM139.218 89.1796L141.675 88.5475L142.478 83.6693L140.349 82.2824L140.571 80.9315L149.066 86.5976L148.853 87.8955L138.988 90.5565L139.218 89.1796ZM147.626 87.02L143.454 84.3006L142.803 88.2611L147.626 87.02ZM141.672 80.781L140.52 80.7472L140.705 74.3876L149.997 74.6587L149.959 75.9865L141.818 75.7492L141.672 80.781Z" fill="white"/>
<path d="M89.0264 72.5938C89.4966 72.8625 89.8874 73.2507 90.1592 73.7191C90.4311 74.1875 90.5742 74.7194 90.5742 75.261C90.5742 75.8026 90.4311 76.3345 90.1592 76.8029C89.8874 77.2713 89.4966 77.6595 89.0264 77.9282L71.4113 87.994C70.9442 88.2611 70.415 88.4007 69.8769 88.3989C69.3388 88.3972 68.8106 88.2541 68.3451 87.984C67.8797 87.7139 67.4934 87.3263 67.2248 86.86C66.9563 86.3937 66.815 85.865 66.815 85.3268V65.1952C66.815 64.657 66.9563 64.1283 67.2248 63.662C67.4934 63.1957 67.8797 62.8081 68.3451 62.538C68.8106 62.2679 69.3388 62.1248 69.8769 62.1231C70.415 62.1213 70.9442 62.2609 71.4113 62.528L89.0264 72.5938Z" fill="white"/>
</svg>
