<svg width="10" height="13" viewBox="0 0 10 13" fill="none" xmlns="http://www.w3.org/2000/svg">
<path d="M3.34747 7.58747L3.90138 7.45924C3.91968 7.4552 3.93779 7.45035 3.95566 7.44471C4.10858 7.4036 4.23957 7.30475 4.32105 7.16898C4.40253 7.03321 4.42813 6.87112 4.39247 6.71684L4.38991 6.70701C4.37169 6.63307 4.3398 6.5632 4.29588 6.501C4.23381 6.42239 4.15701 6.35662 4.06978 6.30738C3.96705 6.24879 3.85953 6.19903 3.74838 6.15865L3.14146 5.93725C2.80081 5.81074 2.45975 5.68722 2.11568 5.56669C1.89301 5.48762 1.70409 5.41795 1.53954 5.36752C1.50877 5.35769 1.47458 5.34829 1.4468 5.33888C1.24805 5.27777 1.10914 5.25255 0.990753 5.25212C0.911973 5.24922 0.833505 5.26351 0.760808 5.29401C0.684864 5.32666 0.616694 5.37502 0.560783 5.4359C0.533008 5.46758 0.506902 5.50068 0.482568 5.53506C0.435176 5.60785 0.39604 5.68569 0.365885 5.76714C0.253273 6.10025 0.197222 6.44985 0.200053 6.80147C0.202618 7.11946 0.211165 7.5272 0.385974 7.80373C0.427859 7.87468 0.484277 7.93623 0.551807 7.98367C0.676182 8.06958 0.80184 8.08112 0.933054 8.09052C1.12838 8.1042 1.31772 8.05633 1.50663 8.01273L3.34619 7.58704L3.34747 7.58747ZM9.5239 4.64606C9.37272 4.32883 9.16946 4.03917 8.92255 3.78911C8.89052 3.75747 8.85623 3.72818 8.81997 3.70149C8.78659 3.67634 8.75192 3.65295 8.71611 3.6314C8.67906 3.61128 8.64097 3.59316 8.60199 3.57712C8.52523 3.54686 8.44293 3.53317 8.36051 3.53694C8.28172 3.54171 8.20489 3.56343 8.13527 3.60063C8.0297 3.6532 7.91558 3.7374 7.76342 3.87844C7.74248 3.89981 7.71641 3.92332 7.69247 3.94511C7.56724 4.06308 7.42748 4.20882 7.26165 4.37808C7.0052 4.63708 6.75303 4.8978 6.50215 5.16108L6.05337 5.62696C5.97131 5.71244 5.89651 5.8039 5.82984 5.90178C5.77299 5.98427 5.73282 6.07701 5.71145 6.17532C5.69882 6.25047 5.70056 6.32734 5.71658 6.40184L5.71914 6.41167C5.75468 6.56576 5.84864 6.70004 5.98123 6.78622C6.11381 6.87241 6.27467 6.90377 6.42992 6.8737C6.45428 6.87028 6.47351 6.866 6.48548 6.86344L8.87895 6.30952C9.06786 6.26593 9.25934 6.22575 9.42859 6.12745C9.54228 6.0612 9.65042 5.99581 9.72436 5.86417C9.76409 5.79162 9.78812 5.71153 9.79488 5.62909C9.83164 5.30298 9.6611 4.93242 9.5239 4.64606ZM5.23959 5.65388C5.41312 5.43591 5.41226 5.11108 5.42765 4.84523C5.47979 3.95794 5.5345 3.07064 5.57767 2.18249C5.59477 1.84655 5.63067 1.51489 5.61015 1.17595C5.59391 0.89643 5.59177 0.575449 5.41526 0.345932C5.10325 -0.0583939 4.43906 -0.0250564 3.98601 0.0381996C3.84711 0.0574329 3.7082 0.0830772 3.57014 0.116415C3.43209 0.149753 3.29575 0.185655 3.16197 0.228823C2.7273 0.371149 2.11568 0.632721 2.01225 1.13407C1.95413 1.41744 2.0926 1.70679 2.19988 1.9658C2.32981 2.27909 2.50762 2.56117 2.67003 2.85608C3.09786 3.63525 3.53424 4.40885 3.96934 5.18374C4.09928 5.41453 4.24075 5.70774 4.49206 5.82741C4.50873 5.83467 4.5254 5.84109 4.54292 5.84664C4.65533 5.88938 4.778 5.89793 4.89553 5.87015L4.9169 5.86545C5.02503 5.83553 5.12291 5.77697 5.19984 5.69491C5.21395 5.68209 5.2272 5.66841 5.23959 5.65388ZM5.03273 8.02983C4.96504 7.93451 4.86891 7.86307 4.75811 7.82575C4.64731 7.78843 4.52755 7.78716 4.41598 7.82211C4.38948 7.83066 4.36427 7.84134 4.33905 7.85374C4.301 7.87343 4.26468 7.8963 4.23049 7.92212C4.1309 7.99564 4.0467 8.0918 3.97063 8.18797C3.95096 8.21276 3.93344 8.24524 3.91036 8.26661L3.5257 8.79659C3.30729 9.09321 3.09188 9.39069 2.8786 9.69286C2.73927 9.88819 2.61917 10.0527 2.52386 10.1985C2.50591 10.2263 2.4871 10.257 2.47 10.2814C2.35589 10.4579 2.29135 10.5866 2.25844 10.7011C2.23351 10.7774 2.22563 10.8582 2.23536 10.9379C2.24604 11.0208 2.27382 11.1003 2.31742 11.1717C2.3405 11.2076 2.36529 11.2422 2.39179 11.2755C2.44947 11.3419 2.51441 11.4015 2.5854 11.4533C2.85125 11.6384 3.14231 11.7713 3.44876 11.8739C3.70345 11.9583 3.96816 12.0088 4.23605 12.0239C4.28135 12.0261 4.32708 12.0252 4.37281 12.0209C4.41484 12.0173 4.45664 12.0114 4.49804 12.0034C4.53954 11.9936 4.58049 11.9817 4.62071 11.9675C4.69781 11.9402 4.76794 11.8962 4.82609 11.8386C4.88423 11.7811 4.92895 11.7114 4.95708 11.6346C5.00153 11.5234 5.03059 11.3824 5.04983 11.1738C5.05153 11.1439 5.05581 11.108 5.0588 11.0755C5.07376 10.902 5.08103 10.6981 5.09214 10.4583C5.11052 10.0899 5.12547 9.72321 5.13701 9.35479L5.16138 8.70086C5.16693 8.54955 5.16223 8.38287 5.12035 8.23285C5.10198 8.16092 5.07226 8.09239 5.0323 8.02983H5.03273ZM9.37944 9.05261C9.29909 8.96457 9.1854 8.87652 9.00546 8.76796C8.97982 8.75343 8.94905 8.73419 8.92126 8.71753C8.77167 8.62777 8.59131 8.53289 8.38102 8.41834C8.05798 8.24175 7.73342 8.06793 7.40739 7.89691L6.8304 7.59088C6.80048 7.58234 6.77013 7.56097 6.74192 7.54729C6.63103 7.4905 6.51322 7.4484 6.39145 7.42206C6.34944 7.41412 6.30683 7.40983 6.26408 7.40924C6.2365 7.40843 6.2089 7.41001 6.18159 7.41394C6.06616 7.43173 5.9593 7.48553 5.87625 7.56765C5.7932 7.64978 5.73822 7.75604 5.71914 7.87126C5.7106 7.94478 5.71316 8.01914 5.72726 8.09138C5.75547 8.24524 5.82428 8.39697 5.89523 8.52989L6.20339 9.10732C6.37478 9.433 6.54874 9.75698 6.72654 10.0797C6.84151 10.29 6.93682 10.4703 7.02615 10.6195C7.04325 10.6477 7.06248 10.678 7.07744 10.7037C7.186 10.8832 7.27361 10.9965 7.36209 11.0772C7.41979 11.1328 7.4886 11.1751 7.56425 11.2012C7.64332 11.2273 7.72752 11.2367 7.81044 11.2285C7.85269 11.2234 7.89464 11.216 7.93609 11.2063C7.97713 11.1956 8.0173 11.1824 8.05705 11.1674C8.09979 11.1512 8.14125 11.1319 8.181 11.1097C8.41517 10.9783 8.63102 10.8167 8.82296 10.6289C9.05333 10.4024 9.25678 10.1549 9.41492 9.87237C9.43704 9.83223 9.45618 9.79052 9.47219 9.74757C9.48713 9.7081 9.49997 9.66787 9.51066 9.62704C9.52006 9.58516 9.52733 9.54327 9.53203 9.50096C9.53998 9.41783 9.53037 9.33395 9.50382 9.25477C9.47778 9.17913 9.43547 9.11013 9.37987 9.05261H9.37944Z" fill="#2C5697"/>
</svg>
